<svg width="120" height="38" viewBox="0 0 120 38" fill="none" xmlns="http://www.w3.org/2000/svg">
<path d="M118.446 32.5787C118.446 33.0263 118.358 33.4695 118.188 33.883C118.018 34.2965 117.768 34.6722 117.453 34.9886C117.139 35.3049 116.765 35.5557 116.354 35.7267C115.943 35.8977 115.503 35.9854 115.058 35.985H4.17908C3.2804 35.9859 2.41815 35.6276 1.78194 34.9888C1.14573 34.35 0.78767 33.4831 0.786499 32.5787V5.41464C0.78767 4.5098 1.14559 3.64242 1.78167 3.00293C2.41775 2.36345 3.28 2.00414 4.17908 2.00391H115.057C115.502 2.00391 115.943 2.09213 116.354 2.26355C116.765 2.43497 117.138 2.68621 117.453 3.00294C117.768 3.31967 118.017 3.69567 118.188 4.10948C118.358 4.52328 118.445 4.96678 118.445 5.41464L118.446 32.5787Z" fill="white"/>
<path d="M118.446 32.5787C118.446 33.0263 118.358 33.4695 118.188 33.883C118.018 34.2965 117.768 34.6722 117.453 34.9886C117.139 35.3049 116.765 35.5557 116.354 35.7267C115.943 35.8977 115.503 35.9854 115.058 35.985H4.17908C3.2804 35.9859 2.41815 35.6276 1.78194 34.9888C1.14573 34.35 0.78767 33.4831 0.786499 32.5787V5.41464C0.78767 4.5098 1.14559 3.64242 1.78167 3.00293C2.41775 2.36345 3.28 2.00414 4.17908 2.00391H115.057C115.502 2.00391 115.943 2.09213 116.354 2.26355C116.765 2.43497 117.138 2.68621 117.453 3.00294C117.768 3.31967 118.017 3.69567 118.188 4.10948C118.358 4.52328 118.445 4.96678 118.445 5.41464L118.446 32.5787Z" fill="#242629"/>
<path d="M26.6245 18.8063C26.5989 15.9399 28.9567 14.5453 29.0645 14.4804C27.7292 12.5211 25.6595 12.2534 24.9322 12.2321C23.194 12.048 21.5078 13.2789 20.6224 13.2789C19.7192 13.2789 18.3556 12.2499 16.886 12.2801C14.9949 12.3095 13.2257 13.4114 12.2553 15.1226C10.2528 18.6116 11.7463 23.7388 13.6649 26.559C14.6246 27.941 15.746 29.4823 17.2139 29.4281C18.6499 29.3694 19.1863 28.5076 20.9193 28.5076C22.6363 28.5076 23.1401 29.4281 24.6371 29.3934C26.1783 29.3694 27.1486 28.006 28.0747 26.6123C29.1838 25.0301 29.6292 23.4702 29.6469 23.3901C29.6115 23.3777 26.6546 22.2411 26.6245 18.8063ZM23.7967 10.3769C24.569 9.40479 25.0975 8.08229 24.9508 6.74023C23.8329 6.79004 22.4349 7.51843 21.6298 8.46917C20.9175 9.30696 20.2812 10.6801 20.4456 11.9715C21.7014 12.0658 22.9907 11.3338 23.7967 10.3769Z" fill="white"/>
<path d="M115.058 1.21094H55.6678L78.9299 36.776H115.058C116.165 36.775 117.227 36.3322 118.01 35.5446C118.794 34.7571 119.235 33.689 119.237 32.5746V5.4141C119.235 4.29947 118.794 3.23107 118.011 2.44315C117.227 1.65524 116.165 1.21211 115.058 1.21094Z" fill="url(#paint0_linear_549_2732)"/>
<path d="M47.4246 29.2297H45.4177L44.3183 25.7531H40.4971L39.4499 29.2297H37.496L41.2828 17.394H43.6211L47.4246 29.2297ZM43.9869 24.2946L42.9927 21.204C42.8876 20.8883 42.6896 20.1448 42.3998 18.9744H42.3644C42.2478 19.4778 42.0613 20.2213 41.8059 21.204L40.8285 24.2946H43.9869ZM57.1437 24.8576C57.1437 26.309 56.7522 27.4563 55.9683 28.2985C55.2667 29.0483 54.3944 29.4227 53.3543 29.4227C52.2311 29.4227 51.4234 29.0198 50.9329 28.2123V32.6902H49.0488V23.5004C49.0488 22.5888 49.025 21.654 48.979 20.6953H50.636L50.7411 22.048H50.7765C51.4048 21.0288 52.3583 20.5192 53.638 20.5192C54.6383 20.5192 55.4734 20.9168 56.1415 21.7127C56.8087 22.5105 57.1437 23.5582 57.1437 24.8576ZM55.2242 24.9269C55.2242 24.0963 55.0387 23.4114 54.6657 22.8716C54.2583 22.3104 53.7113 22.0294 53.0255 22.0294C52.5607 22.0294 52.1383 22.1859 51.761 22.4945C51.3827 22.8058 51.1353 23.2122 51.0195 23.7156C50.9678 23.9039 50.9385 24.0976 50.932 24.2928V25.7167C50.932 26.3366 51.1211 26.8604 51.4994 27.2891C51.8776 27.716 52.369 27.9303 52.9734 27.9303C53.683 27.9303 54.2354 27.6537 54.6304 27.105C55.0263 26.5545 55.2242 25.8287 55.2242 24.9269ZM66.8972 24.8576C66.8972 26.309 66.5057 27.4563 65.7219 28.2985C65.0193 29.0483 64.148 29.4227 63.107 29.4227C61.9838 29.4227 61.1761 29.0198 60.6856 28.2123V32.6902H58.8015V23.5004C58.8015 22.5888 58.7777 21.654 58.7317 20.6953H60.3887L60.4938 22.048H60.5292C61.1566 21.0288 62.1101 20.5192 63.3906 20.5192C64.3901 20.5192 65.2252 20.9168 65.8951 21.7127C66.5614 22.5105 66.8972 23.5582 66.8972 24.8576ZM64.9769 24.9269C64.9769 24.0963 64.7904 23.4114 64.4175 22.8716C64.0101 22.3104 63.4649 22.0294 62.7791 22.0294C62.3143 22.0294 61.8919 22.1859 61.5128 22.4945C61.1345 22.8058 60.888 23.2122 60.7722 23.7156C60.7148 23.9504 60.6838 24.1416 60.6838 24.2928V25.7167C60.6838 26.3366 60.8738 26.8604 61.2503 27.2891C61.6285 27.7151 62.1199 27.9303 62.7261 27.9303C63.4366 27.9303 63.9889 27.6537 64.3831 27.105C64.779 26.5545 64.9769 25.8287 64.9769 24.9269ZM77.8023 25.9097C77.8023 26.9173 77.4523 27.7364 76.7568 28.3688C75.9915 29.0589 74.9231 29.4049 73.5534 29.4049C72.2879 29.4049 71.2734 29.1594 70.5081 28.6676L70.9438 27.0872C71.77 27.5799 72.6776 27.8254 73.6656 27.8254C74.3761 27.8254 74.9284 27.6635 75.3226 27.3425C75.7176 27.0205 75.9173 26.59 75.9173 26.0529C75.9173 25.5717 75.752 25.1688 75.4277 24.8407C75.1016 24.5134 74.5626 24.2083 73.8052 23.9282C71.7462 23.1553 70.7158 22.0249 70.7158 20.5379C70.7158 19.5667 71.0798 18.7716 71.8063 18.1499C72.5327 17.5291 73.4959 17.2188 74.6942 17.2188C75.7644 17.2188 76.6561 17.4064 77.3639 17.7808L76.8912 19.3266C76.2248 18.9637 75.4728 18.7823 74.6315 18.7823C73.9669 18.7823 73.4456 18.9468 73.0726 19.2741C72.7589 19.5667 72.5998 19.9233 72.5998 20.3467C72.5998 20.8136 72.781 21.2014 73.1415 21.5055C73.4544 21.7857 74.0253 22.0907 74.8507 22.418C75.8634 22.8289 76.6075 23.3074 77.0838 23.857C77.5637 24.4066 77.8023 25.0923 77.8023 25.9097ZM84.0475 22.1183H81.9707V26.2619C81.9707 27.3158 82.3366 27.8414 83.0701 27.8414C83.4068 27.8414 83.686 27.8129 83.907 27.7533L83.9591 29.1932C83.5879 29.3329 83.0992 29.4031 82.4939 29.4031C81.7498 29.4031 81.1683 29.1746 80.7486 28.7174C80.3306 28.2603 80.1202 27.4945 80.1202 26.4166V22.1147H78.883V20.6917H80.1202V19.1291L81.9707 18.567V20.6917H84.0475V22.1183ZM93.3989 24.8922C93.3989 26.2041 93.026 27.2811 92.2819 28.1233C91.5034 28.9905 90.4677 29.4227 89.1766 29.4227C87.9305 29.4227 86.9399 29.0074 86.2011 28.1776C85.4623 27.346 85.0929 26.2983 85.0929 25.0345C85.0929 23.712 85.4747 22.6288 86.2355 21.7866C86.9982 20.9434 88.0251 20.5219 89.3162 20.5219C90.5605 20.5219 91.5599 20.9381 92.3164 21.7688C93.0393 22.5745 93.3989 23.6151 93.3989 24.8922ZM91.4459 24.9358C91.4459 24.1541 91.278 23.4835 90.9413 22.9223C90.5463 22.2446 89.9807 21.9057 89.2481 21.9057C88.4934 21.9057 87.9146 22.2446 87.5205 22.9223C87.1829 23.4835 87.015 24.1656 87.015 24.9714C87.015 25.754 87.1829 26.4264 87.5205 26.9858C87.9279 27.6635 88.4961 28.0024 89.2322 28.0024C89.9525 28.0024 90.5171 27.6564 90.9254 26.9689C91.2718 26.3944 91.4459 25.7194 91.4459 24.9358ZM99.5257 22.3629C99.3298 22.3273 99.131 22.3097 98.9319 22.3104C98.2691 22.3104 97.7565 22.5612 97.396 23.0664C97.0831 23.511 96.9258 24.0731 96.9258 24.7517V29.2297H95.0418V23.383C95.0434 22.4871 95.0252 21.5913 94.987 20.6962H96.628L96.697 22.3291H96.7491C96.9488 21.7679 97.2617 21.3152 97.6911 20.9763C98.0843 20.6802 98.5619 20.5199 99.0529 20.5192C99.227 20.5192 99.3843 20.5317 99.524 20.5539L99.5257 22.3629ZM107.952 24.5587C107.957 24.847 107.934 25.135 107.883 25.4187H102.231C102.252 26.2619 102.526 26.9076 103.051 27.3522C103.527 27.7489 104.143 27.9481 104.9 27.9481C105.736 27.9481 106.5 27.8147 107.187 27.5452L107.482 28.8606C106.679 29.2128 105.732 29.388 104.639 29.388C103.324 29.388 102.292 28.9985 101.541 28.2212C100.791 27.443 100.416 26.3971 100.416 25.087C100.416 23.801 100.765 22.7293 101.464 21.8746C102.195 20.9621 103.184 20.5059 104.429 20.5059C105.651 20.5059 106.576 20.9621 107.204 21.8746C107.702 22.5977 107.952 23.4941 107.952 24.5587ZM106.155 24.0669C106.169 23.5039 106.045 23.0192 105.79 22.6092C105.463 22.0809 104.961 21.8177 104.289 21.8177C103.673 21.8177 103.171 22.0747 102.789 22.5905C102.476 23.0005 102.289 23.4933 102.232 24.0651L106.155 24.0669Z" fill="white"/>
<path d="M39.9536 13.2095C39.4296 13.2095 38.9762 13.1837 38.5989 13.1401V7.41793C39.1266 7.33589 39.66 7.29544 40.194 7.29698C42.3547 7.29698 43.3497 8.36689 43.3497 10.1109C43.3497 12.1227 42.1744 13.2095 39.9536 13.2095ZM40.27 8.03071C39.9784 8.03071 39.73 8.0485 39.5241 8.09119V12.4411C39.6355 12.4589 39.8493 12.4669 40.1498 12.4669C41.5655 12.4669 42.3715 11.6558 42.3715 10.1367C42.3715 8.78223 41.6424 8.03071 40.27 8.03071ZM46.4507 13.2531C45.2329 13.2531 44.4438 12.3379 44.4438 11.0955C44.4438 9.80056 45.2497 8.87739 46.5196 8.87739C47.7197 8.87739 48.5265 9.74897 48.5265 11.027C48.5265 12.3379 47.695 13.2531 46.4507 13.2531ZM46.486 9.55865C45.8171 9.55865 45.3885 10.1883 45.3885 11.0688C45.3885 11.9324 45.8259 12.5621 46.4772 12.5621C47.1285 12.5621 47.5659 11.8888 47.5659 11.051C47.5659 10.1972 47.1373 9.55865 46.486 9.55865ZM55.4708 8.96366L54.1673 13.1579H53.318L52.7781 11.3365C52.6438 10.891 52.532 10.4389 52.4432 9.98199H52.4255C52.3574 10.4391 52.2284 10.8972 52.0914 11.3365L51.517 13.1579H50.6589L49.4323 8.96366H50.3841L50.856 10.9576C50.9673 11.4326 51.061 11.8808 51.1388 12.3041H51.1565C51.2245 11.9511 51.3359 11.5099 51.4993 10.9665L52.0914 8.96455H52.8461L53.4126 10.9238C53.5496 11.3988 53.6609 11.8648 53.7475 12.305H53.7723C53.8323 11.8737 53.9269 11.4157 54.055 10.9238L54.5614 8.96455L55.4708 8.96366ZM60.2693 13.1579H59.3432V10.7495C59.3432 10.0078 59.0604 9.63602 58.5028 9.63602C57.954 9.63602 57.5766 10.1109 57.5766 10.6632V13.1579H56.6505V10.1625C56.6505 9.79166 56.6417 9.39412 56.6161 8.96277H57.4308L57.4741 9.61023H57.4998C57.749 9.16199 58.2545 8.87739 58.8209 8.87739C59.6958 8.87739 60.2702 9.55065 60.2702 10.6463L60.2693 13.1579ZM62.8233 13.1579H61.8962V7.03906H62.8233V13.1579ZM66.1999 13.2531C64.9831 13.2531 64.193 12.3379 64.193 11.0955C64.193 9.80056 64.999 8.87739 66.268 8.87739C67.469 8.87739 68.2749 9.74897 68.2749 11.027C68.2758 12.3379 67.4433 13.2531 66.1999 13.2531ZM66.2344 9.55865C65.5654 9.55865 65.1368 10.1883 65.1368 11.0688C65.1368 11.9324 65.5752 12.5621 66.2247 12.5621C66.8769 12.5621 67.3134 11.8888 67.3134 11.051C67.3143 10.1972 66.8866 9.55865 66.2344 9.55865ZM71.9264 13.1579L71.8592 12.675H71.8345C71.5517 13.0637 71.139 13.2531 70.6159 13.2531C69.8691 13.2531 69.3389 12.7266 69.3389 12.0186C69.3389 10.9834 70.2306 10.448 71.7744 10.448V10.3706C71.7744 9.81835 71.4837 9.54175 70.9092 9.54175C70.4983 9.54175 70.1378 9.64581 69.8205 9.85303L69.6323 9.24025C70.0176 8.99835 70.4983 8.87739 71.063 8.87739C72.1518 8.87739 72.7014 9.45548 72.7014 10.6126V12.1574C72.7014 12.5807 72.72 12.9089 72.7615 13.1588L71.9264 13.1579ZM71.7992 11.0688C70.7705 11.0688 70.2544 11.3196 70.2544 11.9146C70.2544 12.3548 70.5204 12.5701 70.8898 12.5701C71.3608 12.5701 71.7992 12.2081 71.7992 11.7163V11.0688ZM77.1987 13.1579L77.1553 12.4847H77.1297C76.8637 12.9934 76.4166 13.2531 75.7918 13.2531C74.787 13.2531 74.0429 12.3637 74.0429 11.1124C74.0429 9.80056 74.8144 8.8765 75.8678 8.8765C76.4254 8.8765 76.8204 9.06594 77.0431 9.44659H77.0617V7.03906H77.9887V12.0275C77.9887 12.4331 77.9984 12.8129 78.0232 13.1579H77.1987ZM77.0617 10.6899C77.0617 10.1029 76.6755 9.60223 76.0861 9.60223C75.3994 9.60223 74.9796 10.215 74.9796 11.0777C74.9796 11.9235 75.4153 12.5025 76.0675 12.5025C76.6499 12.5025 77.0617 11.9929 77.0617 11.389V10.6899ZM83.8663 13.2531C82.6494 13.2531 81.8602 12.3379 81.8602 11.0955C81.8602 9.80056 82.6662 8.87739 83.9352 8.87739C85.1362 8.87739 85.9421 9.74897 85.9421 11.027C85.943 12.3379 85.1114 13.2531 83.8663 13.2531ZM83.9007 9.55865C83.2327 9.55865 82.804 10.1883 82.804 11.0688C82.804 11.9324 83.2415 12.5621 83.8919 12.5621C84.5441 12.5621 84.9806 11.8888 84.9806 11.051C84.9824 10.1972 84.5538 9.55865 83.9007 9.55865ZM90.9227 13.1579H89.9957V10.7495C89.9957 10.0078 89.7129 9.63602 89.1553 9.63602C88.6065 9.63602 88.2301 10.1109 88.2301 10.6632V13.1579H87.303V10.1625C87.303 9.79166 87.2942 9.39412 87.2686 8.96277H88.0834L88.1267 9.61023H88.1523C88.4006 9.16199 88.907 8.8765 89.4726 8.8765C90.3474 8.8765 90.9227 9.54976 90.9227 10.6455V13.1579ZM97.1538 9.66271H96.1349V11.6994C96.1349 12.2179 96.3134 12.4767 96.674 12.4767C96.8374 12.4767 96.9744 12.4589 97.0849 12.4331L97.1105 13.141C96.9311 13.2104 96.6907 13.2451 96.392 13.2451C95.6621 13.2451 95.2255 12.8395 95.2255 11.7776V9.66271H94.6175V8.96366H95.2255V8.19524L96.1349 7.91865V8.96277H97.1538V9.66271ZM102.057 13.1579H101.131V10.7673C101.131 10.0167 100.85 9.63691 100.291 9.63691C99.8111 9.63691 99.364 9.96509 99.364 10.6295V13.1579H98.4387V7.03906H99.364V9.55865H99.3825C99.6742 9.10151 100.097 8.8765 100.636 8.8765C101.518 8.8765 102.057 9.56665 102.057 10.6632V13.1579ZM107.08 11.2849H104.3C104.318 12.0791 104.84 12.5274 105.614 12.5274C106.025 12.5274 106.403 12.458 106.737 12.329L106.881 12.9765C106.487 13.149 106.023 13.2353 105.483 13.2353C104.179 13.2353 103.408 12.4064 103.408 11.1213C103.408 9.83524 104.198 8.8685 105.379 8.8685C106.443 8.8685 107.112 9.66271 107.112 10.8625C107.118 11.0041 107.107 11.1459 107.08 11.2849ZM106.23 10.6206C106.23 9.9731 105.906 9.51596 105.314 9.51596C104.782 9.51596 104.361 9.98199 104.301 10.6206H106.23Z" fill="white"/>
<defs>
<linearGradient id="paint0_linear_549_2732" x1="87.4514" y1="36.8704" x2="87.4514" y2="-91.3943" gradientUnits="userSpaceOnUse">
<stop stop-color="#1A1A1A" stop-opacity="0.1"/>
<stop offset="0.123" stop-color="#212121" stop-opacity="0.151"/>
<stop offset="0.308" stop-color="#353535" stop-opacity="0.227"/>
<stop offset="0.532" stop-color="#575757" stop-opacity="0.318"/>
<stop offset="0.783" stop-color="#858585" stop-opacity="0.421"/>
<stop offset="1" stop-color="#B3B3B3" stop-opacity="0.51"/>
</linearGradient>
</defs>
</svg>
