<svg width="34" height="34" viewBox="0 0 34 34" fill="none" xmlns="http://www.w3.org/2000/svg">
<path fill-rule="evenodd" clip-rule="evenodd" d="M33 4.80709C33 2.70452 31.2924 1 29.1859 1C23.0294 1 10.9706 1 4.81393 1C2.70762 1 1 2.70452 1 4.80709C1 10.9639 1 23.0361 1 29.1929C1 31.2955 2.70762 33 4.81393 33C10.9706 33 23.0294 33 29.1859 33C31.2924 33 33 31.2955 33 29.1929C33 23.0361 33 10.9639 33 4.80709Z" stroke="white" stroke-width="1.00359" stroke-miterlimit="1.5" stroke-linecap="round" stroke-linejoin="round"/>
<path d="M1 17H32.9999" stroke="white" stroke-miterlimit="1.5" stroke-linecap="round" stroke-linejoin="round"/>
<path d="M17 1V33" stroke="white" stroke-miterlimit="1.5" stroke-linecap="round" stroke-linejoin="round"/>
<path d="M5.6084 9.30859H11.6417" stroke="white" stroke-miterlimit="1.5" stroke-linecap="round" stroke-linejoin="round"/>
<path d="M22.3584 9.30859H28.3917" stroke="white" stroke-miterlimit="1.5" stroke-linecap="round" stroke-linejoin="round"/>
<path d="M22.3584 23.2266H28.3917" stroke="white" stroke-miterlimit="1.5" stroke-linecap="round" stroke-linejoin="round"/>
<path d="M22.3584 27.4199H28.3917" stroke="white" stroke-miterlimit="1.5" stroke-linecap="round" stroke-linejoin="round"/>
<path d="M8.625 6.29688V12.3193" stroke="white" stroke-miterlimit="1.5" stroke-linecap="round" stroke-linejoin="round"/>
<path d="M6.49194 23.2383L10.7581 27.4968" stroke="white" stroke-miterlimit="1.5" stroke-linecap="round" stroke-linejoin="round"/>
<path d="M10.7581 23.2383L6.49189 27.4968" stroke="white" stroke-miterlimit="1.5" stroke-linecap="round" stroke-linejoin="round"/>
</svg>
