<svg width="120" height="38" viewBox="0 0 120 38" fill="none" xmlns="http://www.w3.org/2000/svg">
<g clip-path="url(#clip0_546_2719)">
<path d="M115.556 36.5701H4.44444C1.95556 36.5701 0 34.6042 0 32.1021V5.29417C0 2.79209 1.95556 0.826172 4.44444 0.826172H115.556C118.044 0.826172 120 2.79209 120 5.29417V32.1021C120 34.6042 118.044 36.5701 115.556 36.5701Z" fill="#242629"/>
<path d="M42.1333 9.94106C42.1333 10.6559 41.9555 11.2815 41.5111 11.7283C40.9778 12.2644 40.3555 12.5325 39.5555 12.5325C38.7555 12.5325 38.1333 12.2644 37.6 11.7283C37.0667 11.1921 36.8 10.5666 36.8 9.76234C36.8 8.95811 37.0667 8.33259 37.6 7.79643C38.1333 7.26027 38.7555 6.99219 39.5555 6.99219C39.9111 6.99219 40.2667 7.08155 40.6222 7.26027C40.9778 7.43899 41.2444 7.61771 41.4222 7.88579L40.9778 8.33259C40.6222 7.88579 40.1778 7.70707 39.5555 7.70707C39.0222 7.70707 38.4889 7.88579 38.1333 8.33259C37.6889 8.69003 37.5111 9.22619 37.5111 9.8517C37.5111 10.4772 37.6889 11.0134 38.1333 11.3708C38.5778 11.7283 39.0222 11.9963 39.5555 11.9963C40.1778 11.9963 40.6222 11.8176 41.0667 11.3708C41.3333 11.1027 41.5111 10.7453 41.5111 10.2985H39.5555V9.58362H42.1333V9.94106ZM46.2222 7.70707H43.8222V9.40491H46.0444V10.0304H43.8222V11.7283H46.2222V12.4431H43.1111V7.08155H46.2222V7.70707ZM49.1555 12.4431H48.4444V7.70707H46.9333V7.08155H50.6667V7.70707H49.1555V12.4431ZM53.2444 12.4431V7.08155H53.9555V12.4431H53.2444ZM56.9778 12.4431H56.2667V7.70707H54.7555V7.08155H58.4V7.70707H56.8889V12.4431H56.9778ZM65.4222 11.7283C64.8889 12.2644 64.2667 12.5325 63.4667 12.5325C62.6667 12.5325 62.0444 12.2644 61.5111 11.7283C60.9778 11.1921 60.7111 10.5666 60.7111 9.76234C60.7111 8.95811 60.9778 8.33259 61.5111 7.79643C62.0444 7.26027 62.6667 6.99219 63.4667 6.99219C64.2667 6.99219 64.8889 7.26027 65.4222 7.79643C65.9555 8.33259 66.2222 8.95811 66.2222 9.76234C66.2222 10.5666 65.9555 11.1921 65.4222 11.7283ZM62.0444 11.2815C62.4 11.6389 62.9333 11.907 63.4667 11.907C64 11.907 64.5333 11.7283 64.8889 11.2815C65.2444 10.924 65.5111 10.3879 65.5111 9.76234C65.5111 9.13683 65.3333 8.60067 64.8889 8.24323C64.5333 7.88579 64 7.61771 63.4667 7.61771C62.9333 7.61771 62.4 7.79643 62.0444 8.24323C61.6889 8.60067 61.4222 9.13683 61.4222 9.76234C61.4222 10.3879 61.6 10.924 62.0444 11.2815ZM67.2 12.4431V7.08155H68L70.5778 11.2815V7.08155H71.2889V12.4431H70.5778L67.8222 8.06451V12.4431H67.2Z" fill="white" stroke="white" stroke-width="1.18519" stroke-miterlimit="10"/>
<path d="M60.5333 20.3073C58.4 20.3073 56.7111 21.9158 56.7111 24.1498C56.7111 26.2944 58.4 27.9923 60.5333 27.9923C62.6667 27.9923 64.3556 26.3838 64.3556 24.1498C64.3556 21.8265 62.6667 20.3073 60.5333 20.3073ZM60.5333 26.3838C59.3778 26.3838 58.4 25.4009 58.4 24.0605C58.4 22.7201 59.3778 21.7371 60.5333 21.7371C61.6889 21.7371 62.6667 22.6307 62.6667 24.0605C62.6667 25.4009 61.6889 26.3838 60.5333 26.3838ZM52.2667 20.3073C50.1333 20.3073 48.4444 21.9158 48.4444 24.1498C48.4444 26.2944 50.1333 27.9923 52.2667 27.9923C54.4 27.9923 56.0889 26.3838 56.0889 24.1498C56.0889 21.8265 54.4 20.3073 52.2667 20.3073ZM52.2667 26.3838C51.1111 26.3838 50.1333 25.4009 50.1333 24.0605C50.1333 22.7201 51.1111 21.7371 52.2667 21.7371C53.4222 21.7371 54.4 22.6307 54.4 24.0605C54.4 25.4009 53.4222 26.3838 52.2667 26.3838ZM42.4 21.469V23.0775H46.2222C46.1333 23.9711 45.7778 24.686 45.3333 25.1328C44.8 25.6689 43.9111 26.2944 42.4 26.2944C40 26.2944 38.2222 24.4179 38.2222 22.0052C38.2222 19.5925 40.0889 17.7159 42.4 17.7159C43.6444 17.7159 44.6222 18.2521 45.3333 18.8776L46.4889 17.7159C45.5111 16.8223 44.2667 16.1074 42.4889 16.1074C39.2889 16.1074 36.5333 18.7882 36.5333 22.0052C36.5333 25.2221 39.2889 27.9029 42.4889 27.9029C44.2667 27.9029 45.5111 27.3668 46.5778 26.2051C47.6444 25.1328 48 23.6137 48 22.452C48 22.0945 48 21.7371 47.9111 21.469H42.4ZM82.7556 22.7201C82.4 21.8265 81.5111 20.3073 79.5556 20.3073C77.6 20.3073 76 21.8265 76 24.1498C76 26.2944 77.6 27.9923 79.7333 27.9923C81.4222 27.9923 82.4889 26.92 82.8444 26.2944L81.6 25.4009C81.1556 26.0264 80.6222 26.4732 79.7333 26.4732C78.8444 26.4732 78.3111 26.1157 77.8667 25.3115L82.9333 23.1669L82.7556 22.7201ZM77.6 23.9711C77.6 22.5413 78.7556 21.7371 79.5556 21.7371C80.1778 21.7371 80.8 22.0945 80.9778 22.5413L77.6 23.9711ZM73.4222 27.6348H75.1111V16.4649H73.4222V27.6348ZM70.7556 21.1116C70.3111 20.6648 69.6 20.218 68.7111 20.218C66.8444 20.218 65.0667 21.9158 65.0667 24.0605C65.0667 26.2051 66.7556 27.8136 68.7111 27.8136C69.6 27.8136 70.3111 27.3668 70.6667 26.92H70.7556V27.4561C70.7556 28.8859 69.9556 29.6901 68.7111 29.6901C67.7333 29.6901 67.0222 28.9752 66.8444 28.3497L65.4222 28.9752C65.8667 29.9582 66.9333 31.2092 68.8 31.2092C70.7556 31.2092 72.3556 30.0476 72.3556 27.2774V20.4861H70.7556V21.1116ZM68.8 26.3838C67.6444 26.3838 66.6667 25.4009 66.6667 24.0605C66.6667 22.7201 67.6444 21.7371 68.8 21.7371C69.9556 21.7371 70.8444 22.7201 70.8444 24.0605C70.8444 25.4009 69.9556 26.3838 68.8 26.3838ZM90.4889 16.4649H86.4889V27.6348H88.1778V23.4349H90.4889C92.3556 23.4349 94.1333 22.0945 94.1333 19.9499C94.1333 17.8053 92.3556 16.4649 90.4889 16.4649ZM90.5778 21.8265H88.1778V17.984H90.5778C91.8222 17.984 92.5333 19.0563 92.5333 19.8605C92.4444 20.8435 91.7333 21.8265 90.5778 21.8265ZM100.8 20.218C99.5556 20.218 98.3111 20.7541 97.8667 21.9158L99.3778 22.5413C99.7333 21.9158 100.267 21.7371 100.889 21.7371C101.778 21.7371 102.578 22.2733 102.667 23.1669V23.2562C102.4 23.0775 101.689 22.8094 100.978 22.8094C99.3778 22.8094 97.7778 23.703 97.7778 25.3115C97.7778 26.8306 99.1111 27.8136 100.533 27.8136C101.689 27.8136 102.222 27.2774 102.667 26.7412H102.756V27.6348H104.356V23.3456C104.178 21.3797 102.667 20.218 100.8 20.218ZM100.622 26.3838C100.089 26.3838 99.2889 26.1157 99.2889 25.4009C99.2889 24.5073 100.267 24.2392 101.067 24.2392C101.778 24.2392 102.133 24.4179 102.578 24.5966C102.4 25.6689 101.511 26.3838 100.622 26.3838ZM109.956 20.4861L108.089 25.3115H108L106.044 20.4861H104.267L107.2 27.2774L105.511 31.0305H107.2L111.733 20.4861H109.956ZM95.0222 27.6348H96.7111V16.4649H95.0222V27.6348Z" fill="white"/>
<path d="M9.24447 7.52734C8.9778 7.79542 8.88892 8.24222 8.88892 8.77838V28.5269C8.88892 29.0631 9.06669 29.5099 9.33336 29.778L9.42225 29.8673L20.4445 18.7867V18.608L9.24447 7.52734Z" fill="url(#paint0_linear_546_2719)"/>
<path d="M24 22.5409L20.3556 18.8771V18.6091L24 14.9453L24.0889 15.0347L28.4445 17.5368C29.6889 18.2516 29.6889 19.4133 28.4445 20.1282L24 22.5409Z" fill="url(#paint1_linear_546_2719)"/>
<path d="M24.0889 22.4504L20.3556 18.6973L9.24445 29.8673C9.68889 30.3141 10.3111 30.3141 11.1111 29.9566L24.0889 22.4504Z" fill="url(#paint2_linear_546_2719)"/>
<path d="M24.0889 14.945L11.1111 7.52812C10.3111 7.08132 9.68889 7.17068 9.24445 7.61748L20.3556 18.6981L24.0889 14.945Z" fill="url(#paint3_linear_546_2719)"/>
<path opacity="0.2" d="M24 22.3613L11.1111 29.6888C10.4 30.1356 9.77778 30.0463 9.33334 29.6888L9.24445 29.7782L9.33334 29.8676C9.77778 30.225 10.4 30.3144 11.1111 29.8676L24 22.3613Z" fill="#242629"/>
<path opacity="0.12" d="M9.24447 29.6885C8.9778 29.4205 8.88892 28.9737 8.88892 28.4375V28.5269C8.88892 29.063 9.06669 29.5098 9.33336 29.7779V29.6885H9.24447ZM28.4445 19.8589L24 22.361L24.0889 22.4504L28.4445 19.9483C29.0667 19.5909 29.3334 19.1441 29.3334 18.6973C29.3334 19.1441 28.9778 19.5015 28.4445 19.8589Z" fill="#242629"/>
<path opacity="0.25" d="M11.1111 7.61752L28.4445 17.5365C28.9778 17.8939 29.3334 18.2513 29.3334 18.6981C29.3334 18.2513 29.0667 17.8046 28.4445 17.4471L11.1111 7.52816C9.86669 6.81328 8.88892 7.34944 8.88892 8.7792V8.86856C8.88892 7.52816 9.86669 6.90264 11.1111 7.61752Z" fill="white"/>
</g>
<defs>
<linearGradient id="paint0_linear_546_2719" x1="19.3778" y1="8.6086" x2="4.38075" y2="23.5257" gradientUnits="userSpaceOnUse">
<stop stop-color="#00A0FF"/>
<stop offset="0.007" stop-color="#00A1FF"/>
<stop offset="0.26" stop-color="#00BEFF"/>
<stop offset="0.512" stop-color="#00D2FF"/>
<stop offset="0.76" stop-color="#00DFFF"/>
<stop offset="1" stop-color="#00E3FF"/>
</linearGradient>
<linearGradient id="paint1_linear_546_2719" x1="30.0747" y1="18.6993" x2="8.56626" y2="18.6993" gradientUnits="userSpaceOnUse">
<stop stop-color="#FFE000"/>
<stop offset="0.409" stop-color="#FFBD00"/>
<stop offset="0.775" stop-color="#FFA500"/>
<stop offset="1" stop-color="#FF9C00"/>
</linearGradient>
<linearGradient id="paint2_linear_546_2719" x1="22.0684" y1="20.749" x2="1.73221" y2="40.978" gradientUnits="userSpaceOnUse">
<stop stop-color="#FF3A44"/>
<stop offset="1" stop-color="#C31162"/>
</linearGradient>
<linearGradient id="paint3_linear_546_2719" x1="6.48622" y1="0.983405" x2="15.5677" y2="10.0171" gradientUnits="userSpaceOnUse">
<stop stop-color="#32A071"/>
<stop offset="0.069" stop-color="#2DA771"/>
<stop offset="0.476" stop-color="#15CF74"/>
<stop offset="0.801" stop-color="#06E775"/>
<stop offset="1" stop-color="#00F076"/>
</linearGradient>
<clipPath id="clip0_546_2719">
<rect width="120" height="36.75" fill="white" transform="translate(0 0.533203)"/>
</clipPath>
</defs>
</svg>
