<svg width="240" height="59" viewBox="0 0 240 59" fill="none" xmlns="http://www.w3.org/2000/svg">
<path fill-rule="evenodd" clip-rule="evenodd" d="M14.3345 47.8672H7.97797V54.2237H14.3345V47.8672Z" fill="white"/>
<path opacity="0.6" fill-rule="evenodd" clip-rule="evenodd" d="M22.312 47.8672H15.9556V54.2237H22.312V47.8672Z" fill="white"/>
<path fill-rule="evenodd" clip-rule="evenodd" d="M30.2901 47.8672H23.9335V54.2237H30.2901V47.8672Z" fill="white"/>
<path opacity="0.3" fill-rule="evenodd" clip-rule="evenodd" d="M38.2676 47.8672H31.9111V54.2237H38.2676V47.8672Z" fill="white"/>
<path opacity="0.6" fill-rule="evenodd" clip-rule="evenodd" d="M46.2456 47.8672H39.889V54.2237H46.2456V47.8672Z" fill="white"/>
<path opacity="0.3" fill-rule="evenodd" clip-rule="evenodd" d="M7.97797 46.2452H14.3345V39.8887H7.97797V46.2452Z" fill="white"/>
<path fill-rule="evenodd" clip-rule="evenodd" d="M15.9556 46.2452H22.312V39.8887H15.9556V46.2452Z" fill="white"/>
<path opacity="0.5" fill-rule="evenodd" clip-rule="evenodd" d="M39.889 46.2452H46.2456V39.8887H39.889V46.2452Z" fill="white"/>
<path opacity="0.6" fill-rule="evenodd" clip-rule="evenodd" d="M14.3345 31.9121H7.97797V38.2685H14.3345V31.9121Z" fill="white"/>
<path opacity="0.6" fill-rule="evenodd" clip-rule="evenodd" d="M22.312 31.9121H15.9556V38.2685H22.312V31.9121Z" fill="white"/>
<path fill-rule="evenodd" clip-rule="evenodd" d="M46.2456 31.9121H39.889V38.2685H46.2456V31.9121Z" fill="white"/>
<path opacity="0.3" fill-rule="evenodd" clip-rule="evenodd" d="M7.97797 30.2901H14.3345V23.9336H7.97797V30.2901Z" fill="white"/>
<path fill-rule="evenodd" clip-rule="evenodd" d="M15.9556 30.2901H22.312V23.9336H15.9556V30.2901Z" fill="white"/>
<path opacity="0.6" fill-rule="evenodd" clip-rule="evenodd" d="M23.9335 30.2901H30.2901V23.9336H23.9335V30.2901Z" fill="white"/>
<path opacity="0.3" fill-rule="evenodd" clip-rule="evenodd" d="M31.9111 30.2901H38.2676V23.9336H31.9111V30.2901Z" fill="white"/>
<path opacity="0.3" fill-rule="evenodd" clip-rule="evenodd" d="M39.889 30.2901H46.2456V23.9336H39.889V30.2901Z" fill="white"/>
<path opacity="0.3" fill-rule="evenodd" clip-rule="evenodd" d="M0 30.2901H6.35654V23.9336H0V30.2901Z" fill="white"/>
<path opacity="0.3" fill-rule="evenodd" clip-rule="evenodd" d="M14.3345 15.957H7.97797V22.3136H14.3345V15.957Z" fill="white"/>
<path fill-rule="evenodd" clip-rule="evenodd" d="M15.9556 14.3331H22.312V7.97656H15.9556V14.3331Z" fill="white"/>
<path fill-rule="evenodd" clip-rule="evenodd" d="M30.2901 0H23.9335V6.35654H30.2901V0Z" fill="white"/>
<path fill-rule="evenodd" clip-rule="evenodd" d="M31.9111 14.3331H38.2676V7.97656H31.9111V14.3331Z" fill="white"/>
<path opacity="0.5" fill-rule="evenodd" clip-rule="evenodd" d="M46.2456 15.957H39.889V22.3136H46.2456V15.957Z" fill="white"/>
<path fill-rule="evenodd" clip-rule="evenodd" d="M47.867 30.2901H54.2235V23.9336H47.867V30.2901Z" fill="white"/>
<path opacity="0.3" fill-rule="evenodd" clip-rule="evenodd" d="M38.2676 15.957H31.9111V22.3136H38.2676V15.957Z" fill="white"/>
<path opacity="0.5" fill-rule="evenodd" clip-rule="evenodd" d="M30.2901 15.957H23.9335V22.3136H30.2901V15.957Z" fill="white"/>
<path opacity="0.6" fill-rule="evenodd" clip-rule="evenodd" d="M22.312 15.957H15.9556V22.3136H22.312V15.957Z" fill="white"/>
<path opacity="0.6" fill-rule="evenodd" clip-rule="evenodd" d="M23.9335 14.3331H30.2901V7.97656H23.9335V14.3331Z" fill="white"/>
<path fill-rule="evenodd" clip-rule="evenodd" d="M67.0035 34.5398V13.6781H69.1678V22.2752H72.6546L86.843 13.6781H90.5104L74.9394 23.177L90.3903 34.5398H86.6626L72.745 24.3793H69.1678V34.5398H67.0035ZM114.168 15.8424H97.1537V29.6098C97.1537 31.3936 96.7331 32.676 95.8912 33.4576C95.1297 34.1791 93.9674 34.5398 92.4044 34.5398H91.5326V32.4357H92.6747C93.3161 32.4357 93.827 32.2553 94.208 31.8946C94.7288 31.4134 94.9894 30.6519 94.9894 29.6098V13.6781H116.332V34.5398H114.168V15.8424ZM120.54 34.5398H118.136L128.958 13.6781H132.264L143.086 34.5398H140.561L137.885 29.3093H123.216L120.54 34.5398ZM124.388 27.2052H136.773L130.581 15.1812L124.388 27.2052ZM161.422 34.6H152.284C149.459 34.6 147.469 34.0439 146.317 32.9316C145.165 31.8193 144.589 29.8905 144.589 27.145V21.0729C144.589 18.3274 145.175 16.3685 146.347 15.1959C147.52 14.0238 149.499 13.4375 152.284 13.4375H161.422C166.472 13.4375 168.998 15.4215 168.998 19.3894H166.833C166.833 18.1269 166.463 17.195 165.721 16.5939C164.859 15.8924 163.436 15.5419 161.452 15.5419H152.314C150.19 15.5419 148.732 15.9276 147.94 16.699C147.149 17.4705 146.753 18.9284 146.753 21.0729V27.145C146.753 29.209 147.149 30.617 147.94 31.3685C148.732 32.1198 150.19 32.4956 152.314 32.4956H161.452C163.396 32.4956 164.779 32.19 165.601 31.5788C166.422 30.9678 166.833 29.9907 166.833 28.6481H168.998C168.998 30.6519 168.412 32.1451 167.239 33.1271C166.067 34.1089 164.128 34.6 161.422 34.6ZM171.402 13.6781H193.887V15.7822H183.697V34.5398H181.533V15.7822H171.402V13.6781ZM196.353 34.5398V13.6781H214.779V15.7822H198.517V22.6962H214.419V24.8003H198.517V32.4357H214.839V34.5398H196.353ZM218.597 34.5097V13.6781H232.665C235.271 13.6781 237.144 14.1692 238.286 15.151C239.429 16.133 240 17.7863 240 20.1109C240 22.3755 239.454 23.9084 238.362 24.7102C237.27 25.5118 235.381 25.9126 232.695 25.9126H220.762V34.5097H218.597ZM220.762 23.8084H233.327C235.09 23.8084 236.262 23.588 236.843 23.1469C237.505 22.6458 237.836 21.6338 237.836 20.1109C237.836 18.5277 237.51 17.4105 236.859 16.7592C236.207 16.1079 235.1 15.7822 233.537 15.7822H220.762V23.8084Z" fill="white"/>
<path opacity="0.8" fill-rule="evenodd" clip-rule="evenodd" d="M74.4999 50.488H76.7602V51.1908C76.7602 52.1206 76.6 52.8526 76.2818 53.3926C75.964 53.9322 75.4457 54.3196 74.7267 54.5574C74.0053 54.7954 73.0274 54.913 71.7929 54.913C70.7725 54.913 69.9439 54.8167 69.3029 54.6244C68.6615 54.4347 68.1536 54.1061 67.7745 53.6383C67.3975 53.1733 67.1277 52.5373 66.9673 51.7304C66.8071 50.9263 66.727 49.8708 66.727 48.5643C66.727 47.1268 66.8713 45.9858 67.1599 45.136C67.4484 44.289 67.9505 43.6639 68.672 43.2577C69.3934 42.8515 70.4064 42.6484 71.7104 42.6484C73.0036 42.6484 74.0002 42.7981 74.6976 43.0972C75.3949 43.3991 75.8839 43.8428 76.1671 44.4333C76.4503 45.0238 76.6266 45.812 76.6935 46.8007H74.4516C74.4143 46.1673 74.3127 45.6997 74.1525 45.4004C73.9919 45.1038 73.7275 44.9008 73.3589 44.794C72.9901 44.6897 72.4397 44.6364 71.7104 44.6364C70.954 44.6364 70.3955 44.7352 70.0376 44.9303C69.682 45.1252 69.4335 45.5075 69.292 46.0793C69.1532 46.6485 69.0836 47.5514 69.0836 48.7886C69.0836 49.6652 69.1236 50.3704 69.2038 50.9076C69.2813 51.4447 69.4202 51.8588 69.6153 52.1553C69.8105 52.4493 70.0777 52.6549 70.4118 52.7699C70.7483 52.8847 71.1971 52.9409 71.7609 52.9409C72.4769 52.9409 73.0328 52.893 73.423 52.7941C73.8105 52.695 74.0882 52.5268 74.2539 52.2837C74.4169 52.0406 74.4999 51.6932 74.4999 51.2416V50.488ZM78.1392 46.3837V54.7847H80.5921L83.3308 49.5448C83.4645 49.2991 83.769 48.6711 84.2473 47.6636C84.1647 47.8854 84.0764 48.2728 83.9829 48.8287C83.8894 49.3817 83.844 49.8228 83.844 50.1515V54.7847H85.7544V46.3837H83.2989L80.56 51.6557C80.3811 51.9898 80.0763 52.6228 79.6463 53.5528C79.7343 53.3204 79.8226 52.973 79.9107 52.5081C79.9987 52.0457 80.0442 51.6344 80.0442 51.2737V46.3837H78.1392ZM93.1157 51.6103H95.0874C95.0874 52.2195 95.0235 52.7324 94.8926 53.152C94.7642 53.5715 94.5532 53.9135 94.2621 54.1728C93.9681 54.4346 93.5832 54.6244 93.1023 54.7471C92.6212 54.8675 92.0281 54.9289 91.3175 54.9289C90.3395 54.9289 89.5698 54.7926 89.0143 54.5227C88.4555 54.2529 88.0576 53.8067 87.8171 53.184C87.5739 52.5589 87.4537 51.6986 87.4537 50.6003C87.4537 49.4913 87.5739 48.6231 87.8171 48.0005C88.0576 47.375 88.4583 46.9262 89.0168 46.659C89.5752 46.3891 90.3421 46.2557 91.3175 46.2557C92.0468 46.2557 92.6854 46.3357 93.2279 46.4933C93.7704 46.651 94.2058 46.9342 94.5319 47.3432C94.8577 47.752 95.0207 48.3158 95.0207 49.0292V49.3311H93.0674V49.2215C93.0674 48.8233 93.0115 48.5242 92.9018 48.3237C92.7924 48.1206 92.6161 47.9842 92.373 47.915C92.1295 47.8428 91.777 47.8079 91.3175 47.8079C90.8391 47.8079 90.4731 47.8908 90.2138 48.0593C89.9547 48.2248 89.7729 48.5081 89.6661 48.9034C89.5594 49.2991 89.5057 49.8629 89.5057 50.6003C89.5057 51.327 89.5594 51.8854 89.6661 52.2808C89.7729 52.6736 89.9572 52.9543 90.2166 53.1227C90.4756 53.2909 90.8417 53.3763 91.3175 53.3763C91.8409 53.3763 92.2312 53.3204 92.4851 53.2108C92.7416 53.1012 92.9098 52.9276 92.9901 52.6845C93.0728 52.4439 93.1157 52.0861 93.1157 51.6103ZM98.7722 54.7847H100.774V47.9388H103.464V46.3837H96.0762V47.9388H98.7722V54.7847ZM110.251 52.1232H112.239V52.428C112.239 53.1065 112.084 53.6277 111.774 53.9964C111.461 54.3625 111.031 54.6082 110.478 54.7367C109.928 54.8647 109.22 54.9289 108.359 54.9289C107.384 54.9289 106.62 54.7954 106.069 54.5253C105.519 54.2583 105.124 53.8092 104.886 53.184C104.648 52.5615 104.528 51.7037 104.528 50.6164C104.528 49.5342 104.651 48.679 104.896 48.0485C105.142 47.4179 105.543 46.9609 106.104 46.6777C106.663 46.3971 107.421 46.2557 108.375 46.2557C109.332 46.2557 110.091 46.3999 110.66 46.6856C111.226 46.9742 111.635 47.4205 111.883 48.0272C112.129 48.6364 112.255 49.4354 112.255 50.4238V51.0143H106.548C106.548 51.6903 106.601 52.2008 106.708 52.5482C106.815 52.893 106.996 53.1332 107.253 53.2696C107.512 53.4031 107.886 53.4701 108.375 53.4701C108.835 53.4701 109.198 53.4381 109.463 53.3712C109.73 53.3042 109.928 53.1841 110.056 53.0156C110.187 52.8447 110.251 52.6015 110.251 52.2837V52.1232ZM110.286 49.6999C110.286 49.2003 110.224 48.8074 110.107 48.5242C109.986 48.2407 109.789 48.0376 109.514 47.915C109.241 47.7919 108.867 47.7306 108.391 47.7306C107.924 47.7306 107.558 47.7919 107.29 47.9121C107.026 48.0325 106.834 48.2356 106.719 48.5188C106.604 48.8046 106.548 49.1974 106.548 49.6999H110.286ZM120.113 54.7847L121.797 49.7345C121.928 49.3633 122.077 48.9329 122.248 48.4492C122.42 47.9655 122.532 47.6184 122.585 47.41C122.468 48.2195 122.409 48.9304 122.409 49.5448V54.7847H124.314V46.3837H121.268L119.389 52.0243C119.336 52.1553 119.25 52.6149 119.135 53.4059C119.02 52.6177 118.935 52.1582 118.876 52.0243L117.003 46.3837H113.973V54.7847H115.865V49.5448C115.865 48.9304 115.806 48.2195 115.688 47.41C115.737 47.6022 115.873 48.011 116.095 48.6418C116.316 49.2724 116.442 49.6356 116.474 49.7345L118.158 54.7847H120.113ZM131.753 54.7847L131.913 53.6303H131.865C131.691 54.0069 131.48 54.2875 131.232 54.4747C130.983 54.6616 130.694 54.7847 130.366 54.8434C130.034 54.8997 129.61 54.9289 129.091 54.9289C128.375 54.9289 127.795 54.8434 127.349 54.675C126.903 54.504 126.571 54.2262 126.355 53.8414C126.139 53.4539 126.029 52.941 126.029 52.2996C126.029 51.7679 126.088 51.327 126.203 50.9797C126.32 50.6323 126.505 50.3597 126.756 50.1594C127.007 49.9617 127.336 49.8174 127.744 49.7345C128.151 49.649 128.669 49.6064 129.302 49.6064C130.04 49.6064 130.572 49.6866 130.892 49.8467C131.215 50.0072 131.472 50.2849 131.659 50.6777H131.753V49.2537C131.753 48.7967 131.697 48.4467 131.584 48.2007C131.472 47.9551 131.288 47.7866 131.029 47.6932C130.769 47.5997 130.403 47.5543 129.925 47.5543C129.318 47.5543 128.904 47.6398 128.677 47.8133C128.453 47.9842 128.338 48.3158 128.338 48.8046H126.318C126.334 48.2916 126.433 47.8667 126.612 47.5247C126.788 47.1855 127.034 46.9237 127.344 46.7393C127.654 46.5548 128.012 46.4292 128.418 46.3599C128.821 46.2903 129.297 46.2557 129.845 46.2557C130.732 46.2557 131.445 46.3224 131.993 46.4534C132.541 46.5843 132.971 46.87 133.284 47.3058C133.599 47.744 133.757 48.3933 133.757 49.2537V54.7847H131.753ZM131.753 52.2675C131.753 51.7758 131.614 51.4419 131.338 51.2657C131.063 51.0865 130.545 50.9985 129.781 50.9985C129.335 50.9985 128.984 51.0384 128.736 51.1186C128.487 51.1987 128.311 51.327 128.207 51.5089C128.103 51.6903 128.049 51.9443 128.049 52.2675C128.049 52.7324 128.175 53.0611 128.426 53.2508C128.68 53.4406 129.118 53.5369 129.749 53.5369C130.47 53.5369 130.986 53.4485 131.293 53.2721C131.6 53.0961 131.753 52.762 131.753 52.2675ZM147.261 46.3837L145.019 55.2976C144.894 55.8188 144.76 56.2701 144.616 56.6524C144.471 57.0345 144.287 57.3656 144.063 57.6463C143.835 57.9269 143.539 58.1459 143.167 58.3009C142.796 58.456 142.344 58.5333 141.81 58.5333C141.436 58.5333 141.158 58.512 140.976 58.472V57.0237C141.131 57.0586 141.286 57.0744 141.441 57.0744C141.941 57.0664 142.299 56.8794 142.521 56.5135C142.743 56.1474 142.946 55.5702 143.125 54.782H142.069L139.309 46.3837H141.441L143.544 53.5155L145.174 46.3837H147.261ZM154.587 54.7847L156.271 49.7345C156.402 49.3633 156.551 48.9329 156.722 48.4492C156.893 47.9655 157.006 47.6184 157.059 47.41C156.942 48.2195 156.883 48.9304 156.883 49.5448V54.7847H158.788V46.3837H155.742L153.863 52.0243C153.81 52.1553 153.724 52.6149 153.61 53.4059C153.494 52.6177 153.409 52.1582 153.35 52.0243L151.477 46.3837H148.447V54.7847H150.339V49.5448C150.339 48.9304 150.28 48.2195 150.163 47.41C150.211 47.6022 150.347 48.011 150.569 48.6418C150.79 49.2724 150.916 49.6356 150.948 49.7345L152.632 54.7847H154.587ZM162.86 51.1294H166.4V54.7847H168.407V46.3837H166.4V49.5743H162.86V46.3837H160.856V54.7847H162.86V51.1294ZM170.219 50.5681C170.219 49.4621 170.336 48.6015 170.574 47.9842C170.809 47.3699 171.21 46.9262 171.776 46.659C172.345 46.3891 173.144 46.2557 174.178 46.2557C175.207 46.2557 176.009 46.3891 176.583 46.659C177.158 46.9262 177.564 47.3699 177.807 47.9871C178.048 48.6044 178.168 49.4647 178.168 50.5681C178.168 51.3859 178.101 52.0698 177.967 52.6203C177.836 53.1707 177.617 53.6144 177.316 53.9535C177.013 54.2904 176.607 54.536 176.102 54.6912C175.595 54.8434 174.953 54.9235 174.178 54.9289C173.414 54.9289 172.776 54.8514 172.265 54.6937C171.755 54.539 171.349 54.2904 171.052 53.9535C170.756 53.6144 170.542 53.1733 170.414 52.6282C170.283 52.0832 170.219 51.3967 170.219 50.5681ZM172.271 50.5681C172.271 51.3484 172.329 51.9388 172.447 52.337C172.565 52.7353 172.757 53.0052 173.022 53.1495C173.289 53.2938 173.673 53.3684 174.178 53.3763C174.686 53.3763 175.074 53.3042 175.346 53.1599C175.616 53.0131 175.814 52.7433 175.934 52.3425C176.054 51.9443 176.116 51.3512 176.116 50.5681C176.116 49.9776 176.084 49.5076 176.017 49.1548C175.95 48.802 175.843 48.5293 175.696 48.3316C175.552 48.1368 175.359 48.0031 175.119 47.9283C174.881 47.8534 174.569 47.8133 174.178 47.8079C173.676 47.8079 173.291 47.8775 173.024 48.0192C172.757 48.1607 172.565 48.4279 172.447 48.8233C172.329 49.219 172.271 49.8013 172.271 50.5681ZM185.398 47.9229V46.3837H179.838V54.7847H181.842V47.9229H185.398ZM186.331 50.5681C186.331 49.4621 186.448 48.6015 186.686 47.9842C186.921 47.3699 187.322 46.9262 187.888 46.659C188.458 46.3891 189.257 46.2557 190.29 46.2557C191.319 46.2557 192.121 46.3891 192.695 46.659C193.27 46.9262 193.676 47.3699 193.919 47.9871C194.16 48.6044 194.28 49.4647 194.28 50.5681C194.28 51.3859 194.213 52.0698 194.08 52.6203C193.949 53.1707 193.73 53.6144 193.428 53.9535C193.125 54.2904 192.72 54.536 192.214 54.6912C191.707 54.8434 191.065 54.9235 190.29 54.9289C189.526 54.9289 188.888 54.8514 188.377 54.6937C187.867 54.539 187.461 54.2904 187.164 53.9535C186.868 53.6144 186.654 53.1733 186.526 52.6282C186.395 52.0832 186.331 51.3967 186.331 50.5681ZM188.383 50.5681C188.383 51.3484 188.441 51.9388 188.559 52.337C188.677 52.7353 188.869 53.0052 189.134 53.1495C189.401 53.2938 189.785 53.3684 190.29 53.3763C190.798 53.3763 191.186 53.3042 191.458 53.1599C191.728 53.0131 191.926 52.7433 192.046 52.3425C192.166 51.9443 192.228 51.3512 192.228 50.5681C192.228 49.9776 192.196 49.5076 192.129 49.1548C192.062 48.802 191.955 48.5293 191.808 48.3316C191.664 48.1368 191.472 48.0031 191.231 47.9283C190.993 47.8534 190.681 47.8133 190.29 47.8079C189.788 47.8079 189.403 47.8775 189.136 48.0192C188.869 48.1607 188.677 48.4279 188.559 48.8233C188.441 49.219 188.383 49.8013 188.383 50.5681ZM200.377 53.2938C200.626 52.9622 200.821 52.6416 200.963 52.3318C201.104 52.0243 201.211 51.6503 201.283 51.2095C201.355 50.7712 201.39 50.2207 201.39 49.561V46.3704H207.945V53.2938H209.016V57.0637H207.172V54.7847H201.321V57.0637H199.477V53.2938H200.377ZM205.94 53.2938V47.8616H203.295V49.6865C203.295 51.3245 202.985 52.5268 202.368 53.2938H205.94ZM209.965 50.5681C209.965 49.4621 210.082 48.6015 210.32 47.9842C210.555 47.3699 210.956 46.9262 211.522 46.659C212.092 46.3891 212.891 46.2557 213.924 46.2557C214.953 46.2557 215.755 46.3891 216.329 46.659C216.904 46.9262 217.31 47.3699 217.553 47.9871C217.793 48.6044 217.914 49.4647 217.914 50.5681C217.914 51.3859 217.847 52.0698 217.713 52.6203C217.582 53.1707 217.363 53.6144 217.061 53.9535C216.759 54.2904 216.353 54.536 215.848 54.6912C215.341 54.8434 214.699 54.9235 213.924 54.9289C213.16 54.9289 212.521 54.8514 212.011 54.6937C211.501 54.539 211.095 54.2904 210.798 53.9535C210.502 53.6144 210.288 53.1733 210.159 52.6282C210.029 52.0832 209.965 51.3967 209.965 50.5681ZM212.016 50.5681C212.016 51.3484 212.075 51.9388 212.193 52.337C212.31 52.7353 212.503 53.0052 212.767 53.1495C213.035 53.2938 213.419 53.3684 213.924 53.3763C214.432 53.3763 214.82 53.3042 215.092 53.1599C215.362 53.0131 215.56 52.7433 215.68 52.3425C215.8 51.9443 215.862 51.3512 215.862 50.5681C215.862 49.9776 215.83 49.5076 215.763 49.1548C215.696 48.802 215.589 48.5293 215.442 48.3316C215.298 48.1368 215.105 48.0031 214.865 47.9283C214.627 47.8534 214.315 47.8133 213.924 47.8079C213.422 47.8079 213.037 47.8775 212.77 48.0192C212.503 48.1607 212.31 48.4279 212.193 48.8233C212.075 49.219 212.016 49.8013 212.016 50.5681ZM225.756 54.7847L227.44 49.7345C227.57 49.3633 227.72 48.9329 227.891 48.4492C228.062 47.9655 228.174 47.6184 228.228 47.41C228.11 48.2195 228.051 48.9304 228.051 49.5448V54.7847H229.956V46.3837H226.91L225.032 52.0243C224.978 52.1553 224.893 52.6149 224.778 53.4059C224.663 52.6177 224.578 52.1582 224.519 52.0243L222.646 46.3837H219.616V54.7847H221.507V49.5448C221.507 48.9304 221.449 48.2195 221.331 47.41C221.379 47.6022 221.516 48.011 221.737 48.6418C221.959 49.2724 222.085 49.6356 222.117 49.7345L223.8 54.7847H225.756ZM237.395 54.7847L237.556 53.6303H237.507C237.334 54.0069 237.123 54.2875 236.874 54.4747C236.626 54.6616 236.337 54.7847 236.009 54.8434C235.677 54.8997 235.252 54.9289 234.734 54.9289C234.018 54.9289 233.438 54.8434 232.992 54.675C232.546 54.504 232.214 54.2262 231.998 53.8414C231.781 53.4539 231.672 52.941 231.672 52.2996C231.672 51.7679 231.731 51.327 231.846 50.9797C231.963 50.6323 232.147 50.3597 232.399 50.1594C232.65 49.9617 232.978 49.8174 233.387 49.7345C233.793 49.649 234.312 49.6064 234.945 49.6064C235.683 49.6064 236.214 49.6866 236.535 49.8467C236.858 50.0072 237.115 50.2849 237.302 50.6777H237.395V49.2537C237.395 48.7967 237.339 48.4467 237.227 48.2007C237.115 47.9551 236.93 47.7866 236.671 47.6932C236.412 47.5997 236.046 47.5543 235.568 47.5543C234.961 47.5543 234.547 47.6398 234.32 47.8133C234.095 47.9842 233.981 48.3158 233.981 48.8046H231.961C231.976 48.2916 232.075 47.8667 232.254 47.5247C232.431 47.1855 232.677 46.9237 232.986 46.7393C233.296 46.5548 233.654 46.4292 234.061 46.3599C234.464 46.2903 234.94 46.2557 235.487 46.2557C236.375 46.2557 237.088 46.3224 237.636 46.4534C238.183 46.5843 238.614 46.87 238.926 47.3058C239.242 47.744 239.399 48.3933 239.399 49.2537V54.7847H237.395ZM237.395 52.2675C237.395 51.7758 237.256 51.4419 236.981 51.2657C236.706 51.0865 236.188 50.9985 235.424 50.9985C234.977 50.9985 234.627 51.0384 234.378 51.1186C234.13 51.1987 233.954 51.327 233.85 51.5089C233.745 51.6903 233.692 51.9443 233.692 52.2675C233.692 52.7324 233.818 53.0611 234.069 53.2508C234.323 53.4406 234.761 53.5369 235.391 53.5369C236.113 53.5369 236.628 53.4485 236.936 53.2721C237.243 53.0961 237.395 52.762 237.395 52.2675Z" fill="white"/>
</svg>
