<svg width="32" height="32" viewBox="0 0 32 32" fill="none" xmlns="http://www.w3.org/2000/svg">
<path fill-rule="evenodd" clip-rule="evenodd" d="M8.54657 27.9225H4.83859V31.6305H8.54657V27.9225Z" fill="white"/>
<path opacity="0.6" fill-rule="evenodd" clip-rule="evenodd" d="M13.2001 27.9225H9.49219V31.6305H13.2001V27.9225Z" fill="white"/>
<path fill-rule="evenodd" clip-rule="evenodd" d="M17.854 27.9225H14.146V31.6305H17.854V27.9225Z" fill="white"/>
<path opacity="0.3" fill-rule="evenodd" clip-rule="evenodd" d="M22.5076 27.9225H18.7996V31.6305H22.5076V27.9225Z" fill="white"/>
<path opacity="0.6" fill-rule="evenodd" clip-rule="evenodd" d="M27.1614 27.9225H23.4534V31.6305H27.1614V27.9225Z" fill="white"/>
<path opacity="0.3" fill-rule="evenodd" clip-rule="evenodd" d="M4.83859 26.9768H8.54657V23.2688H4.83859V26.9768Z" fill="white"/>
<path fill-rule="evenodd" clip-rule="evenodd" d="M9.49219 26.9768H13.2001V23.2688H9.49219V26.9768Z" fill="white"/>
<path opacity="0.5" fill-rule="evenodd" clip-rule="evenodd" d="M23.4534 26.9768H27.1614V23.2688H23.4534V26.9768Z" fill="white"/>
<path opacity="0.6" fill-rule="evenodd" clip-rule="evenodd" d="M8.54657 18.615H4.83859V22.3229H8.54657V18.615Z" fill="white"/>
<path opacity="0.6" fill-rule="evenodd" clip-rule="evenodd" d="M13.2001 18.615H9.49219V22.3229H13.2001V18.615Z" fill="white"/>
<path fill-rule="evenodd" clip-rule="evenodd" d="M27.1614 18.615H23.4534V22.3229H27.1614V18.615Z" fill="white"/>
<path opacity="0.3" fill-rule="evenodd" clip-rule="evenodd" d="M4.83859 17.6692H8.54657V13.9612H4.83859V17.6692Z" fill="white"/>
<path fill-rule="evenodd" clip-rule="evenodd" d="M9.49219 17.6692H13.2001V13.9612H9.49219V17.6692Z" fill="white"/>
<path opacity="0.6" fill-rule="evenodd" clip-rule="evenodd" d="M14.146 17.6692H17.854V13.9612H14.146V17.6692Z" fill="white"/>
<path opacity="0.3" fill-rule="evenodd" clip-rule="evenodd" d="M18.7996 17.6692H22.5076V13.9612H18.7996V17.6692Z" fill="white"/>
<path opacity="0.3" fill-rule="evenodd" clip-rule="evenodd" d="M23.4534 17.6692H27.1614V13.9612H23.4534V17.6692Z" fill="white"/>
<path opacity="0.3" fill-rule="evenodd" clip-rule="evenodd" d="M0.184784 17.6692H3.89277V13.9612H0.184784V17.6692Z" fill="white"/>
<path opacity="0.3" fill-rule="evenodd" clip-rule="evenodd" d="M8.54657 9.3075H4.83859V13.0155H8.54657V9.3075Z" fill="white"/>
<path fill-rule="evenodd" clip-rule="evenodd" d="M9.49219 8.36167H13.2001V4.65369H9.49219V8.36167Z" fill="white"/>
<path fill-rule="evenodd" clip-rule="evenodd" d="M17.854 0H14.146V3.70798H17.854V0Z" fill="white"/>
<path fill-rule="evenodd" clip-rule="evenodd" d="M18.7996 8.36167H22.5076V4.65369H18.7996V8.36167Z" fill="white"/>
<path opacity="0.5" fill-rule="evenodd" clip-rule="evenodd" d="M27.1614 9.3075H23.4534V13.0155H27.1614V9.3075Z" fill="white"/>
<path fill-rule="evenodd" clip-rule="evenodd" d="M28.1072 17.6692H31.8152V13.9612H28.1072V17.6692Z" fill="white"/>
<path opacity="0.3" fill-rule="evenodd" clip-rule="evenodd" d="M22.5076 9.3075H18.7996V13.0155H22.5076V9.3075Z" fill="white"/>
<path opacity="0.5" fill-rule="evenodd" clip-rule="evenodd" d="M17.854 9.3075H14.146V13.0155H17.854V9.3075Z" fill="white"/>
<path opacity="0.6" fill-rule="evenodd" clip-rule="evenodd" d="M13.2001 9.3075H9.49219V13.0155H13.2001V9.3075Z" fill="white"/>
<path opacity="0.6" fill-rule="evenodd" clip-rule="evenodd" d="M14.146 8.36167H17.854V4.65369H14.146V8.36167Z" fill="white"/>
</svg>
