<svg width="240" height="60" viewBox="0 0 240 60" fill="none" xmlns="http://www.w3.org/2000/svg">
<path fill-rule="evenodd" clip-rule="evenodd" d="M14.3345 48.7256H7.97797V55.0821H14.3345V48.7256Z" fill="#242629"/>
<path opacity="0.6" fill-rule="evenodd" clip-rule="evenodd" d="M22.312 48.7256H15.9556V55.0821H22.312V48.7256Z" fill="#242629"/>
<path fill-rule="evenodd" clip-rule="evenodd" d="M30.2901 48.7256H23.9335V55.0821H30.2901V48.7256Z" fill="#242629"/>
<path opacity="0.3" fill-rule="evenodd" clip-rule="evenodd" d="M38.2676 48.7256H31.9111V55.0821H38.2676V48.7256Z" fill="#242629"/>
<path opacity="0.6" fill-rule="evenodd" clip-rule="evenodd" d="M46.2456 48.7256H39.889V55.0821H46.2456V48.7256Z" fill="#242629"/>
<path opacity="0.3" fill-rule="evenodd" clip-rule="evenodd" d="M7.97797 47.104H14.3345V40.7474H7.97797V47.104Z" fill="#242629"/>
<path fill-rule="evenodd" clip-rule="evenodd" d="M15.9556 47.104H22.312V40.7474H15.9556V47.104Z" fill="#242629"/>
<path opacity="0.5" fill-rule="evenodd" clip-rule="evenodd" d="M39.889 47.104H46.2456V40.7474H39.889V47.104Z" fill="#242629"/>
<path opacity="0.6" fill-rule="evenodd" clip-rule="evenodd" d="M14.3345 32.7693H7.97797V39.1257H14.3345V32.7693Z" fill="#242629"/>
<path opacity="0.6" fill-rule="evenodd" clip-rule="evenodd" d="M22.312 32.7693H15.9556V39.1257H22.312V32.7693Z" fill="#242629"/>
<path fill-rule="evenodd" clip-rule="evenodd" d="M46.2456 32.7693H39.889V39.1257H46.2456V32.7693Z" fill="#242629"/>
<path opacity="0.3" fill-rule="evenodd" clip-rule="evenodd" d="M7.97797 31.1478H14.3345V24.7913H7.97797V31.1478Z" fill="#242629"/>
<path fill-rule="evenodd" clip-rule="evenodd" d="M15.9556 31.1478H22.312V24.7913H15.9556V31.1478Z" fill="#242629"/>
<path opacity="0.6" fill-rule="evenodd" clip-rule="evenodd" d="M23.9335 31.1478H30.2901V24.7913H23.9335V31.1478Z" fill="#242629"/>
<path opacity="0.3" fill-rule="evenodd" clip-rule="evenodd" d="M31.9111 31.1478H38.2676V24.7913H31.9111V31.1478Z" fill="#242629"/>
<path opacity="0.3" fill-rule="evenodd" clip-rule="evenodd" d="M39.889 31.1478H46.2456V24.7913H39.889V31.1478Z" fill="#242629"/>
<path opacity="0.3" fill-rule="evenodd" clip-rule="evenodd" d="M0 31.1478H6.35654V24.7913H0V31.1478Z" fill="#242629"/>
<path opacity="0.3" fill-rule="evenodd" clip-rule="evenodd" d="M14.3345 16.8142H7.97797V23.1708H14.3345V16.8142Z" fill="#242629"/>
<path fill-rule="evenodd" clip-rule="evenodd" d="M15.9556 15.1915H22.312V8.83496H15.9556V15.1915Z" fill="#242629"/>
<path fill-rule="evenodd" clip-rule="evenodd" d="M30.2901 0.858032H23.9335V7.21457H30.2901V0.858032Z" fill="#242629"/>
<path fill-rule="evenodd" clip-rule="evenodd" d="M31.9111 15.1915H38.2676V8.83496H31.9111V15.1915Z" fill="#242629"/>
<path opacity="0.5" fill-rule="evenodd" clip-rule="evenodd" d="M46.2456 16.8142H39.889V23.1708H46.2456V16.8142Z" fill="#242629"/>
<path fill-rule="evenodd" clip-rule="evenodd" d="M47.867 31.1478H54.2235V24.7913H47.867V31.1478Z" fill="#242629"/>
<path opacity="0.3" fill-rule="evenodd" clip-rule="evenodd" d="M38.2676 16.8142H31.9111V23.1708H38.2676V16.8142Z" fill="#242629"/>
<path opacity="0.5" fill-rule="evenodd" clip-rule="evenodd" d="M30.2901 16.8142H23.9335V23.1708H30.2901V16.8142Z" fill="#242629"/>
<path opacity="0.6" fill-rule="evenodd" clip-rule="evenodd" d="M22.312 16.8142H15.9556V23.1708H22.312V16.8142Z" fill="#242629"/>
<path opacity="0.6" fill-rule="evenodd" clip-rule="evenodd" d="M23.9335 15.1915H30.2901V8.83496H23.9335V15.1915Z" fill="#242629"/>
<path fill-rule="evenodd" clip-rule="evenodd" d="M67.0035 35.3971V14.5354H69.1678V23.1325H72.6546L86.843 14.5354H90.5104L74.9394 24.0343L90.3903 35.3971H86.6626L72.745 25.2366H69.1678V35.3971H67.0035ZM114.168 16.6997H97.1537V30.4671C97.1537 32.2509 96.7331 33.5333 95.8912 34.3149C95.1297 35.0364 93.9674 35.3971 92.4044 35.3971H91.5326V33.293H92.6747C93.3161 33.293 93.827 33.1126 94.208 32.7519C94.7288 32.2707 94.9894 31.5092 94.9894 30.4671V14.5354H116.332V35.3971H114.168V16.6997ZM120.54 35.3971H118.136L128.958 14.5354H132.264L143.086 35.3971H140.561L137.885 30.1666H123.216L120.54 35.3971ZM124.388 28.0625H136.773L130.581 16.0385L124.388 28.0625ZM161.422 35.4573H152.284C149.459 35.4573 147.469 34.9012 146.317 33.7889C145.165 32.6766 144.589 30.7478 144.589 28.0023V21.9302C144.589 19.1847 145.175 17.2258 146.347 16.0532C147.52 14.8811 149.499 14.2948 152.284 14.2948H161.422C166.472 14.2948 168.998 16.2788 168.998 20.2467H166.833C166.833 18.9842 166.463 18.0523 165.721 17.4512C164.859 16.7497 163.436 16.3992 161.452 16.3992H152.314C150.19 16.3992 148.732 16.7849 147.94 17.5563C147.149 18.3278 146.753 19.7857 146.753 21.9302V28.0023C146.753 30.0663 147.149 31.4743 147.94 32.2258C148.732 32.9771 150.19 33.3529 152.314 33.3529H161.452C163.396 33.3529 164.779 33.0473 165.601 32.4361C166.422 31.8251 166.833 30.848 166.833 29.5054H168.998C168.998 31.5092 168.412 33.0024 167.239 33.9844C166.067 34.9662 164.128 35.4573 161.422 35.4573ZM171.402 14.5354H193.887V16.6395H183.697V35.3971H181.533V16.6395H171.402V14.5354ZM196.353 35.3971V14.5354H214.779V16.6395H198.517V23.5535H214.419V25.6576H198.517V33.293H214.839V35.3971H196.353ZM218.597 35.367V14.5354H232.665C235.271 14.5354 237.144 15.0265 238.286 16.0083C239.429 16.9903 240 18.6436 240 20.9682C240 23.2328 239.454 24.7657 238.362 25.5675C237.27 26.3691 235.381 26.7699 232.695 26.7699H220.762V35.367H218.597ZM220.762 24.6657H233.327C235.09 24.6657 236.262 24.4453 236.843 24.0042C237.505 23.5031 237.836 22.4911 237.836 20.9682C237.836 19.385 237.51 18.2678 236.859 17.6165C236.207 16.9652 235.1 16.6395 233.537 16.6395H220.762V24.6657Z" fill="#242629"/>
<path opacity="0.8" fill-rule="evenodd" clip-rule="evenodd" d="M74.4999 51.3468H76.7602V52.0495C76.7602 52.9794 76.6 53.7113 76.2818 54.2513C75.964 54.791 75.4457 55.1784 74.7267 55.4162C74.0053 55.6541 73.0274 55.7718 71.7929 55.7718C70.7725 55.7718 69.9439 55.6755 69.3029 55.4832C68.6615 55.2934 68.1536 54.9649 67.7745 54.497C67.3975 54.0321 67.1277 53.3961 66.9673 52.5892C66.8071 51.7851 66.727 50.7296 66.727 49.4231C66.727 47.9856 66.8713 46.8446 67.1599 45.9948C67.4484 45.1478 67.9505 44.5226 68.672 44.1164C69.3934 43.7103 70.4064 43.5072 71.7104 43.5072C73.0036 43.5072 74.0002 43.6569 74.6976 43.956C75.3949 44.2579 75.8839 44.7016 76.1671 45.2921C76.4503 45.8826 76.6266 46.6707 76.6935 47.6595H74.4516C74.4143 47.026 74.3127 46.5585 74.1525 46.2592C73.9919 45.9626 73.7275 45.7596 73.3589 45.6528C72.9901 45.5485 72.4397 45.4952 71.7104 45.4952C70.954 45.4952 70.3955 45.594 70.0376 45.7891C69.682 45.9839 69.4335 46.3662 69.292 46.9381C69.1532 47.5072 69.0836 48.4101 69.0836 49.6474C69.0836 50.524 69.1236 51.2292 69.2038 51.7663C69.2813 52.3034 69.4202 52.7176 69.6153 53.014C69.8105 53.308 70.0777 53.5137 70.4118 53.6287C70.7483 53.7435 71.1971 53.7997 71.7609 53.7997C72.4769 53.7997 73.0328 53.7517 73.423 53.6528C73.8105 53.5537 74.0882 53.3856 74.2539 53.1425C74.4169 52.8993 74.4999 52.5519 74.4999 52.1003V51.3468ZM78.1392 47.2425V55.6434H80.5921L83.3308 50.4035C83.4645 50.1578 83.769 49.5299 84.2473 48.5223C84.1647 48.7442 84.0764 49.1316 83.9829 49.6875C83.8894 50.2405 83.844 50.6816 83.844 51.0102V55.6434H85.7544V47.2425H83.2989L80.56 52.5145C80.3811 52.8485 80.0763 53.4816 79.6463 54.4116C79.7343 54.1792 79.8226 53.8318 79.9107 53.3669C79.9987 52.9044 80.0442 52.4932 80.0442 52.1325V47.2425H78.1392ZM93.1157 52.4691H95.0874C95.0874 53.0783 95.0235 53.5912 94.8926 54.0107C94.7642 54.4303 94.5532 54.7723 94.2621 55.0316C93.9681 55.2934 93.5832 55.4832 93.1023 55.6059C92.6212 55.7263 92.0281 55.7877 91.3175 55.7877C90.3395 55.7877 89.5698 55.6513 89.0143 55.3815C88.4555 55.1117 88.0576 54.6655 87.8171 54.0428C87.5739 53.4177 87.4537 52.5573 87.4537 51.459C87.4537 50.3501 87.5739 49.4819 87.8171 48.8592C88.0576 48.2338 88.4583 47.785 89.0168 47.5177C89.5752 47.2479 90.3421 47.1144 91.3175 47.1144C92.0468 47.1144 92.6854 47.1945 93.2279 47.3521C93.7704 47.5098 94.2058 47.793 94.5319 48.202C94.8577 48.6107 95.0207 49.1745 95.0207 49.888V50.1899H93.0674V50.0803C93.0674 49.6821 93.0115 49.383 92.9018 49.1825C92.7924 48.9794 92.6161 48.843 92.373 48.7737C92.1295 48.7016 91.777 48.6667 91.3175 48.6667C90.8391 48.6667 90.4731 48.7496 90.2138 48.918C89.9547 49.0836 89.7729 49.3668 89.6661 49.7621C89.5594 50.1578 89.5057 50.7216 89.5057 51.459C89.5057 52.1858 89.5594 52.7442 89.6661 53.1396C89.7729 53.5324 89.9572 53.8131 90.2166 53.9815C90.4756 54.1496 90.8417 54.2351 91.3175 54.2351C91.8409 54.2351 92.2312 54.1792 92.4851 54.0696C92.7416 53.96 92.9098 53.7864 92.9901 53.5432C93.0728 53.3026 93.1157 52.9448 93.1157 52.4691ZM98.7722 55.6434H100.774V48.7976H103.464V47.2425H96.0762V48.7976H98.7722V55.6434ZM110.251 52.982H112.239V53.2868C112.239 53.9653 112.084 54.4865 111.774 54.8551C111.461 55.2213 111.031 55.467 110.478 55.5954C109.928 55.7235 109.22 55.7877 108.359 55.7877C107.384 55.7877 106.62 55.6541 106.069 55.3841C105.519 55.1171 105.124 54.668 104.886 54.0428C104.648 53.4203 104.528 52.5624 104.528 51.4752C104.528 50.393 104.651 49.5378 104.896 48.9072C105.142 48.2767 105.543 47.8197 106.104 47.5365C106.663 47.2558 107.421 47.1144 108.375 47.1144C109.332 47.1144 110.091 47.2587 110.66 47.5444C111.226 47.833 111.635 48.2792 111.883 48.886C112.129 49.4952 112.255 50.2942 112.255 51.2826V51.8731H106.548C106.548 52.5491 106.601 53.0595 106.708 53.4069C106.815 53.7517 106.996 53.992 107.253 54.1284C107.512 54.2618 107.886 54.3289 108.375 54.3289C108.835 54.3289 109.198 54.2968 109.463 54.23C109.73 54.163 109.928 54.0428 110.056 53.8744C110.187 53.7034 110.251 53.4602 110.251 53.1425V52.982ZM110.286 50.5586C110.286 50.059 110.224 49.6661 110.107 49.383C109.986 49.0995 109.789 48.8964 109.514 48.7737C109.241 48.6507 108.867 48.5894 108.391 48.5894C107.924 48.5894 107.558 48.6507 107.29 48.7708C107.026 48.8913 106.834 49.0944 106.719 49.3775C106.604 49.6633 106.548 50.0561 106.548 50.5586H110.286ZM120.113 55.6434L121.797 50.5933C121.928 50.2221 122.077 49.7917 122.248 49.308C122.42 48.8242 122.532 48.4771 122.585 48.2687C122.468 49.0783 122.409 49.7892 122.409 50.4035V55.6434H124.314V47.2425H121.268L119.389 52.8831C119.336 53.014 119.25 53.4737 119.135 54.2647C119.02 53.4765 118.935 53.0169 118.876 52.8831L117.003 47.2425H113.973V55.6434H115.865V50.4035C115.865 49.7892 115.806 49.0783 115.688 48.2687C115.737 48.461 115.873 48.8697 116.095 49.5006C116.316 50.1312 116.442 50.4944 116.474 50.5933L118.158 55.6434H120.113ZM131.753 55.6434L131.913 54.4891H131.865C131.691 54.8657 131.48 55.1463 131.232 55.3335C130.983 55.5204 130.694 55.6434 130.366 55.7021C130.034 55.7585 129.61 55.7877 129.091 55.7877C128.375 55.7877 127.795 55.7022 127.349 55.5337C126.903 55.3628 126.571 55.085 126.355 54.7001C126.139 54.3127 126.029 53.7997 126.029 53.1583C126.029 52.6267 126.088 52.1858 126.203 51.8385C126.32 51.4911 126.505 51.2185 126.756 51.0182C127.007 50.8205 127.336 50.6762 127.744 50.5933C128.151 50.5077 128.669 50.4651 129.302 50.4651C130.04 50.4651 130.572 50.5453 130.892 50.7054C131.215 50.866 131.472 51.1437 131.659 51.5365H131.753V50.1125C131.753 49.6554 131.697 49.3054 131.584 49.0594C131.472 48.8138 131.288 48.6454 131.029 48.5519C130.769 48.4584 130.403 48.413 129.925 48.413C129.318 48.413 128.904 48.4985 128.677 48.6721C128.453 48.843 128.338 49.1746 128.338 49.6633H126.318C126.334 49.1504 126.433 48.7254 126.612 48.3835C126.788 48.0443 127.034 47.7825 127.344 47.5981C127.654 47.4135 128.012 47.288 128.418 47.2187C128.821 47.1491 129.297 47.1144 129.845 47.1144C130.732 47.1144 131.445 47.1812 131.993 47.3121C132.541 47.4431 132.971 47.7288 133.284 48.1645C133.599 48.6027 133.757 49.252 133.757 50.1125V55.6434H131.753ZM131.753 53.1263C131.753 52.6346 131.614 52.3006 131.338 52.1245C131.063 51.9452 130.545 51.8572 129.781 51.8572C129.335 51.8572 128.984 51.8972 128.736 51.9774C128.487 52.0574 128.311 52.1858 128.207 52.3676C128.103 52.5491 128.049 52.803 128.049 53.1263C128.049 53.5912 128.175 53.9199 128.426 54.1095C128.68 54.2993 129.118 54.3956 129.749 54.3956C130.47 54.3956 130.986 54.3072 131.293 54.1309C131.6 53.9548 131.753 53.6208 131.753 53.1263ZM147.261 47.2425L145.019 56.1564C144.894 56.6776 144.76 57.1289 144.616 57.5112C144.471 57.8932 144.287 58.2244 144.063 58.5051C143.835 58.7856 143.539 59.0047 143.167 59.1597C142.796 59.3148 142.344 59.392 141.81 59.392C141.436 59.392 141.158 59.3708 140.976 59.3307V57.8824C141.131 57.9174 141.286 57.9332 141.441 57.9332C141.941 57.9252 142.299 57.7381 142.521 57.3723C142.743 57.0062 142.946 56.429 143.125 55.6408H142.069L139.309 47.2425H141.441L143.544 54.3743L145.174 47.2425H147.261ZM154.587 55.6434L156.271 50.5933C156.402 50.2221 156.551 49.7917 156.722 49.308C156.893 48.8242 157.006 48.4771 157.059 48.2687C156.942 49.0783 156.883 49.7892 156.883 50.4035V55.6434H158.788V47.2425H155.742L153.863 52.8831C153.81 53.014 153.724 53.4737 153.61 54.2647C153.494 53.4765 153.409 53.0169 153.35 52.8831L151.477 47.2425H148.447V55.6434H150.339V50.4035C150.339 49.7892 150.28 49.0783 150.163 48.2687C150.211 48.461 150.347 48.8697 150.569 49.5006C150.79 50.1312 150.916 50.4944 150.948 50.5933L152.632 55.6434H154.587ZM162.86 51.9882H166.4V55.6434H168.407V47.2425H166.4V50.4331H162.86V47.2425H160.856V55.6434H162.86V51.9882ZM170.219 51.4269C170.219 50.3209 170.336 49.4602 170.574 48.843C170.809 48.2287 171.21 47.785 171.776 47.5177C172.345 47.2479 173.144 47.1144 174.178 47.1144C175.207 47.1144 176.009 47.2479 176.583 47.5177C177.158 47.785 177.564 48.2287 177.807 48.8459C178.048 49.4631 178.168 50.3235 178.168 51.4269C178.168 52.2446 178.101 52.9286 177.967 53.4791C177.836 54.0295 177.617 54.4732 177.316 54.8123C177.013 55.1491 176.607 55.3948 176.102 55.5499C175.595 55.7021 174.953 55.7823 174.178 55.7877C173.414 55.7877 172.776 55.7101 172.265 55.5524C171.755 55.3977 171.349 55.1491 171.052 54.8123C170.756 54.4732 170.542 54.0321 170.414 53.487C170.283 52.9419 170.219 52.2554 170.219 51.4269ZM172.271 51.4269C172.271 52.2071 172.329 52.7976 172.447 53.1958C172.565 53.5941 172.757 53.864 173.022 54.0083C173.289 54.1525 173.673 54.2272 174.178 54.2351C174.686 54.2351 175.074 54.1629 175.346 54.0187C175.616 53.8719 175.814 53.602 175.934 53.2012C176.054 52.803 176.116 52.21 176.116 51.4269C176.116 50.8364 176.084 50.3663 176.017 50.0135C175.95 49.6607 175.843 49.3881 175.696 49.1904C175.552 48.9956 175.359 48.8618 175.119 48.7871C174.881 48.7121 174.569 48.6721 174.178 48.6667C173.676 48.6667 173.291 48.7363 173.024 48.878C172.757 49.0194 172.565 49.2867 172.447 49.6821C172.329 50.0778 172.271 50.66 172.271 51.4269ZM185.398 48.7817V47.2425H179.838V55.6434H181.842V48.7817H185.398ZM186.331 51.4269C186.331 50.3209 186.448 49.4602 186.686 48.843C186.921 48.2287 187.322 47.785 187.888 47.5177C188.458 47.2479 189.257 47.1144 190.29 47.1144C191.319 47.1144 192.121 47.2479 192.695 47.5177C193.27 47.785 193.676 48.2287 193.919 48.8459C194.16 49.4631 194.28 50.3235 194.28 51.4269C194.28 52.2446 194.213 52.9286 194.08 53.4791C193.949 54.0295 193.73 54.4732 193.428 54.8123C193.125 55.1491 192.72 55.3948 192.214 55.5499C191.707 55.7021 191.065 55.7823 190.29 55.7877C189.526 55.7877 188.888 55.7101 188.377 55.5524C187.867 55.3977 187.461 55.1491 187.164 54.8123C186.868 54.4732 186.654 54.0321 186.526 53.487C186.395 52.9419 186.331 52.2554 186.331 51.4269ZM188.383 51.4269C188.383 52.2071 188.441 52.7976 188.559 53.1958C188.677 53.5941 188.869 53.864 189.134 54.0083C189.401 54.1525 189.785 54.2272 190.29 54.2351C190.798 54.2351 191.186 54.1629 191.458 54.0187C191.728 53.8719 191.926 53.602 192.046 53.2012C192.166 52.803 192.228 52.21 192.228 51.4269C192.228 50.8364 192.196 50.3663 192.129 50.0135C192.062 49.6607 191.955 49.3881 191.808 49.1904C191.664 48.9956 191.472 48.8618 191.231 48.7871C190.993 48.7121 190.681 48.6721 190.29 48.6667C189.788 48.6667 189.403 48.7363 189.136 48.878C188.869 49.0194 188.677 49.2867 188.559 49.6821C188.441 50.0778 188.383 50.66 188.383 51.4269ZM200.377 54.1525C200.626 53.821 200.821 53.5003 200.963 53.1905C201.104 52.8831 201.211 52.509 201.283 52.0682C201.355 51.63 201.39 51.0795 201.39 50.4197V47.2292H207.945V54.1525H209.016V57.9225H207.172V55.6434H201.321V57.9225H199.477V54.1525H200.377ZM205.94 54.1525V48.7203H203.295V50.5453C203.295 52.1833 202.985 53.3856 202.368 54.1525H205.94ZM209.965 51.4269C209.965 50.3209 210.082 49.4602 210.32 48.843C210.555 48.2287 210.956 47.785 211.522 47.5177C212.092 47.2479 212.891 47.1144 213.924 47.1144C214.953 47.1144 215.755 47.2479 216.329 47.5177C216.904 47.785 217.31 48.2287 217.553 48.8459C217.793 49.4631 217.914 50.3235 217.914 51.4269C217.914 52.2446 217.847 52.9286 217.713 53.4791C217.582 54.0295 217.363 54.4732 217.061 54.8123C216.759 55.1491 216.353 55.3948 215.848 55.5499C215.341 55.7021 214.699 55.7823 213.924 55.7877C213.16 55.7877 212.521 55.7101 212.011 55.5524C211.501 55.3977 211.095 55.1491 210.798 54.8123C210.502 54.4732 210.288 54.0321 210.159 53.487C210.029 52.9419 209.965 52.2554 209.965 51.4269ZM212.016 51.4269C212.016 52.2071 212.075 52.7976 212.193 53.1958C212.31 53.5941 212.503 53.864 212.767 54.0083C213.035 54.1525 213.419 54.2272 213.924 54.2351C214.432 54.2351 214.82 54.1629 215.092 54.0187C215.362 53.8719 215.56 53.602 215.68 53.2012C215.8 52.803 215.862 52.21 215.862 51.4269C215.862 50.8364 215.83 50.3663 215.763 50.0135C215.696 49.6607 215.589 49.3881 215.442 49.1904C215.298 48.9956 215.105 48.8618 214.865 48.7871C214.627 48.7121 214.315 48.6721 213.924 48.6667C213.422 48.6667 213.037 48.7363 212.77 48.878C212.503 49.0194 212.31 49.2867 212.193 49.6821C212.075 50.0778 212.016 50.66 212.016 51.4269ZM225.756 55.6434L227.44 50.5933C227.57 50.2221 227.72 49.7917 227.891 49.308C228.062 48.8242 228.174 48.4771 228.228 48.2687C228.11 49.0783 228.051 49.7892 228.051 50.4035V55.6434H229.956V47.2425H226.91L225.032 52.8831C224.978 53.014 224.893 53.4737 224.778 54.2647C224.663 53.4765 224.578 53.0169 224.519 52.8831L222.646 47.2425H219.616V55.6434H221.507V50.4035C221.507 49.7892 221.449 49.0783 221.331 48.2687C221.379 48.461 221.516 48.8697 221.737 49.5006C221.959 50.1312 222.085 50.4944 222.117 50.5933L223.8 55.6434H225.756ZM237.395 55.6434L237.556 54.4891H237.507C237.334 54.8657 237.123 55.1463 236.874 55.3335C236.626 55.5204 236.337 55.6434 236.009 55.7021C235.677 55.7585 235.252 55.7877 234.734 55.7877C234.018 55.7877 233.438 55.7022 232.992 55.5337C232.546 55.3628 232.214 55.085 231.998 54.7001C231.781 54.3127 231.672 53.7997 231.672 53.1583C231.672 52.6267 231.731 52.1858 231.846 51.8385C231.963 51.4911 232.147 51.2185 232.399 51.0182C232.65 50.8205 232.978 50.6762 233.387 50.5933C233.793 50.5077 234.312 50.4651 234.945 50.4651C235.683 50.4651 236.214 50.5453 236.535 50.7054C236.858 50.866 237.115 51.1437 237.302 51.5365H237.395V50.1125C237.395 49.6554 237.339 49.3054 237.227 49.0594C237.115 48.8138 236.93 48.6454 236.671 48.5519C236.412 48.4584 236.046 48.413 235.568 48.413C234.961 48.413 234.547 48.4985 234.32 48.6721C234.095 48.843 233.981 49.1746 233.981 49.6633H231.961C231.976 49.1504 232.075 48.7254 232.254 48.3835C232.431 48.0443 232.677 47.7825 232.986 47.5981C233.296 47.4135 233.654 47.288 234.061 47.2187C234.464 47.1491 234.94 47.1144 235.487 47.1144C236.375 47.1144 237.088 47.1812 237.636 47.3121C238.183 47.4431 238.614 47.7288 238.926 48.1645C239.242 48.6027 239.399 49.252 239.399 50.1125V55.6434H237.395ZM237.395 53.1263C237.395 52.6346 237.256 52.3006 236.981 52.1245C236.706 51.9452 236.188 51.8572 235.424 51.8572C234.977 51.8572 234.627 51.8972 234.378 51.9774C234.13 52.0574 233.954 52.1858 233.85 52.3676C233.745 52.5491 233.692 52.803 233.692 53.1263C233.692 53.5912 233.818 53.9199 234.069 54.1095C234.323 54.2993 234.761 54.3956 235.391 54.3956C236.113 54.3956 236.628 54.3072 236.936 54.1309C237.243 53.9548 237.395 53.6208 237.395 53.1263Z" fill="#242629"/>
</svg>
