<svg width="20" height="20" viewBox="0 0 20 20" fill="none" xmlns="http://www.w3.org/2000/svg">
<path fill-rule="evenodd" clip-rule="evenodd" d="M7.13689 1.58903C6.92987 1.23739 6.57171 1.00115 6.16646 0.949823C5.7615 0.898211 5.35569 1.03689 5.067 1.32558C4.24404 2.14854 3.1979 3.19468 2.59868 3.79389C2.29071 4.10187 2.15431 4.54228 2.23456 4.97021C3.52799 11.4861 9.3378 17.0339 15.358 18.0925C15.7757 18.1609 16.2008 18.0239 16.5003 17.7245C17.0978 17.1326 18.1499 16.0805 18.9785 15.2519C19.2681 14.9623 19.4071 14.5545 19.3543 14.1484C19.3013 13.7421 19.0631 13.3836 18.7089 13.178C17.7279 12.6077 16.4751 11.8789 15.6487 11.3985C15.1312 11.0976 14.4758 11.183 14.0524 11.6064C13.9565 11.7022 13.859 11.7998 13.7654 11.8934C13.3772 12.2816 12.7893 12.3891 12.2891 12.1633C10.4665 11.3316 9.13645 9.97662 8.27294 8.12396C8.04011 7.62286 8.14504 7.03017 8.53582 6.63939C8.6209 6.54751 8.71251 6.4559 8.80297 6.36544C9.22835 5.94006 9.31199 5.28073 9.00686 4.76234C8.50434 3.90932 7.7327 2.60001 7.13689 1.58903Z" fill="#A4ADBA"/>
</svg>
