<svg width="100" height="100" viewBox="0 0 100 100" fill="none" xmlns="http://www.w3.org/2000/svg">
<path d="M41.6108 66.9624H53.9698" stroke="#A4ADBA" stroke-width="1.2" stroke-miterlimit="1.5" stroke-linecap="round" stroke-linejoin="round"/>
<path d="M41.6108 75.6528H62.118" stroke="#A4ADBA" stroke-width="1.2" stroke-miterlimit="1.5" stroke-linecap="round" stroke-linejoin="round"/>
<path d="M41.6108 84.3448H70.3332" stroke="#A4ADBA" stroke-width="1.2" stroke-miterlimit="1.5" stroke-linecap="round" stroke-linejoin="round"/>
<path d="M59.2294 32.6586C58.1463 32.895 57.0214 33.0207 55.868 33.0207C47.2155 33.0207 40.191 25.9961 40.191 17.3437C40.191 8.6912 47.2155 1.66663 55.868 1.66663C64.5204 1.66663 71.5434 8.6912 71.5434 17.3437C71.5434 20.4234 70.6549 23.2953 69.1192 25.7195" stroke="#A4ADBA" stroke-width="1.2" stroke-miterlimit="1.5" stroke-linecap="round" stroke-linejoin="round"/>
<path fill-rule="evenodd" clip-rule="evenodd" d="M30.0674 40.5288C30.0674 39.2657 30.5785 38.0559 31.4854 37.1749C35.5035 33.2703 47.0503 22.047 52.6912 16.5662C54.4722 14.835 57.2961 14.7989 59.1219 16.4853C64.749 21.6822 76.0859 32.1552 80.1625 35.9204C81.121 36.8066 81.6666 38.0508 81.6666 39.3552C81.6666 48.0419 81.6666 81.9681 81.6666 93.9847C81.6666 96.3302 79.7651 98.2317 77.4178 98.2317C67.7158 98.2317 44.0182 98.2317 34.3162 98.2317C33.189 98.2317 32.1083 97.7843 31.3116 96.9876C30.5148 96.1908 30.0674 95.1119 30.0674 93.9847C30.0674 82.123 30.0674 48.9712 30.0674 40.5288Z" stroke="#A4ADBA" stroke-width="1.2" stroke-miterlimit="1.5" stroke-linecap="round" stroke-linejoin="round"/>
<path d="M30.0675 51.6367C30.0675 51.6367 20.6202 66.1502 15.838 73.4982C14.3253 75.823 14.9139 78.9257 17.1733 80.5347C22.1827 84.1019 30.0675 89.7153 30.0675 89.7153" stroke="#A4ADBA" stroke-width="1.2" stroke-miterlimit="1.5" stroke-linecap="round" stroke-linejoin="round"/>
</svg>
