<svg width="100" height="100" viewBox="0 0 100 100" fill="none" xmlns="http://www.w3.org/2000/svg">
<g clip-path="url(#clip0_232_35)">
<path d="M58.1494 89.6543C58.1494 89.6543 67.3397 83.1854 74.5423 78.1127C79.8549 74.3719 83.0012 68.3797 83.0012 61.9986C83.0012 44.929 83.0012 12.3458 83.0012 12.3458C74.4133 7.128 63.0494 4.6132 49.4952 4.22961V13.9824" stroke="#A4ADBA" stroke-width="1.2" stroke-miterlimit="1.5" stroke-linecap="round" stroke-linejoin="round"/>
<path fill-rule="evenodd" clip-rule="evenodd" d="M46.139 49.6558C44.1403 48.5283 42.7955 46.424 42.7955 44.0149C42.7955 40.4175 45.7982 37.4976 49.4953 37.4976C53.1924 37.4976 56.1932 40.4175 56.1932 44.0149C56.1932 46.2698 55.0142 48.2595 53.2255 49.4299V57.6824C53.2255 58.6342 52.4316 59.4049 51.4534 59.4049C50.3721 59.4049 48.9924 59.4049 47.9092 59.4049C46.9311 59.4049 46.139 58.6342 46.139 57.6824V49.6558Z" stroke="#A4ADBA" stroke-width="1.2" stroke-miterlimit="1.5" stroke-linecap="round" stroke-linejoin="round"/>
<path d="M41.2058 4.48059C31.1295 5.25852 22.8197 7.75181 15.921 11.6199V61.986C15.921 68.3744 19.0728 74.3719 24.3947 78.1128C34.342 85.1015 49.4953 95.7487 49.4953 95.7487V83.8343M49.4953 83.8343C49.4953 83.8343 37.6874 75.8722 30.7002 71.1598C27.5558 69.0394 25.6806 65.5548 25.6806 61.8319C25.6806 48.5319 25.6806 17.526 25.6806 17.526C41.7106 12.5126 57.7424 12.9266 73.7724 18.0441V62.1743C73.7724 65.994 71.7976 69.5574 68.5186 71.6563C61.3805 76.2253 49.4953 83.8343 49.4953 83.8343Z" stroke="#A4ADBA" stroke-width="1.2" stroke-miterlimit="1.5" stroke-linecap="round" stroke-linejoin="round"/>
</g>
<defs>
<clipPath id="clip0_232_35">
<rect width="70" height="95" fill="white" transform="translate(15 3.33337)"/>
</clipPath>
</defs>
</svg>
