<svg width="60" height="30" viewBox="0 0 60 30" fill="none" xmlns="http://www.w3.org/2000/svg">
<g clip-path="url(#clip0_549_2807)">
<path d="M29.0026 18.2344C28.7337 19.9363 28.1344 21.5463 27.2048 23.0641C25.897 25.1996 24.1233 26.8893 21.8837 28.1337C19.6441 29.3778 17.2107 30 14.5833 30C11.9559 30 9.52259 29.3778 7.28296 28.1337C5.04333 26.8893 3.26963 25.1996 1.96185 23.0641C1.03222 21.5463 0.43296 19.9363 0.164072 18.2344H1.43962C1.61221 19.1815 1.90183 20.1059 2.30887 21.007C3.0148 22.5693 3.96407 23.9148 5.1563 25.0433C6.34815 26.1718 7.76889 27.0718 9.41852 27.743C11.0678 28.4144 12.7893 28.75 14.5833 28.75C16.3774 28.75 18.0989 28.4144 19.7481 27.743C21.3974 27.0718 22.8181 26.1718 24.0104 25.0433C25.2026 23.9148 26.1515 22.5693 26.8574 21.007C27.2648 20.1059 27.5544 19.1815 27.7267 18.2344H29.0026ZM26.4544 18.2344C26.2944 19.0181 26.0441 19.783 25.7029 20.5293C25.0607 21.9356 24.2015 23.1481 23.1248 24.1667C22.0485 25.1852 20.7637 25.9952 19.2707 26.597C17.7778 27.1989 16.2152 27.5 14.5833 27.5C12.9515 27.5 11.3889 27.1989 9.89592 26.597C8.40259 25.9952 7.11813 25.1852 6.04146 24.1667C4.96517 23.1481 4.10591 21.9356 3.46332 20.5293C3.12258 19.783 2.87222 19.0181 2.71222 18.2344H3.98184C4.21518 19.2685 4.62369 20.2533 5.20813 21.1893C6.18035 22.7459 7.49702 23.9785 9.15776 24.887C10.8189 25.7956 12.6274 26.25 14.5833 26.25C16.5393 26.25 18.3478 25.7956 20.0085 24.887C21.6696 23.9785 22.9859 22.7459 23.9581 21.1893C24.5426 20.2533 24.9515 19.2685 25.1844 18.2344H26.4544ZM23.8874 18.2344C23.7655 18.6841 23.6041 19.1248 23.4026 19.557C22.8933 20.6511 22.2107 21.597 21.3541 22.3959C20.4978 23.1944 19.4792 23.8281 18.2985 24.2967C17.1181 24.7656 15.8796 25 14.5833 25C13.287 25 12.0485 24.7656 10.8681 24.2967C9.68741 23.8281 8.66889 23.1944 7.81259 22.3959C6.95592 21.597 6.27294 20.6511 5.76369 19.557C5.56257 19.1248 5.4011 18.6841 5.27925 18.2344H6.57037C6.75592 18.8244 7.02257 19.3926 7.36961 19.9393C8.11628 21.1141 9.12887 22.0426 10.4078 22.7256C11.687 23.4085 13.0785 23.75 14.5833 23.75C16.0878 23.75 17.4796 23.4085 18.7585 22.7256C20.0374 22.0426 21.0504 21.1141 21.7966 19.9393C22.1441 19.3926 22.4104 18.8244 22.5963 18.2344H23.8874ZM21.2833 18.2344C20.9433 19.1141 20.3763 19.9111 19.5833 20.6248C18.1944 21.8748 16.5278 22.5 14.5833 22.5C12.6389 22.5 10.9722 21.8748 9.58333 20.6248C8.79 19.9111 8.22332 19.1141 7.88332 18.2344H9.25517C9.53813 18.7781 9.93963 19.28 10.46 19.7396C11.6 20.7463 12.9744 21.25 14.5833 21.25C16.1922 21.25 17.5667 20.7463 18.7067 19.7396C19.227 19.28 19.6285 18.7781 19.9111 18.2344H21.2833ZM1.25 8.0737H0V0H1.25V8.0737ZM3.75 8.0737H2.5V0H3.75V8.0737ZM6.25 8.0737H5V0H6.25V8.0737ZM8.75 8.0737H7.5V0H8.75V8.0737ZM21.6667 8.0737H20.4167V0H21.6667V8.0737ZM24.1667 8.0737H22.9167V0H24.1667V8.0737ZM26.6667 8.0737H25.4167V0H26.6667V8.0737ZM29.1667 8.0737H27.9167V0H29.1667V8.0737Z" fill="white"/>
<path d="M38.6111 18.2344V28.75H37.3611V18.2344H38.6111ZM36.1111 18.2344V28.75H34.8611V18.2344H36.1111ZM33.6111 18.2344V28.75H32.3611V18.2344H33.6111ZM41.1111 18.2344V28.75H39.8611V18.2344H41.1111ZM56.9925 18.2344C56.9029 18.3274 56.8118 18.4181 56.7185 18.507C55.7581 19.4211 54.6411 20.13 53.3681 20.6337C52.0948 21.137 50.7522 21.3889 49.3403 21.3889H42.0833V20.1389H49.3403C50.5785 20.1389 51.7648 19.893 52.8992 19.4011C53.63 19.0841 54.2992 18.6952 54.9074 18.2344H56.9925ZM52.4977 18.2344C51.5074 18.6707 50.4548 18.8889 49.3403 18.8889H42.0833V18.2344H52.4977ZM32.3611 8.0737V0H49.3403C51.1922 0 52.9281 0.482964 54.5485 1.44963C56.1688 2.41593 57.4592 3.70926 58.42 5.32963C58.9429 6.21185 59.3237 7.12629 59.5618 8.0737H58.2692C58.0585 7.34222 57.75 6.63333 57.3437 5.94593C56.4989 4.51667 55.3615 3.37666 53.9322 2.52592C52.5029 1.67518 50.9722 1.25 49.3403 1.25H33.6111V8.0737H32.3611ZM34.8611 8.0737V2.5H49.3403C50.7407 2.5 52.06 2.87037 53.2985 3.61111C54.537 4.35185 55.5237 5.34148 56.2585 6.57963C56.5474 7.06593 56.7792 7.56407 56.9544 8.0737H55.6307C55.2911 7.26 54.7711 6.50148 54.0711 5.79851C52.7111 4.43296 51.134 3.75 49.3403 3.75H36.1111V8.0737H34.8611ZM37.3611 8.0737V5H49.3403C50.7985 5 52.0833 5.56111 53.1944 6.68407C53.6292 7.12333 53.9788 7.58666 54.2433 8.0737H52.7585C52.6244 7.89852 52.4748 7.72741 52.3088 7.56074C51.4407 6.68667 50.4515 6.25 49.3403 6.25H38.6111V8.0737H37.3611ZM39.8611 8.0737V7.5H49.3403C49.9952 7.5 50.5785 7.69111 51.0903 8.0737H39.8611Z" fill="white"/>
<path d="M3.6883 10.2676H5.16371V14.4479C5.16371 15.0217 5.03393 15.4384 4.77437 15.6979C4.5148 15.9575 4.09813 16.0873 3.52436 16.0873H1.63911C1.06534 16.0873 0.648665 15.9575 0.389102 15.6979C0.129538 15.4384 -0.000244141 15.0217 -0.000244141 14.4479V10.2676H1.47517V14.4479C1.47517 14.7758 1.63911 14.9397 1.96698 14.9397H3.19649C3.52436 14.9397 3.6883 14.7758 3.6883 14.4479V10.2676Z" fill="white"/>
<path d="M6.14722 10.2676H9.58985C10.1636 10.2676 10.5803 10.3974 10.8399 10.6569C11.0994 10.9165 11.2292 11.3332 11.2292 11.9069V12.7266C11.2292 13.3004 11.0994 13.7171 10.8399 13.9766C10.5803 14.2362 10.1636 14.366 9.58985 14.366H7.62263V16.0053H6.14722V10.2676ZM9.75379 11.9069C9.75379 11.5791 9.58985 11.4151 9.26198 11.4151H7.62263V13.2184H9.26198C9.58985 13.2184 9.75379 13.0545 9.75379 12.7266V11.9069Z" fill="white"/>
<path d="M16.885 15.8824C15.6063 16.019 14.4314 16.0873 13.3604 16.0873C12.8248 16.0873 12.4314 15.9616 12.18 15.7102C11.9287 15.4589 11.803 15.0654 11.803 14.5299V11.9069C11.803 11.3332 11.9328 10.9165 12.1923 10.6569C12.4519 10.3974 12.8686 10.2676 13.4423 10.2676H16.3932V11.4151H13.7702C13.4423 11.4151 13.2784 11.5791 13.2784 11.9069V14.5299C13.2784 14.6556 13.3153 14.7553 13.389 14.8291C13.4628 14.9028 13.5625 14.9397 13.6882 14.9397C14.3166 14.9397 14.8904 14.9261 15.4096 14.8987V13.7102H14.344V12.7266H16.885V15.8824Z" fill="white"/>
<path d="M17.7048 10.2676H21.1475C21.7212 10.2676 22.1379 10.3974 22.3975 10.6569C22.657 10.9165 22.7868 11.3332 22.7868 11.9069V12.6446C22.7868 13.0982 22.7117 13.4507 22.5614 13.702C22.4111 13.9534 22.1721 14.1201 21.8442 14.202L22.8688 16.0053H21.2704L20.3278 14.284H19.1802V16.0053H17.7048V10.2676ZM21.3114 11.9069C21.3114 11.5791 21.1475 11.4151 20.8196 11.4151H19.1802V13.1365H20.8196C21.1475 13.1365 21.3114 12.9725 21.3114 12.6446V11.9069Z" fill="white"/>
<path d="M24.6311 16.0053H23.0327L25.2049 10.2676H26.8442L29.0163 16.0053H27.418L27.0491 14.9807H24.9999L24.6311 16.0053ZM25.3688 13.9152H26.6803L26.0245 11.9889L25.3688 13.9152Z" fill="white"/>
<path d="M32.6228 10.2676C33.2402 10.2676 33.7088 10.4274 34.0285 10.7471C34.3482 11.0668 34.508 11.5353 34.508 12.1528V14.1201C34.508 14.7376 34.3482 15.2061 34.0285 15.5258C33.7088 15.8455 33.2402 16.0053 32.6228 16.0053H29.426V10.2676H32.6228ZM33.0326 12.1528C33.0326 11.661 32.7867 11.4151 32.2949 11.4151H30.9014V14.8578H32.2949C32.7867 14.8578 33.0326 14.6119 33.0326 14.1201V12.1528Z" fill="white"/>
<path d="M39.8771 16.0053H35.3279V10.2676H39.8771V11.4151H36.8033V12.5217H39.2213V13.6692H36.8033V14.8578H39.8771V16.0053Z" fill="white"/>
<path d="M42.9917 10.2676H46.4343C47.0081 10.2676 47.4248 10.3974 47.6843 10.6569C47.9439 10.9165 48.0737 11.3332 48.0737 11.9069V12.7266C48.0737 13.3004 47.9439 13.7171 47.6843 13.9766C47.4248 14.2362 47.0081 14.366 46.4343 14.366H44.4671V16.0053H42.9917V10.2676ZM46.5983 11.9069C46.5983 11.5791 46.4343 11.4151 46.1065 11.4151H44.4671V13.2184H46.1065C46.4343 13.2184 46.5983 13.0545 46.5983 12.7266V11.9069Z" fill="white"/>
<path d="M48.8115 10.2676H52.2542C52.8279 10.2676 53.2446 10.3974 53.5042 10.6569C53.7637 10.9165 53.8935 11.3332 53.8935 11.9069V12.6446C53.8935 13.0982 53.8184 13.4507 53.6681 13.702C53.5178 13.9534 53.2788 14.1201 52.9509 14.202L53.9755 16.0053H52.3771L51.4345 14.284H50.2869V16.0053H48.8115V10.2676ZM52.4181 11.9069C52.4181 11.5791 52.2542 11.4151 51.9263 11.4151H50.2869V13.1365H51.9263C52.2542 13.1365 52.4181 12.9725 52.4181 12.6446V11.9069Z" fill="white"/>
<path d="M58.4015 11.8249C58.4015 11.497 58.2376 11.3331 57.9097 11.3331H56.5163C56.1884 11.3331 56.0245 11.497 56.0245 11.8249V14.4479C56.0245 14.7757 56.1884 14.9397 56.5163 14.9397H57.9097C58.2376 14.9397 58.4015 14.7757 58.4015 14.4479V11.8249ZM59.877 14.4479C59.877 15.0216 59.7472 15.4383 59.4876 15.6979C59.2281 15.9574 58.8114 16.0872 58.2376 16.0872H56.1884C55.6146 16.0872 55.198 15.9574 54.9384 15.6979C54.6788 15.4383 54.5491 15.0216 54.5491 14.4479V11.8249C54.5491 11.2511 54.6788 10.8345 54.9384 10.5749C55.198 10.3153 55.6146 10.1855 56.1884 10.1855H58.2376C58.8114 10.1855 59.2281 10.3153 59.4876 10.5749C59.7472 10.8345 59.877 11.2511 59.877 11.8249V14.4479Z" fill="white"/>
</g>
<defs>
<clipPath id="clip0_549_2807">
<rect width="60" height="30" fill="white"/>
</clipPath>
</defs>
</svg>
