<svg width="24" height="24" viewBox="0 0 24 24" fill="none" xmlns="http://www.w3.org/2000/svg">
<g clip-path="url(#clip0_388_3826)">
<path d="M20.5309 10.0712C20.5598 6.68749 17.6778 3.58555 14.1067 3.1566C14.0357 3.14816 13.9583 3.13536 13.8764 3.12177C13.6996 3.09247 13.5168 3.06238 13.3323 3.06238C12.6004 3.06238 12.4048 3.5765 12.3532 3.88316C12.3031 4.18128 12.3509 4.43164 12.495 4.62762C12.7374 4.9572 13.1638 5.0157 13.5064 5.06262C13.6068 5.07649 13.7016 5.08939 13.7809 5.1072C16.9894 5.82415 18.0698 6.9513 18.5978 10.1326C18.6107 10.2103 18.6165 10.3061 18.6227 10.4077C18.6457 10.788 18.6937 11.5791 19.5443 11.5791H19.5444C19.6152 11.5791 19.6913 11.573 19.7705 11.5609C20.5626 11.4405 20.5377 10.7174 20.5258 10.3699C20.5224 10.272 20.5193 10.1794 20.5276 10.1179C20.5297 10.1024 20.5308 10.0868 20.5309 10.0712Z" fill="#7F40BD"/>
<path d="M13.1245 1.91465C13.2195 1.92149 13.3095 1.92805 13.3844 1.93954C18.6531 2.74982 21.0761 5.24609 21.7476 10.556C21.759 10.6463 21.7608 10.7564 21.7627 10.8729C21.7694 11.2878 21.7831 12.1508 22.71 12.1687L22.7388 12.169C23.0295 12.169 23.2607 12.0813 23.4261 11.9083C23.7146 11.6065 23.6945 11.1582 23.6782 10.7978C23.6743 10.7094 23.6705 10.6262 23.6714 10.5533C23.7384 5.12262 19.0375 0.198093 13.6117 0.0149999C13.5892 0.0142499 13.5678 0.0154687 13.5461 0.0185156C13.5354 0.0200624 13.5156 0.0220312 13.4818 0.0220312C13.4277 0.0220312 13.3611 0.0173437 13.2906 0.0125625C13.2052 0.0067031 13.1084 0 13.0104 0C12.1463 0 11.982 0.614154 11.961 0.980246C11.9126 1.82638 12.7311 1.88591 13.1245 1.91465Z" fill="#7F40BD"/>
<path d="M21.4926 17.4188C21.3806 17.3333 21.2647 17.2447 21.1563 17.1574C20.5811 16.6944 19.9691 16.2677 19.3772 15.855C19.2544 15.7695 19.1315 15.6839 19.0091 15.598C18.251 15.0654 17.5694 14.8066 16.9254 14.8066C16.058 14.8066 15.3018 15.2859 14.6777 16.2309C14.4012 16.6498 14.0657 16.8535 13.6523 16.8535C13.4078 16.8535 13.13 16.7838 12.8267 16.6461C10.3795 15.5364 8.63207 13.8349 7.63284 11.589C7.1498 10.5034 7.30641 9.79389 8.15653 9.2164C8.63929 8.88874 9.53788 8.27876 9.47423 7.11068C9.40213 5.78422 6.47536 1.79297 5.24218 1.33969C4.72009 1.14769 4.17151 1.14591 3.60878 1.33524C2.1911 1.81181 1.17377 2.64876 0.666496 3.75543C0.176279 4.82479 0.198404 6.08038 0.730527 7.3865C2.26877 11.1628 4.43143 14.4553 7.15871 17.1723C9.82823 19.8319 13.1093 22.0105 16.9106 23.6474C17.2533 23.7948 17.6127 23.8753 17.8751 23.9339C17.9645 23.954 18.0417 23.9712 18.098 23.9866C18.129 23.995 18.1608 23.9996 18.1928 23.9999L18.2229 24C18.223 24 18.2229 24 18.223 24C20.0109 24 22.1578 22.3662 22.8171 20.5036C23.3947 18.8727 22.3401 18.0665 21.4926 17.4188Z" fill="#7F40BD"/>
<path d="M13.9145 6.22831C13.6084 6.23605 12.9713 6.25184 12.7478 6.90069C12.6432 7.20387 12.6557 7.46712 12.7851 7.68312C12.9748 8.00004 13.3384 8.09717 13.6691 8.15046C14.8685 8.34293 15.4844 9.00611 15.6076 10.2374C15.6648 10.8115 16.0515 11.2125 16.5479 11.2125H16.548C16.5846 11.2125 16.6221 11.2103 16.6595 11.2058C17.2565 11.1347 17.5459 10.6961 17.5198 9.90217C17.5293 9.07357 17.0957 8.13288 16.3582 7.38359C15.618 6.632 14.7259 6.20872 13.9145 6.22831Z" fill="#7F40BD"/>
</g>
<defs>
<clipPath id="clip0_388_3826">
<rect width="24" height="24" fill="white"/>
</clipPath>
</defs>
</svg>
