<svg width="24" height="24" viewBox="0 0 24 24" fill="none" xmlns="http://www.w3.org/2000/svg">
<g clip-path="url(#clip0_388_3832)">
<path d="M0 24L2.064 17.8084C1.01669 16.0469 0.413793 13.9912 0.413793 11.7931C0.413793 5.28 5.69379 0 12.2069 0C18.72 0 24 5.28 24 11.7931C24 18.3062 18.72 23.5862 12.2069 23.5862C10.2252 23.5862 8.35903 23.095 6.72 22.2319L0 24Z" fill="#2CB742"/>
<path d="M19.7302 15.7179C19.1856 14.6888 17.1775 13.512 17.1775 13.512C16.7231 13.253 16.1749 13.224 15.9158 13.6858C15.9158 13.6858 15.2633 14.4683 15.0973 14.5808C14.3393 15.0944 13.6371 15.0745 12.9282 14.3657L11.2809 12.7184L9.63361 11.071C8.92478 10.3622 8.90492 9.66001 9.41844 8.90194C9.53099 8.73601 10.3135 8.08346 10.3135 8.08346C10.7753 7.82401 10.7463 7.27615 10.4873 6.82181C10.4873 6.82181 9.31044 4.81367 8.28133 4.26912C7.84354 4.03739 7.30602 4.1185 6.95596 4.46857L6.22851 5.19601C3.92078 7.50374 5.05706 10.109 7.36478 12.4167L9.47389 14.5258L11.583 16.6349C13.8907 18.9426 16.496 20.0789 18.8037 17.7712L19.5311 17.0437C19.8812 16.6928 19.9619 16.1553 19.7302 15.7179Z" fill="white"/>
</g>
<defs>
<clipPath id="clip0_388_3832">
<rect width="24" height="24" fill="white"/>
</clipPath>
</defs>
</svg>
