<svg width="64" height="64" viewBox="0 0 64 64" fill="none" xmlns="http://www.w3.org/2000/svg">
<path fill-rule="evenodd" clip-rule="evenodd" d="M31.882 0.516113C44.9201 0.516113 55.5051 11.1022 55.5051 24.1403C55.5051 42.0757 31.882 63.2478 31.882 63.2478C31.882 63.2478 8.25781 42.6194 8.25781 24.1403C8.25781 11.1022 18.8439 0.516113 31.882 0.516113Z" fill="#242629"/>
<path d="M31.8601 42.7202C42.2763 42.7202 50.7202 34.2763 50.7202 23.8601C50.7202 13.4439 42.2763 5 31.8601 5C21.4439 5 13 13.4439 13 23.8601C13 34.2763 21.4439 42.7202 31.8601 42.7202Z" fill="#A4ADBA"/>
<path fill-rule="evenodd" clip-rule="evenodd" d="M26.5516 31.0381H24.0898V33.4999H26.5516V31.0381Z" fill="#1B1D21"/>
<path opacity="0.6" fill-rule="evenodd" clip-rule="evenodd" d="M29.6414 31.0381H27.1797V33.4999H29.6414V31.0381Z" fill="#1B1D21"/>
<path fill-rule="evenodd" clip-rule="evenodd" d="M32.7313 31.0381H30.2695V33.4999H32.7313V31.0381Z" fill="#1B1D21"/>
<path opacity="0.3" fill-rule="evenodd" clip-rule="evenodd" d="M35.8212 31.0381H33.3594V33.4999H35.8212V31.0381Z" fill="#1B1D21"/>
<path opacity="0.6" fill-rule="evenodd" clip-rule="evenodd" d="M38.911 31.0381H36.4492V33.4999H38.911V31.0381Z" fill="#1B1D21"/>
<path opacity="0.3" fill-rule="evenodd" clip-rule="evenodd" d="M24.0898 30.4103H26.5516V27.9485H24.0898V30.4103Z" fill="#1B1D21"/>
<path fill-rule="evenodd" clip-rule="evenodd" d="M27.1797 30.4103H29.6414V27.9485H27.1797V30.4103Z" fill="#1B1D21"/>
<path opacity="0.5" fill-rule="evenodd" clip-rule="evenodd" d="M36.4492 30.4103H38.911V27.9485H36.4492V30.4103Z" fill="#1B1D21"/>
<path opacity="0.6" fill-rule="evenodd" clip-rule="evenodd" d="M26.5516 24.8589H24.0898V27.3206H26.5516V24.8589Z" fill="#1B1D21"/>
<path opacity="0.6" fill-rule="evenodd" clip-rule="evenodd" d="M29.6414 24.8589H27.1797V27.3206H29.6414V24.8589Z" fill="#1B1D21"/>
<path fill-rule="evenodd" clip-rule="evenodd" d="M38.911 24.8589H36.4492V27.3206H38.911V24.8589Z" fill="#1B1D21"/>
<path opacity="0.3" fill-rule="evenodd" clip-rule="evenodd" d="M24.0898 24.2308H26.5516V21.769H24.0898V24.2308Z" fill="#1B1D21"/>
<path fill-rule="evenodd" clip-rule="evenodd" d="M27.1797 24.2308H29.6414V21.769H27.1797V24.2308Z" fill="#1B1D21"/>
<path opacity="0.6" fill-rule="evenodd" clip-rule="evenodd" d="M30.2695 24.2308H32.7313V21.769H30.2695V24.2308Z" fill="#1B1D21"/>
<path opacity="0.3" fill-rule="evenodd" clip-rule="evenodd" d="M33.3594 24.2308H35.8212V21.769H33.3594V24.2308Z" fill="#1B1D21"/>
<path opacity="0.3" fill-rule="evenodd" clip-rule="evenodd" d="M36.4492 24.2308H38.911V21.769H36.4492V24.2308Z" fill="#1B1D21"/>
<path opacity="0.3" fill-rule="evenodd" clip-rule="evenodd" d="M21 24.2308H23.4618V21.769H21V24.2308Z" fill="#1B1D21"/>
<path opacity="0.3" fill-rule="evenodd" clip-rule="evenodd" d="M26.5516 18.6794H24.0898V21.1412H26.5516V18.6794Z" fill="#1B1D21"/>
<path fill-rule="evenodd" clip-rule="evenodd" d="M27.1797 18.0516H29.6414V15.5898H27.1797V18.0516Z" fill="#1B1D21"/>
<path fill-rule="evenodd" clip-rule="evenodd" d="M32.7313 12.5H30.2695V14.9618H32.7313V12.5Z" fill="#1B1D21"/>
<path fill-rule="evenodd" clip-rule="evenodd" d="M33.3594 18.0516H35.8212V15.5898H33.3594V18.0516Z" fill="#1B1D21"/>
<path opacity="0.5" fill-rule="evenodd" clip-rule="evenodd" d="M38.911 18.6794H36.4492V21.1412H38.911V18.6794Z" fill="#1B1D21"/>
<path fill-rule="evenodd" clip-rule="evenodd" d="M39.5391 24.2308H42.0009V21.769H39.5391V24.2308Z" fill="#1B1D21"/>
<path opacity="0.3" fill-rule="evenodd" clip-rule="evenodd" d="M35.8212 18.6794H33.3594V21.1412H35.8212V18.6794Z" fill="#1B1D21"/>
<path opacity="0.5" fill-rule="evenodd" clip-rule="evenodd" d="M32.7313 18.6794H30.2695V21.1412H32.7313V18.6794Z" fill="#1B1D21"/>
<path opacity="0.6" fill-rule="evenodd" clip-rule="evenodd" d="M29.6414 18.6794H27.1797V21.1412H29.6414V18.6794Z" fill="#1B1D21"/>
<path opacity="0.6" fill-rule="evenodd" clip-rule="evenodd" d="M30.2695 18.0516H32.7313V15.5898H30.2695V18.0516Z" fill="#1B1D21"/>
</svg>
