<svg width="50" height="50" viewBox="0 0 50 50" fill="none" xmlns="http://www.w3.org/2000/svg">
<path fill-rule="evenodd" clip-rule="evenodd" d="M49 4.0613C49 2.37127 47.6226 1.00024 45.9233 1.00024C37.2611 1.00024 12.7389 1.00024 4.0771 1.00024C2.37742 1.00024 1 2.37127 1 4.0613C1 12.7102 1 37.2943 1 45.9433C1 47.6333 2.37742 49.0002 4.0771 49.0002C12.7389 49.0002 37.2611 49.0002 45.9233 49.0002C47.6226 49.0002 49 47.6333 49 45.9433C49 37.2943 49 12.7102 49 4.0613Z" stroke="#646B78" stroke-miterlimit="1.5" stroke-linecap="round" stroke-linejoin="round"/>
<path fill-rule="evenodd" clip-rule="evenodd" d="M38.2415 14.7222C38.2415 13.9108 37.9174 13.1338 37.3403 12.5602C36.7634 11.9865 35.9807 11.6643 35.1646 11.6643C30.068 11.6643 19.932 11.6643 14.8353 11.6643C14.0192 11.6643 13.2367 11.9865 12.6596 12.5602C12.0825 13.1338 11.7584 13.9108 11.7584 14.7222C11.7584 19.8186 11.7584 29.9931 11.7584 35.0895C11.7584 35.9009 12.0825 36.6779 12.6596 37.2515C13.2367 37.8251 14.0192 38.1474 14.8353 38.1474C19.932 38.1474 30.068 38.1474 35.1646 38.1474C35.9807 38.1474 36.7634 37.8251 37.3403 37.2515C37.9174 36.6779 38.2415 35.9009 38.2415 35.0895C38.2415 29.9931 38.2415 19.8186 38.2415 14.7222Z" stroke="#646B78" stroke-miterlimit="1.5" stroke-linecap="round" stroke-linejoin="round"/>
<path d="M25.0002 11.6665V37.8203" stroke="#646B78" stroke-miterlimit="1.5" stroke-linecap="round" stroke-linejoin="round"/>
<path d="M16.1608 34.1421H19.2454" stroke="#646B78" stroke-miterlimit="1.5" stroke-linecap="round" stroke-linejoin="round"/>
<path d="M30.1573 34.1421H33.242" stroke="#646B78" stroke-miterlimit="1.5" stroke-linecap="round" stroke-linejoin="round"/>
</svg>
