<svg width="50" height="49" viewBox="0 0 50 49" fill="none" xmlns="http://www.w3.org/2000/svg">
<path d="M40.4356 44.7624C44.949 44.7624 48.6077 41.1036 48.6077 36.5903C48.6077 32.077 44.949 28.4182 40.4356 28.4182C35.9223 28.4182 32.2635 32.077 32.2635 36.5903C32.2635 41.1036 35.9223 44.7624 40.4356 44.7624Z" stroke="#646B78" stroke-miterlimit="1.5" stroke-linecap="round" stroke-linejoin="round"/>
<path d="M24.4244 17.3258C28.9377 17.3258 32.5965 13.6671 32.5965 9.15376C32.5965 4.64045 28.9377 0.981689 24.4244 0.981689C19.9111 0.981689 16.2523 4.64045 16.2523 9.15376C16.2523 13.6671 19.9111 17.3258 24.4244 17.3258Z" stroke="#646B78" stroke-miterlimit="1.5" stroke-linecap="round" stroke-linejoin="round"/>
<path d="M8.77976 44.7624C13.2931 44.7624 16.9519 41.1036 16.9519 36.5903C16.9519 32.077 13.2931 28.4182 8.77976 28.4182C4.26644 28.4182 0.607666 32.077 0.607666 36.5903C0.607666 41.1036 4.26644 44.7624 8.77976 44.7624Z" stroke="#646B78" stroke-miterlimit="1.5" stroke-linecap="round" stroke-linejoin="round"/>
<path d="M32.407 7.40503C40.0374 10.3643 45.4537 17.7801 45.4537 26.4506C45.4537 27.6353 45.3529 28.7961 45.1586 29.9252" stroke="#646B78" stroke-miterlimit="1.5" stroke-linecap="round" stroke-linejoin="round"/>
<path d="M36.1743 43.5626C32.9698 45.6543 29.143 46.8701 25.0342 46.8701C20.7431 46.8701 16.7594 45.5439 13.4706 43.2783" stroke="#646B78" stroke-miterlimit="1.5" stroke-linecap="round" stroke-linejoin="round"/>
<path d="M4.83175 29.4367C4.68905 28.4621 4.61487 27.465 4.61487 26.4508C4.61487 18.2904 9.41224 11.241 16.3388 7.97314" stroke="#646B78" stroke-miterlimit="1.5" stroke-linecap="round" stroke-linejoin="round"/>
</svg>
