<svg width="50" height="50" viewBox="0 0 50 50" fill="none" xmlns="http://www.w3.org/2000/svg">
<path fill-rule="evenodd" clip-rule="evenodd" d="M49.0121 3.17123C49.0121 2.63718 48.8004 2.12457 48.4228 1.74687C48.0452 1.36918 47.5306 1.15698 46.9994 1.15698H3.02885C2.49353 1.15698 1.97899 1.36918 1.60137 1.74687C1.22374 2.12457 1.01208 2.63718 1.01208 3.17123V4.89106H49.0121V3.17123Z" stroke="#646B78" stroke-miterlimit="1.5" stroke-linecap="round" stroke-linejoin="round"/>
<path fill-rule="evenodd" clip-rule="evenodd" d="M10.9342 4.89087H3.73438V45.548C3.73438 47.5368 5.34449 49.1488 7.33221 49.1488H7.33637C9.32409 49.1488 10.9342 47.5368 10.9342 45.548C10.9342 34.9962 10.9342 4.89087 10.9342 4.89087Z" stroke="#646B78" stroke-miterlimit="1.5" stroke-linecap="round" stroke-linejoin="round"/>
<path fill-rule="evenodd" clip-rule="evenodd" d="M18.1378 4.89087H10.938V45.548C10.938 47.5368 12.5481 49.1488 14.5358 49.1488H14.54C16.5277 49.1488 18.1378 47.5368 18.1378 45.548C18.1378 34.9962 18.1378 4.89087 18.1378 4.89087Z" stroke="#646B78" stroke-miterlimit="1.5" stroke-linecap="round" stroke-linejoin="round"/>
<path fill-rule="evenodd" clip-rule="evenodd" d="M25.3413 4.89087H18.1415V45.548C18.1415 47.5368 19.7516 49.1488 21.7393 49.1488H21.7435C23.7312 49.1488 25.3413 47.5368 25.3413 45.548C25.3413 34.9962 25.3413 4.89087 25.3413 4.89087Z" stroke="#646B78" stroke-miterlimit="1.5" stroke-linecap="round" stroke-linejoin="round"/>
<path d="M24.5452 47.9809H46.2773V4.89136" stroke="#646B78" stroke-miterlimit="1.5" stroke-linecap="round" stroke-linejoin="round"/>
<path d="M43.0447 4.89136V44.5113H25.3419" stroke="#646B78" stroke-miterlimit="1.5" stroke-linecap="round" stroke-linejoin="round"/>
</svg>
