<svg width="50" height="48" viewBox="0 0 50 48" fill="none" xmlns="http://www.w3.org/2000/svg">
<path fill-rule="evenodd" clip-rule="evenodd" d="M16.1576 9.45724C16.1576 8.60989 15.8213 7.79758 15.2224 7.19874C14.6232 6.5995 13.8109 6.26318 12.9639 6.26318C10.5039 6.26318 7.1194 6.26318 4.65976 6.26318C3.81241 6.26318 3.00009 6.5995 2.40126 7.19874C1.80201 7.79758 1.4657 8.60989 1.4657 9.45724C1.4657 18.1962 1.4657 41.8524 1.4657 41.8524H16.1576V9.45724Z" stroke="#646B78" stroke-miterlimit="1.5" stroke-linecap="round" stroke-linejoin="round"/>
<path d="M16.1576 41.8525H49.4657" stroke="#646B78" stroke-miterlimit="1.5" stroke-linecap="round" stroke-linejoin="round"/>
<path d="M8.81174 20.5368C10.7374 20.5368 12.2984 18.9758 12.2984 17.0501C12.2984 15.1245 10.7374 13.5635 8.81174 13.5635C6.8861 13.5635 5.32507 15.1245 5.32507 17.0501C5.32507 18.9758 6.8861 20.5368 8.81174 20.5368Z" stroke="#646B78" stroke-miterlimit="1.5" stroke-linecap="round" stroke-linejoin="round"/>
<path d="M16.1576 22.1415H46.8305C47.5295 22.1415 48.1996 21.8637 48.6942 21.3696C49.1883 20.8754 49.4657 20.2053 49.4657 19.5063C49.4657 17.9909 49.4657 16.0938 49.4657 14.5784C49.4657 13.8798 49.1883 13.2093 48.6942 12.7151C48.1996 12.221 47.5295 11.9436 46.8305 11.9436C38.9587 11.9436 16.1576 11.9436 16.1576 11.9436" stroke="#646B78" stroke-miterlimit="1.5" stroke-linecap="round" stroke-linejoin="round"/>
<path d="M20.7224 22.1415L25.2378 11.9436" stroke="#646B78" stroke-miterlimit="1.5" stroke-linecap="round" stroke-linejoin="round"/>
<path d="M30.5352 22.1415L35.0505 11.9436" stroke="#646B78" stroke-miterlimit="1.5" stroke-linecap="round" stroke-linejoin="round"/>
<path d="M40.3479 22.1415L44.8633 11.9436" stroke="#646B78" stroke-miterlimit="1.5" stroke-linecap="round" stroke-linejoin="round"/>
</svg>
