<svg width="50" height="50" viewBox="0 0 50 50" fill="none" xmlns="http://www.w3.org/2000/svg">
<path fill-rule="evenodd" clip-rule="evenodd" d="M49 5.24803C49 2.90211 47.0982 1.00024 44.7522 1.00024H5.24776C2.90185 1.00024 1 2.90211 1 5.24803V44.752C1 47.0983 2.90185 48.9998 5.24776 48.9998H44.7522C47.0982 48.9998 49 47.0983 49 44.752V5.24803Z" stroke="#646B78" stroke-miterlimit="1.5" stroke-linecap="round" stroke-linejoin="round"/>
<path d="M25.1093 42.2462C34.4844 42.2462 42.0843 34.6463 42.0843 25.2713C42.0843 15.8963 34.4844 8.29639 25.1093 8.29639C15.7343 8.29639 8.1344 15.8963 8.1344 25.2713C8.1344 34.6463 15.7343 42.2462 25.1093 42.2462Z" stroke="#646B78" stroke-miterlimit="1.5" stroke-linecap="round" stroke-linejoin="round"/>
<path d="M17.5179 27.7024C19.0106 27.7024 20.2206 26.4924 20.2206 24.9997C20.2206 23.5071 19.0106 22.2971 17.5179 22.2971C16.0253 22.2971 14.8153 23.5071 14.8153 24.9997C14.8153 26.4924 16.0253 27.7024 17.5179 27.7024Z" stroke="#646B78" stroke-miterlimit="1.5" stroke-linecap="round" stroke-linejoin="round"/>
<path d="M32.2258 27.7024C33.7184 27.7024 34.9285 26.4924 34.9285 24.9997C34.9285 23.5071 33.7184 22.2971 32.2258 22.2971C30.7332 22.2971 29.5232 23.5071 29.5232 24.9997C29.5232 26.4924 30.7332 27.7024 32.2258 27.7024Z" stroke="#646B78" stroke-miterlimit="1.5" stroke-linecap="round" stroke-linejoin="round"/>
<path d="M25.109 8.29639V13.0815" stroke="#646B78" stroke-miterlimit="1.5" stroke-linecap="round" stroke-linejoin="round"/>
<path d="M25.109 42.2461V37.8457" stroke="#646B78" stroke-miterlimit="1.5" stroke-linecap="round" stroke-linejoin="round"/>
</svg>
