<svg width="50" height="48" viewBox="0 0 50 48" fill="none" xmlns="http://www.w3.org/2000/svg">
<path d="M29.4937 31.4688C34.3722 27.2547 34.3901 20.3276 29.4937 16.2292" stroke="#646B78" stroke-miterlimit="1.5" stroke-linecap="round" stroke-linejoin="round"/>
<path d="M35.6965 35.8494C42.2904 29.2125 42.3146 18.3029 35.6965 11.8482" stroke="#646B78" stroke-miterlimit="1.5" stroke-linecap="round" stroke-linejoin="round"/>
<path d="M41.0779 40.7434C51.0989 31.3993 51.1357 16.0395 41.0779 6.95187" stroke="#646B78" stroke-miterlimit="1.5" stroke-linecap="round" stroke-linejoin="round"/>
<path fill-rule="evenodd" clip-rule="evenodd" d="M10.529 8.74157C10.529 5.82734 8.16634 3.46509 5.25251 3.46509C2.8817 3.46509 0.607422 3.46509 0.607422 3.46509V44.2336H5.25251C8.16634 44.2336 10.529 41.8714 10.529 38.9572C10.529 31.1384 10.529 16.5599 10.529 8.74157Z" stroke="#646B78" stroke-miterlimit="1.5" stroke-linecap="round" stroke-linejoin="round"/>
<path d="M10.5291 38.7315H13.2279C16.1419 38.7315 18.5045 36.3692 18.5045 33.4551C18.5045 28.0178 18.5045 19.5904 18.5045 14.1532C18.5045 11.239 16.1419 8.87671 13.2279 8.87671C11.7452 8.87671 10.5291 8.87671 10.5291 8.87671" stroke="#646B78" stroke-miterlimit="1.5" stroke-linecap="round" stroke-linejoin="round"/>
<path d="M18.5044 29.6906H19.0036C20.5756 29.6906 22.0833 29.0661 23.1947 27.9545C24.3063 26.8431 24.9308 25.3355 24.9308 23.7635V23.7627C24.9308 22.1907 24.3063 20.6832 23.1947 19.5716C22.0833 18.4601 20.5756 17.8357 19.0036 17.8357H18.5044" stroke="#646B78" stroke-miterlimit="1.5" stroke-linecap="round" stroke-linejoin="round"/>
</svg>
