<svg width="50" height="48" viewBox="0 0 50 48" fill="none" xmlns="http://www.w3.org/2000/svg">
<path d="M9.48096 7.24731H41.2307" stroke="#646B78" stroke-miterlimit="1.5" stroke-linecap="round" stroke-linejoin="round"/>
<path fill-rule="evenodd" clip-rule="evenodd" d="M49.1511 33.4324C49.1511 32.8256 48.9102 32.2436 48.4812 31.8149C48.0522 31.3859 47.4705 31.145 46.8638 31.145C38.7691 31.145 11.5331 31.145 3.43845 31.145C2.83174 31.145 2.25007 31.3859 1.82106 31.8149C1.39204 32.2436 1.15112 32.8256 1.15112 33.4324C1.15112 34.9222 1.15112 36.8583 1.15112 38.3481C1.15112 38.9548 1.39204 39.5365 1.82106 39.9655C2.25007 40.3945 2.83174 40.6355 3.43845 40.6355C11.5331 40.6355 38.7691 40.6355 46.8638 40.6355C47.4705 40.6355 48.0522 40.3945 48.4812 39.9655C48.9102 39.5365 49.1511 38.9548 49.1511 38.3481C49.1511 36.8583 49.1511 34.9222 49.1511 33.4324Z" stroke="#646B78" stroke-miterlimit="1.5" stroke-linecap="round" stroke-linejoin="round"/>
<path d="M45.5211 35.8901H42.5496" stroke="#646B78" stroke-miterlimit="1.5" stroke-linecap="round" stroke-linejoin="round"/>
<path d="M39.8954 35.8901H36.9238" stroke="#646B78" stroke-miterlimit="1.5" stroke-linecap="round" stroke-linejoin="round"/>
<path d="M34.2696 35.8901H31.2981" stroke="#646B78" stroke-miterlimit="1.5" stroke-linecap="round" stroke-linejoin="round"/>
<path d="M16.0474 7.24731V18.2314L4.99194 31.1451" stroke="#646B78" stroke-miterlimit="1.5" stroke-linecap="round" stroke-linejoin="round"/>
<path d="M34.4661 7.24731V18.2314L45.5215 31.1451" stroke="#646B78" stroke-miterlimit="1.5" stroke-linecap="round" stroke-linejoin="round"/>
<path d="M16.0474 18.2314H34.4659" stroke="#646B78" stroke-miterlimit="1.5" stroke-linecap="round" stroke-linejoin="round"/>
</svg>
