<svg width="48" height="50" viewBox="0 0 48 50" fill="none" xmlns="http://www.w3.org/2000/svg">
<path fill-rule="evenodd" clip-rule="evenodd" d="M24.3521 1.31348C24.3521 1.31348 42.5141 17.4794 42.5141 31.1519C42.5141 41.1758 34.376 49.3135 24.3521 49.3135C14.3286 49.3135 6.19043 41.1758 6.19043 31.1519C6.19043 15.8576 24.3521 1.31348 24.3521 1.31348Z" stroke="#646B78" stroke-miterlimit="1.5" stroke-linecap="round" stroke-linejoin="round"/>
<path fill-rule="evenodd" clip-rule="evenodd" d="M21.0648 20.1335C20.9605 19.1983 21.2594 18.2628 21.8867 17.5616C22.5141 16.86 23.4106 16.4592 24.3516 16.4592H24.352C25.293 16.4592 26.1895 16.86 26.8169 17.5616C27.4442 18.2628 27.743 19.1983 27.6384 20.1335C27.3083 23.0882 26.8563 27.1269 26.5895 29.5145C26.4622 30.6539 25.4985 31.5156 24.3516 31.5156C23.2051 31.5156 22.2414 30.6539 22.1141 29.5145C21.8473 27.1269 21.3953 23.0882 21.0648 20.1335Z" stroke="#646B78" stroke-miterlimit="1.5" stroke-linecap="round" stroke-linejoin="round"/>
<path d="M24.3519 40.7048C25.7767 40.7048 26.9317 39.5499 26.9317 38.1251C26.9317 36.7004 25.7767 35.5454 24.3519 35.5454C22.9272 35.5454 21.7722 36.7004 21.7722 38.1251C21.7722 39.5499 22.9272 40.7048 24.3519 40.7048Z" stroke="#646B78" stroke-miterlimit="1.5" stroke-linecap="round" stroke-linejoin="round"/>
</svg>
