<svg width="48" height="50" viewBox="0 0 48 50" fill="none" xmlns="http://www.w3.org/2000/svg">
<path fill-rule="evenodd" clip-rule="evenodd" d="M44.1463 26.6075C44.1463 25.0378 43.5229 23.5328 42.4133 22.4232C41.3037 21.3136 39.7986 20.6902 38.229 20.6902C30.9194 20.6902 18.5567 20.6902 11.2467 20.6902C9.67745 20.6902 8.17234 21.3136 7.06234 22.4232C5.95275 23.5328 5.32935 25.0378 5.32935 26.6075C5.32935 31.4909 5.32935 38.387 5.32935 43.27C5.32935 44.8397 5.95275 46.3448 7.06234 47.4543C8.17234 48.5639 9.67745 49.1873 11.2467 49.1873C18.5567 49.1873 30.9194 49.1873 38.229 49.1873C39.7986 49.1873 41.3037 48.5639 42.4133 47.4543C43.5229 46.3448 44.1463 44.8397 44.1463 43.27V26.6075Z" stroke="#646B78" stroke-miterlimit="1.5" stroke-linecap="round" stroke-linejoin="round"/>
<path d="M13.2349 20.6902V12.6901C13.2349 9.63929 14.4466 6.71333 16.6038 4.55617C18.7614 2.39901 21.6869 1.18726 24.7377 1.18726H24.7382C27.789 1.18726 30.7145 2.39901 32.8721 4.55617C35.0293 6.71333 36.241 9.63929 36.241 12.6901C36.241 16.9172 36.241 20.6902 36.241 20.6902" stroke="#646B78" stroke-miterlimit="1.5" stroke-linecap="round" stroke-linejoin="round"/>
<path d="M24.7378 28.7378V38.5423" stroke="#646B78" stroke-miterlimit="1.5" stroke-linecap="round" stroke-linejoin="round"/>
</svg>
