<svg width="48" height="50" viewBox="0 0 48 50" fill="none" xmlns="http://www.w3.org/2000/svg">
<path fill-rule="evenodd" clip-rule="evenodd" d="M37.7594 8.69003C37.7594 4.54936 34.4007 1.18872 30.2571 1.18872H17.5018C13.3587 1.18872 10 4.54936 10 8.69003V41.6874C10 45.828 13.3587 49.1887 17.5018 49.1887H30.2571C34.4007 49.1887 37.7594 45.828 37.7594 41.6874V8.69003Z" stroke="#646B78" stroke-miterlimit="1.5" stroke-linecap="round" stroke-linejoin="round"/>
<path d="M23.8795 27.673C27.0551 27.673 29.6294 25.0987 29.6294 21.9231C29.6294 18.7474 27.0551 16.1731 23.8795 16.1731C20.7039 16.1731 18.1295 18.7474 18.1295 21.9231C18.1295 25.0987 20.7039 27.673 23.8795 27.673Z" stroke="#646B78" stroke-miterlimit="1.5" stroke-linecap="round" stroke-linejoin="round"/>
<path d="M15.7825 8.59229H21.4046" stroke="#646B78" stroke-miterlimit="1.5" stroke-linecap="round" stroke-linejoin="round"/>
<path d="M15.7825 36.1133H21.4046" stroke="#646B78" stroke-miterlimit="1.5" stroke-linecap="round" stroke-linejoin="round"/>
<path d="M25.5376 36.1133H31.1597" stroke="#646B78" stroke-miterlimit="1.5" stroke-linecap="round" stroke-linejoin="round"/>
<path d="M15.7825 42.4917H21.4046" stroke="#646B78" stroke-miterlimit="1.5" stroke-linecap="round" stroke-linejoin="round"/>
<path d="M25.5376 42.4917H31.1597" stroke="#646B78" stroke-miterlimit="1.5" stroke-linecap="round" stroke-linejoin="round"/>
</svg>
