<svg width="50" height="49" viewBox="0 0 50 49" fill="none" xmlns="http://www.w3.org/2000/svg">
<path fill-rule="evenodd" clip-rule="evenodd" d="M24.0224 31.3696C23.5905 31.3696 23.1684 31.324 22.7606 31.2381C21.8429 31.0446 20.9966 30.6478 20.2685 30.1128C17.4834 33.4579 17.8852 38.3364 19.1229 43.5535C19.4612 44.9972 18.9009 46.5033 17.7015 47.375C16.5021 48.247 14.8964 48.3149 13.628 47.5474C8.24614 44.3358 3.80233 39.3329 1.21931 33.088C0.693343 31.8168 0.733516 30.3813 1.32972 29.1413C1.92631 27.9013 3.02235 26.9738 4.34391 26.5907C8.71007 25.3577 13.1734 24.7111 17.7003 24.4193C17.9243 22.0364 19.4136 20.0574 21.537 19.1752C20.0324 15.0908 15.607 12.9998 10.4698 11.4629C9.05031 11.034 8.02606 9.796 7.87038 8.3211C7.71508 6.8466 8.45917 5.42203 9.75809 4.70721C15.2293 1.65286 21.7828 0.305952 28.4811 1.19011C29.8456 1.37037 31.0692 2.12303 31.8449 3.26003C32.6206 4.39702 32.8757 5.81027 32.5456 7.14665C31.4207 11.5643 29.7297 15.7877 27.7179 19.8569C29.3247 21.0095 30.3723 22.8933 30.3723 25.0198C30.3723 25.2477 30.3774 25.4564 30.354 25.6784L30.432 25.6843C34.7213 26.4241 38.7453 23.6366 42.6444 19.9564C43.7256 18.9415 45.3101 18.6734 46.6649 19.2763C48.0196 19.8795 48.8811 21.2358 48.851 22.7181C48.7601 28.9833 46.6504 35.3319 42.5355 40.6911C41.697 41.7829 40.4336 42.4657 39.0609 42.5691C37.6886 42.6725 36.3367 42.1867 35.3444 41.2327C32.0813 38.0496 29.2693 34.4735 26.7514 30.6966C25.9168 31.1 25.0104 31.3696 24.0224 31.3696Z" stroke="#646B78" stroke-miterlimit="1.5" stroke-linecap="round" stroke-linejoin="round"/>
<path d="M36.4452 5.7854C39.864 8.06407 42.6245 11.2542 44.378 15.0074" stroke="#646B78" stroke-miterlimit="1.5" stroke-linecap="round" stroke-linejoin="round"/>
<path d="M34.0198 44.6235C31.0029 46.1296 27.6009 46.9771 24.0022 46.9771" stroke="#646B78" stroke-miterlimit="1.5" stroke-linecap="round" stroke-linejoin="round"/>
<path d="M24.0022 46.977C23.3814 46.977 22.7665 46.9517 22.1582 46.9021" stroke="#646B78" stroke-miterlimit="1.5" stroke-linecap="round" stroke-linejoin="round"/>
<path d="M1.53894 23.7439C1.67746 19.5717 2.95493 15.6863 5.07051 12.3884" stroke="#646B78" stroke-miterlimit="1.5" stroke-linecap="round" stroke-linejoin="round"/>
<path d="M34.3763 13.8245C35.8993 15.3047 37.1071 17.1076 37.889 19.1222" stroke="#646B78" stroke-miterlimit="1.5" stroke-linecap="round" stroke-linejoin="round"/>
<path d="M27.7521 38.9131C26.5541 39.2243 25.2974 39.39 24.0024 39.39" stroke="#646B78" stroke-miterlimit="1.5" stroke-linecap="round" stroke-linejoin="round"/>
<path d="M24.0024 39.39C23.334 39.39 22.6759 39.3458 22.0308 39.2603" stroke="#646B78" stroke-miterlimit="1.5" stroke-linecap="round" stroke-linejoin="round"/>
<path d="M9.47253 21.2389C9.92952 19.198 10.8058 17.315 12.0061 15.6848" stroke="#646B78" stroke-miterlimit="1.5" stroke-linecap="round" stroke-linejoin="round"/>
</svg>
