<svg width="48" height="50" viewBox="0 0 48 50" fill="none" xmlns="http://www.w3.org/2000/svg">
<path fill-rule="evenodd" clip-rule="evenodd" d="M14.1997 29.1453V7.25653C14.1997 3.639 17.1368 0.701904 20.7547 0.701904C24.3727 0.701904 27.3098 3.639 27.3098 7.25653V29.1195H27.3505C29.9814 31.1083 31.6825 34.2627 31.6825 37.8117C31.6825 43.8222 26.8027 48.7019 20.7923 48.7019C14.7819 48.7019 9.9021 43.8222 9.9021 37.8117C9.9021 34.2784 11.5887 31.1357 14.1997 29.1453Z" stroke="#646B78" stroke-miterlimit="1.5" stroke-linecap="round" stroke-linejoin="round"/>
<path d="M20.7922 42.3177C23.3215 42.3177 25.3719 40.2673 25.3719 37.738C25.3719 35.2086 23.3215 33.1582 20.7922 33.1582C18.2628 33.1582 16.2124 35.2086 16.2124 37.738C16.2124 40.2673 18.2628 42.3177 20.7922 42.3177Z" stroke="#646B78" stroke-miterlimit="1.5" stroke-linecap="round" stroke-linejoin="round"/>
<path d="M20.7925 33.1584V9.87793" stroke="#646B78" stroke-miterlimit="1.5" stroke-linecap="round" stroke-linejoin="round"/>
<path d="M32.5376 6.97583H37.9221" stroke="#646B78" stroke-miterlimit="1.5" stroke-linecap="round" stroke-linejoin="round"/>
<path d="M32.5376 15.2793H37.9221" stroke="#646B78" stroke-miterlimit="1.5" stroke-linecap="round" stroke-linejoin="round"/>
<path d="M32.5376 23.5825H37.9221" stroke="#646B78" stroke-miterlimit="1.5" stroke-linecap="round" stroke-linejoin="round"/>
</svg>
