<svg width="50" height="50" viewBox="0 0 50 50" fill="none" xmlns="http://www.w3.org/2000/svg">
<path d="M8.72177 0.701904C8.16345 1.4198 1.88097 7.03782 8.8564 14.2496C16.3763 22.0241 8.3749 27.5788 8.45964 27.2675" stroke="#646B78" stroke-miterlimit="1.5" stroke-linecap="round" stroke-linejoin="round"/>
<path d="M20.8868 0.701904C20.3285 1.4198 14.046 7.03782 21.0214 14.2496C28.5413 22.0241 20.5399 27.5788 20.6247 27.2675" stroke="#646B78" stroke-miterlimit="1.5" stroke-linecap="round" stroke-linejoin="round"/>
<path d="M33.9561 0.701904C33.3978 1.4198 27.1153 7.03782 34.0908 14.2496C41.6107 22.0241 33.6093 27.5788 33.694 27.2675" stroke="#646B78" stroke-miterlimit="1.5" stroke-linecap="round" stroke-linejoin="round"/>
<path d="M49.4336 31.4751H4.63859C3.78883 31.4751 2.97353 31.8129 2.37244 32.4139C1.77136 33.015 1.43359 33.8303 1.43359 34.6801V34.6817C1.43359 35.5314 1.77136 36.3467 2.37244 36.9478C2.97353 37.5489 3.78883 37.8866 4.63859 37.8866C12.24 37.8866 31.2229 37.8866 37.9243 37.8866C39.2433 37.8866 40.3128 38.9558 40.3128 40.2751V40.2755C40.3128 41.5949 39.2433 42.664 37.9243 42.664H4.39229C2.75851 42.664 1.43359 43.9889 1.43359 45.6227V45.6235C1.43359 46.4083 1.74562 47.1611 2.30037 47.7158C2.85513 48.2706 3.60787 48.5822 4.39229 48.5822H49.4336" stroke="#646B78" stroke-miterlimit="1.5" stroke-linecap="round" stroke-linejoin="round"/>
</svg>
