<svg width="48" height="50" viewBox="0 0 48 50" fill="none" xmlns="http://www.w3.org/2000/svg">
<path fill-rule="evenodd" clip-rule="evenodd" d="M24.1573 0.701416C24.1573 0.701416 42.3193 16.8673 42.3193 30.5398C42.3193 40.5637 34.1812 48.7014 24.1573 48.7014C14.1337 48.7014 5.99561 40.5637 5.99561 30.5398C5.99561 15.2455 24.1573 0.701416 24.1573 0.701416Z" stroke="#646B78" stroke-miterlimit="1.5" stroke-linecap="round" stroke-linejoin="round"/>
<path d="M18.4916 25.3026C20.2383 25.3026 21.6542 23.8867 21.6542 22.1401C21.6542 20.3935 20.2383 18.9775 18.4916 18.9775C16.745 18.9775 15.3291 20.3935 15.3291 22.1401C15.3291 23.8867 16.745 25.3026 18.4916 25.3026Z" stroke="#646B78" stroke-miterlimit="1.5" stroke-linecap="round" stroke-linejoin="round"/>
<path d="M30.1684 37.3846C31.915 37.3846 33.3309 35.9687 33.3309 34.2221C33.3309 32.4755 31.915 31.0596 30.1684 31.0596C28.4218 31.0596 27.0059 32.4755 27.0059 34.2221C27.0059 35.9687 28.4218 37.3846 30.1684 37.3846Z" stroke="#646B78" stroke-miterlimit="1.5" stroke-linecap="round" stroke-linejoin="round"/>
<path d="M19.0593 37.3849L29.1954 19.7886" stroke="#646B78" stroke-miterlimit="1.5" stroke-linecap="round" stroke-linejoin="round"/>
</svg>
