<svg width="48" height="50" viewBox="0 0 48 50" fill="none" xmlns="http://www.w3.org/2000/svg">
<path fill-rule="evenodd" clip-rule="evenodd" d="M37.2119 20.4677C37.2119 13.0796 31.2227 7.09033 23.8345 7.09033H23.8335C16.4453 7.09033 10.4561 13.0796 10.4561 20.4677V30.5813C10.4561 34.3602 6.60525 37.5748 4.78245 38.8847C4.19714 39.2983 3.84904 39.9707 3.84904 40.6872C3.84668 40.7774 3.84668 40.87 3.84668 40.9641C3.84668 41.5501 4.07944 42.1121 4.49386 42.5261C4.90827 42.9405 5.47026 43.1733 6.05611 43.1733H41.3448C41.9309 43.1733 42.4926 42.9405 42.907 42.5261C43.3215 42.1121 43.5542 41.5501 43.5542 40.9641C43.5542 40.8549 43.5542 40.7476 43.5542 40.6438C43.5542 39.9494 43.2276 39.2956 42.6724 38.8781C40.928 37.5469 37.2119 34.2731 37.2119 30.5813V20.4677Z" stroke="#646B78" stroke-miterlimit="1.5" stroke-linecap="round" stroke-linejoin="round"/>
<path d="M9.54659 3.54956C4.57091 8.43576 2.03602 14.3165 2 21.2152" stroke="#646B78" stroke-miterlimit="1.5" stroke-linecap="round" stroke-linejoin="round"/>
<path d="M38.0213 3.54956C42.997 8.43576 45.5319 14.3165 45.5679 21.2152" stroke="#646B78" stroke-miterlimit="1.5" stroke-linecap="round" stroke-linejoin="round"/>
<path d="M29.8249 43.1733C29.8249 46.5273 27.1019 49.2503 23.7479 49.2503C20.3939 49.2503 17.6709 46.5273 17.6709 43.1733" stroke="#646B78" stroke-miterlimit="1.5" stroke-linecap="round" stroke-linejoin="round"/>
<path d="M27.1781 7.51174V4.68019C27.1781 3.77042 26.8167 2.89821 26.1734 2.2549C25.5301 1.61159 24.6579 1.25024 23.7481 1.25024H23.7473C22.8379 1.25024 21.9654 1.61159 21.322 2.2549C20.6787 2.89821 20.3174 3.77042 20.3174 4.68019C20.3174 5.63102 20.3174 6.65077 20.3174 7.55706" stroke="#646B78" stroke-miterlimit="1.5" stroke-linecap="round" stroke-linejoin="round"/>
</svg>
