<svg width="48" height="50" viewBox="0 0 48 50" fill="none" xmlns="http://www.w3.org/2000/svg">
<path fill-rule="evenodd" clip-rule="evenodd" d="M34.7076 2.95961C27.5917 -0.157426 20.4759 -0.215901 13.36 2.95961V23.758C20.4759 27.3971 27.5917 27.4362 34.7076 23.758V2.95961Z" stroke="#646B78" stroke-miterlimit="1.5" stroke-linecap="round" stroke-linejoin="round"/>
<path fill-rule="evenodd" clip-rule="evenodd" d="M30.4228 11.0934C26.1635 9.22763 21.9043 9.19263 17.645 11.0934V21.2189C21.9043 23.397 26.1635 23.4204 30.4228 21.2189V11.0934Z" stroke="#646B78" stroke-miterlimit="1.5" stroke-linecap="round" stroke-linejoin="round"/>
<path d="M24.0339 3.89258V6.69128" stroke="#646B78" stroke-miterlimit="1.5" stroke-linecap="round" stroke-linejoin="round"/>
<path d="M16.8174 30.4304C20.8236 35.0682 27.4089 35.0853 31.3051 30.4304" stroke="#646B78" stroke-miterlimit="1.5" stroke-linecap="round" stroke-linejoin="round"/>
<path d="M12.6527 36.3274C18.9621 42.5959 29.3335 42.6189 35.4697 36.3274" stroke="#646B78" stroke-miterlimit="1.5" stroke-linecap="round" stroke-linejoin="round"/>
<path d="M8 41.4419C16.8831 50.9685 31.4851 51.0035 40.1244 41.4419" stroke="#646B78" stroke-miterlimit="1.5" stroke-linecap="round" stroke-linejoin="round"/>
</svg>
