<svg width="50" height="48" viewBox="0 0 50 48" fill="none" xmlns="http://www.w3.org/2000/svg">
<path fill-rule="evenodd" clip-rule="evenodd" d="M49.407 6.39111H1.40698V10.8875C1.40698 14.8468 4.6169 18.0568 8.57673 18.0568C17.6454 18.0568 33.169 18.0568 42.2372 18.0568C46.1971 18.0568 49.407 14.8468 49.407 10.8875C49.407 8.47838 49.407 6.39111 49.407 6.39111Z" stroke="#646B78" stroke-miterlimit="1.5" stroke-linecap="round" stroke-linejoin="round"/>
<path d="M43.5921 18.0569C43.5859 20.1118 43.5921 21.991 43.5921 24.1204C43.5921 33.9058 35.6248 41.8498 25.6859 41.8498C15.747 41.8498 7.34082 33.9058 7.34082 24.1204C7.34082 21.991 7.32543 19.8837 7.34082 18.0569" stroke="#646B78" stroke-miterlimit="1.5" stroke-linecap="round" stroke-linejoin="round"/>
<path d="M33.8123 39.9336V30.5931C33.8123 26.0439 30.1242 22.3557 25.5748 22.3557C21.0253 22.3557 17.3368 26.0439 17.3368 30.5931C17.3368 33.7843 17.3368 37.2835 17.3368 39.8683" stroke="#646B78" stroke-miterlimit="1.5" stroke-linecap="round" stroke-linejoin="round"/>
<path d="M25.4627 35.2506C27.8364 35.2506 29.7606 33.3263 29.7606 30.9527C29.7606 28.579 27.8364 26.6548 25.4627 26.6548C23.089 26.6548 21.1648 28.579 21.1648 30.9527C21.1648 33.3263 23.089 35.2506 25.4627 35.2506Z" stroke="#646B78" stroke-miterlimit="1.5" stroke-linecap="round" stroke-linejoin="round"/>
</svg>
