<svg width="50" height="48" viewBox="0 0 50 48" fill="none" xmlns="http://www.w3.org/2000/svg">
<path d="M25.1164 29.5372C27.17 29.5372 28.8348 27.8724 28.8348 25.8188C28.8348 23.7651 27.17 22.1003 25.1164 22.1003C23.0627 22.1003 21.3979 23.7651 21.3979 25.8188C21.3979 27.8724 23.0627 29.5372 25.1164 29.5372Z" stroke="#646B78" stroke-miterlimit="1.5" stroke-linecap="round" stroke-linejoin="round"/>
<path d="M25.1166 29.5376V39.6719" stroke="#646B78" stroke-miterlimit="1.5" stroke-linecap="round" stroke-linejoin="round"/>
<path d="M25.0516 1.81934V7.7713" stroke="#646B78" stroke-miterlimit="1.5" stroke-linecap="round" stroke-linejoin="round"/>
<path d="M42.022 8.84814L37.8133 13.0568" stroke="#646B78" stroke-miterlimit="1.5" stroke-linecap="round" stroke-linejoin="round"/>
<path d="M12.29 38.5806L8.08136 42.7892" stroke="#646B78" stroke-miterlimit="1.5" stroke-linecap="round" stroke-linejoin="round"/>
<path d="M49.0518 25.8188H43.0998" stroke="#646B78" stroke-miterlimit="1.5" stroke-linecap="round" stroke-linejoin="round"/>
<path d="M7.00378 25.8188H1.05181" stroke="#646B78" stroke-miterlimit="1.5" stroke-linecap="round" stroke-linejoin="round"/>
<path d="M42.0222 42.7893L37.8135 38.5806" stroke="#646B78" stroke-miterlimit="1.5" stroke-linecap="round" stroke-linejoin="round"/>
<path d="M12.2903 13.0569L8.0816 8.84822" stroke="#646B78" stroke-miterlimit="1.5" stroke-linecap="round" stroke-linejoin="round"/>
<path fill-rule="evenodd" clip-rule="evenodd" d="M19.1071 39.4566C19.1067 38.0991 18.4385 36.8286 17.3199 36.0595C13.7818 33.6415 11.4729 29.5694 11.4729 24.9626C11.4729 17.4994 17.5321 11.4402 24.9953 11.4402C32.4586 11.4402 38.5178 17.4994 38.5178 24.9626C38.5178 29.5694 36.2093 33.6415 32.6873 36.0832C31.5766 36.847 30.9132 38.1089 30.9132 39.4566C30.884 41.1434 30.884 43.1316 30.884 43.1316H19.1071V39.4566Z" stroke="#646B78" stroke-miterlimit="1.5" stroke-linecap="round" stroke-linejoin="round"/>
<path d="M21.1843 43.1316V43.5373C21.1843 44.548 21.5859 45.5173 22.3003 46.2317C23.0151 46.9464 23.9844 47.3481 24.9951 47.3481H24.9962C26.0068 47.3481 26.9762 46.9464 27.6905 46.2317C28.4053 45.5173 28.8069 44.548 28.8069 43.5373C28.8069 43.2865 28.8069 43.1316 28.8069 43.1316" stroke="#646B78" stroke-miterlimit="1.5" stroke-linecap="round" stroke-linejoin="round"/>
<path d="M19.1072 39.6719H30.9091" stroke="#646B78" stroke-miterlimit="1.5" stroke-linecap="round" stroke-linejoin="round"/>
</svg>
