<svg width="50" height="48" viewBox="0 0 50 48" fill="none" xmlns="http://www.w3.org/2000/svg">
<path d="M24.7812 30.1418C32.5462 30.1418 38.8409 23.847 38.8409 16.0821C38.8409 8.31718 32.5462 2.02246 24.7812 2.02246C17.0163 2.02246 10.7216 8.31718 10.7216 16.0821C10.7216 23.847 17.0163 30.1418 24.7812 30.1418Z" stroke="#646B78" stroke-miterlimit="1.5" stroke-linecap="round" stroke-linejoin="round"/>
<path d="M14.6673 46.0822C22.4323 46.0822 28.727 39.7875 28.727 32.0225C28.727 24.2576 22.4323 17.9629 14.6673 17.9629C6.9024 17.9629 0.607666 24.2576 0.607666 32.0225C0.607666 39.7875 6.9024 46.0822 14.6673 46.0822Z" stroke="#646B78" stroke-miterlimit="1.5" stroke-linecap="round" stroke-linejoin="round"/>
<path d="M34.548 46.0822C42.3129 46.0822 48.6076 39.7875 48.6076 32.0225C48.6076 24.2576 42.3129 17.9629 34.548 17.9629C26.783 17.9629 20.4883 24.2576 20.4883 32.0225C20.4883 39.7875 26.783 46.0822 34.548 46.0822Z" stroke="#646B78" stroke-miterlimit="1.5" stroke-linecap="round" stroke-linejoin="round"/>
</svg>
