<svg width="50" height="50" viewBox="0 0 50 50" fill="none" xmlns="http://www.w3.org/2000/svg">
<path fill-rule="evenodd" clip-rule="evenodd" d="M49 3.40004C49 2.07518 47.9244 1 46.5998 1H3.39977C2.07524 1 1 2.07518 1 3.40004V46.5997C1 47.9245 2.07524 48.9997 3.39977 48.9997H46.5998C47.9244 48.9997 49 47.9245 49 46.5997V3.40004Z" stroke="#646B78" stroke-miterlimit="1.5" stroke-linecap="round" stroke-linejoin="round"/>
<path fill-rule="evenodd" clip-rule="evenodd" d="M32.3835 12.8632C32.3835 12.048 31.7218 11.3865 30.9068 11.3865H19.093C18.2781 11.3865 17.6163 12.048 17.6163 12.8632V37.1367C17.6163 37.9519 18.2781 38.6134 19.093 38.6134H30.9068C31.7218 38.6134 32.3835 37.9519 32.3835 37.1367V12.8632Z" stroke="#646B78" stroke-miterlimit="1.5" stroke-linecap="round" stroke-linejoin="round"/>
<path d="M21.6506 31.9473H28.3491" stroke="#646B78" stroke-miterlimit="1.5" stroke-linecap="round" stroke-linejoin="round"/>
</svg>
