<svg width="50" height="50" viewBox="0 0 50 50" fill="none" xmlns="http://www.w3.org/2000/svg">
<path d="M25 49.0002C38.2548 49.0002 49 38.2551 49 25.0002C49 11.7454 38.2548 1.00024 25 1.00024C11.7452 1.00024 1 11.7454 1 25.0002C1 38.2551 11.7452 49.0002 25 49.0002Z" stroke="#646B78" stroke-miterlimit="1.5" stroke-linecap="round" stroke-linejoin="round"/>
<path d="M25.0001 43.8351C35.4023 43.8351 43.835 35.4025 43.835 25.0003C43.835 14.5982 35.4023 6.16553 25.0001 6.16553C14.5979 6.16553 6.16528 14.5982 6.16528 25.0003C6.16528 35.4025 14.5979 43.8351 25.0001 43.8351Z" stroke="#646B78" stroke-miterlimit="1.5" stroke-linecap="round" stroke-linejoin="round"/>
<path d="M21.2344 25.8247C22.2232 25.8247 23.0247 25.0232 23.0247 24.0344C23.0247 23.0457 22.2232 22.2441 21.2344 22.2441C20.2456 22.2441 19.4441 23.0457 19.4441 24.0344C19.4441 25.0232 20.2456 25.8247 21.2344 25.8247Z" stroke="#646B78" stroke-miterlimit="1.5" stroke-linecap="round" stroke-linejoin="round"/>
<path d="M30.5564 25.3237V24.9762C30.5564 24.309 30.2907 23.6649 29.8178 23.1923C29.3444 22.7197 28.7028 22.4509 28.0338 22.4509H28.0318C27.3628 22.4509 26.7212 22.7197 26.2483 23.1923C25.7749 23.6649 25.5092 24.309 25.5092 24.9762C25.5092 26.3431 25.5092 28.0205 25.5092 29.3874C25.5092 30.0593 25.7749 30.6987 26.2483 31.1714C26.7212 31.644 27.3628 31.9128 28.0318 31.9128H28.0338C28.7028 31.9128 29.3444 31.644 29.8178 31.1714C30.2907 30.6987 30.5564 30.0593 30.5564 29.3874" stroke="#646B78" stroke-miterlimit="1.5" stroke-linecap="round" stroke-linejoin="round"/>
<path d="M12.3423 18.9159C14.6114 14.2097 19.429 10.9597 24.9996 10.9597C25.277 10.9597 25.5526 10.9677 25.8261 10.9837" stroke="#646B78" stroke-miterlimit="1.5" stroke-linecap="round" stroke-linejoin="round"/>
</svg>
