<svg width="50" height="50" viewBox="0 0 50 50" fill="none" xmlns="http://www.w3.org/2000/svg">
<path d="M9.33819 16.2694C13.686 16.2694 17.2106 12.7448 17.2106 8.39701C17.2106 4.04923 13.686 0.524658 9.33819 0.524658C4.9904 0.524658 1.46582 4.04923 1.46582 8.39701C1.46582 12.7448 4.9904 16.2694 9.33819 16.2694Z" stroke="#646B78" stroke-miterlimit="1.5" stroke-linecap="round" stroke-linejoin="round"/>
<path d="M41.2013 16.2694C45.5491 16.2694 49.0737 12.7448 49.0737 8.39701C49.0737 4.04923 45.5491 0.524658 41.2013 0.524658C36.8536 0.524658 33.329 4.04923 33.329 8.39701C33.329 12.7448 36.8536 16.2694 41.2013 16.2694Z" stroke="#646B78" stroke-miterlimit="1.5" stroke-linecap="round" stroke-linejoin="round"/>
<path d="M9.33819 48.5247C13.686 48.5247 17.2106 45.0002 17.2106 40.6524C17.2106 36.3046 13.686 32.78 9.33819 32.78C4.9904 32.78 1.46582 36.3046 1.46582 40.6524C1.46582 45.0002 4.9904 48.5247 9.33819 48.5247Z" stroke="#646B78" stroke-miterlimit="1.5" stroke-linecap="round" stroke-linejoin="round"/>
<path d="M41.2013 48.5247C45.5491 48.5247 49.0737 45.0002 49.0737 40.6524C49.0737 36.3046 45.5491 32.78 41.2013 32.78C36.8536 32.78 33.329 36.3046 33.329 40.6524C33.329 45.0002 36.8536 48.5247 41.2013 48.5247Z" stroke="#646B78" stroke-miterlimit="1.5" stroke-linecap="round" stroke-linejoin="round"/>
<path d="M33.3286 8.39722H17.2107" stroke="#646B78" stroke-miterlimit="1.5" stroke-linecap="round" stroke-linejoin="round"/>
<path d="M9.33838 16.2695V24.5248H41.2011V32.78" stroke="#646B78" stroke-miterlimit="1.5" stroke-linecap="round" stroke-linejoin="round"/>
<path d="M33.3286 40.6523H17.2107" stroke="#646B78" stroke-miterlimit="1.5" stroke-linecap="round" stroke-linejoin="round"/>
<path d="M23.3379 5.2417L20.1826 8.39695L23.3379 11.5522" stroke="#646B78" stroke-miterlimit="1.5" stroke-linecap="round" stroke-linejoin="round"/>
<path d="M23.3379 37.2864L20.1826 40.4416L23.3379 43.5969" stroke="#646B78" stroke-miterlimit="1.5" stroke-linecap="round" stroke-linejoin="round"/>
<path d="M38.046 27.0808L41.2013 30.2361L44.3565 27.0808" stroke="#646B78" stroke-miterlimit="1.5" stroke-linecap="round" stroke-linejoin="round"/>
</svg>
