<svg width="50" height="50" viewBox="0 0 50 50" fill="none" xmlns="http://www.w3.org/2000/svg">
<path d="M8.75651 32.6856C13.1757 32.6856 16.7581 29.1032 16.7581 24.684C16.7581 20.2648 13.1757 16.6824 8.75651 16.6824C4.33734 16.6824 0.754883 20.2648 0.754883 24.684C0.754883 29.1032 4.33734 32.6856 8.75651 32.6856Z" stroke="#646B78" stroke-miterlimit="1.5" stroke-linecap="round" stroke-linejoin="round"/>
<path d="M24.7598 48.6888C29.179 48.6888 32.7614 45.1063 32.7614 40.6872C32.7614 36.268 29.179 32.6855 24.7598 32.6855C20.3406 32.6855 16.7582 36.268 16.7582 40.6872C16.7582 45.1063 20.3406 48.6888 24.7598 48.6888Z" stroke="#646B78" stroke-miterlimit="1.5" stroke-linecap="round" stroke-linejoin="round"/>
<path d="M40.7532 28.4962C45.1724 28.4962 48.7549 24.9137 48.7549 20.4945C48.7549 16.0754 45.1724 12.4929 40.7532 12.4929C36.334 12.4929 32.7516 16.0754 32.7516 20.4945C32.7516 24.9137 36.334 28.4962 40.7532 28.4962Z" stroke="#646B78" stroke-miterlimit="1.5" stroke-linecap="round" stroke-linejoin="round"/>
<path d="M11.6251 17.2212V15.8117C11.6251 14.2275 10.341 12.9431 8.75654 12.9431C7.17206 12.9431 5.88794 14.2275 5.88794 15.8117C5.88794 16.5896 5.88794 17.2212 5.88794 17.2212" stroke="#646B78" stroke-miterlimit="1.5" stroke-linecap="round" stroke-linejoin="round"/>
<path d="M43.622 12.9436V11.5342C43.622 9.94989 42.3378 8.66553 40.7534 8.66553C39.1689 8.66553 37.8848 9.94989 37.8848 11.5342C37.8848 12.3121 37.8848 12.9436 37.8848 12.9436" stroke="#646B78" stroke-miterlimit="1.5" stroke-linecap="round" stroke-linejoin="round"/>
<path d="M27.6284 33.1555V31.7461C27.6284 30.1618 26.3443 28.8774 24.7598 28.8774C23.1754 28.8774 21.8912 30.1618 21.8912 31.7461C21.8912 32.524 21.8912 33.1555 21.8912 33.1555" stroke="#646B78" stroke-miterlimit="1.5" stroke-linecap="round" stroke-linejoin="round"/>
<path d="M8.75671 12.9436V1.10669" stroke="#646B78" stroke-miterlimit="1.5" stroke-linecap="round" stroke-linejoin="round"/>
<path d="M24.76 28.8775V1.10669" stroke="#646B78" stroke-miterlimit="1.5" stroke-linecap="round" stroke-linejoin="round"/>
<path d="M40.7633 8.66544V1.10669" stroke="#646B78" stroke-miterlimit="1.5" stroke-linecap="round" stroke-linejoin="round"/>
</svg>
