<svg width="100" height="102" viewBox="0 0 100 102" fill="none" xmlns="http://www.w3.org/2000/svg">
<path d="M35.5122 32.1838H83.9692" stroke="black" stroke-miterlimit="1.5" stroke-linecap="round" stroke-linejoin="round"/>
<path d="M14.4556 22.1765H25.7399" stroke="black" stroke-miterlimit="1.5" stroke-linecap="round" stroke-linejoin="round"/>
<path d="M14.4556 32.4185H25.7399" stroke="black" stroke-miterlimit="1.5" stroke-linecap="round" stroke-linejoin="round"/>
<path d="M14.4556 42.6604H25.7399" stroke="black" stroke-miterlimit="1.5" stroke-linecap="round" stroke-linejoin="round"/>
<path d="M14.4556 52.9023H25.7399" stroke="black" stroke-miterlimit="1.5" stroke-linecap="round" stroke-linejoin="round"/>
<path d="M14.4556 63.1438H25.7399" stroke="black" stroke-miterlimit="1.5" stroke-linecap="round" stroke-linejoin="round"/>
<path d="M35.5122 44.0796H71.9565" stroke="black" stroke-miterlimit="1.5" stroke-linecap="round" stroke-linejoin="round"/>
<path d="M35.5122 55.9756H83.9692" stroke="black" stroke-miterlimit="1.5" stroke-linecap="round" stroke-linejoin="round"/>
<path d="M35.5122 79.7668H83.9692" stroke="black" stroke-miterlimit="1.5" stroke-linecap="round" stroke-linejoin="round"/>
<path d="M35.5122 67.8713H71.9565" stroke="black" stroke-miterlimit="1.5" stroke-linecap="round" stroke-linejoin="round"/>
<path fill-rule="evenodd" clip-rule="evenodd" d="M93.3343 21.6378C93.3343 17.9069 90.3059 14.8777 86.5749 14.8777H32.4993C28.7683 14.8777 25.74 17.9069 25.74 21.6378V94.2406C25.74 97.9716 28.7683 101 32.4993 101H86.5749C90.3059 101 93.3343 97.9716 93.3343 94.2406V21.6378Z" stroke="black" stroke-miterlimit="1.5" stroke-linecap="round" stroke-linejoin="round"/>
<path d="M73.5943 14.8782V7.76016C73.5943 4.02917 70.5659 1 66.8349 1H12.7593C9.02836 1 6 4.02917 6 7.76016V80.3629C6 84.0939 9.02836 87.1223 12.7593 87.1223H25.74" stroke="black" stroke-miterlimit="1.5" stroke-linecap="round" stroke-linejoin="round"/>
</svg>
