<svg width="100" height="102" viewBox="0 0 100 102" fill="none" xmlns="http://www.w3.org/2000/svg">
<path d="M49.9934 32.0328C68.7675 32.0328 83.9868 25.1094 83.9868 16.5689C83.9868 8.02842 68.7675 1.10498 49.9934 1.10498C31.2194 1.10498 16 8.02842 16 16.5689C16 25.1094 31.2194 32.0328 49.9934 32.0328Z" stroke="black" stroke-miterlimit="1.5" stroke-linecap="round" stroke-linejoin="round"/>
<path d="M16 85.2632C16 76.7284 31.2317 69.7993 49.9934 69.7993C68.7552 69.7993 83.9868 76.7284 83.9868 85.2632" stroke="black" stroke-miterlimit="1.5" stroke-linecap="round" stroke-linejoin="round" stroke-dasharray="3 3"/>
<path d="M83.9868 85.6399C83.9868 94.1756 68.7552 101.105 49.9934 101.105C31.2317 101.105 16 94.1756 16 85.6399" stroke="black" stroke-miterlimit="1.5" stroke-linecap="round" stroke-linejoin="round"/>
<path d="M83.9873 85.6412V16.5693" stroke="black" stroke-miterlimit="1.5" stroke-linecap="round" stroke-linejoin="round"/>
<path d="M16.0002 85.6412V16.5693" stroke="black" stroke-miterlimit="1.5" stroke-linecap="round" stroke-linejoin="round"/>
</svg>
