<svg width="102" height="102" viewBox="0 0 102 102" fill="none" xmlns="http://www.w3.org/2000/svg">
<path d="M51 101C78.6143 101 101 78.6142 101 51C101 23.3858 78.6143 1 51 1C23.3858 1 1 23.3858 1 51C1 78.6142 23.3858 101 51 101Z" stroke="black" stroke-miterlimit="1.5" stroke-linecap="round" stroke-linejoin="round"/>
<path d="M78.5842 62.1116C75.4491 74.8468 63.9432 84.3042 50.2453 84.3042C36.6475 84.3042 25.2087 74.9841 21.9766 62.3885" stroke="black" stroke-miterlimit="1.5" stroke-linecap="round" stroke-linejoin="round"/>
<path d="M22.6293 42.9725C22.6293 37.0806 27.4127 32.2971 33.3047 32.2971C39.1966 32.2971 43.9801 37.0806 43.9801 42.9725" stroke="black" stroke-miterlimit="1.5" stroke-linecap="round" stroke-linejoin="round"/>
<path d="M56.9227 42.9725C56.9227 37.0806 61.7062 32.2971 67.5981 32.2971C73.4901 32.2971 78.2736 37.0806 78.2736 42.9725" stroke="black" stroke-miterlimit="1.5" stroke-linecap="round" stroke-linejoin="round"/>
</svg>
