<svg width="100" height="102" viewBox="0 0 100 102" fill="none" xmlns="http://www.w3.org/2000/svg">
<path d="M73.9733 65.2354C79.2938 71.7744 79.5704 78.3144 73.9733 84.8543" stroke="black" stroke-miterlimit="1.5" stroke-linecap="round" stroke-linejoin="round"/>
<path d="M79.9882 59.3936C88.8988 69.8268 89.362 80.2615 79.9882 90.6962" stroke="black" stroke-miterlimit="1.5" stroke-linecap="round" stroke-linejoin="round"/>
<path fill-rule="evenodd" clip-rule="evenodd" d="M45.2631 39.5575C43.2839 42.3877 40.0008 44.2405 36.2887 44.2405C30.248 44.2405 25.3447 39.3364 25.3447 33.2958C25.3447 27.2559 30.248 22.3518 36.2887 22.3518C39.9119 22.3518 43.1264 24.1165 45.1195 26.8333H86.8451V39.5575H45.2631Z" stroke="black" stroke-miterlimit="1.5" stroke-linecap="round" stroke-linejoin="round"/>
<path d="M60.6666 26.8334V7.19728C60.6666 3.77719 57.8903 1 54.4702 1H19.1965C15.7764 1 13 3.77719 13 7.19728V94.8027C13 98.2228 15.7764 101 19.1965 101H54.4702C57.8903 101 60.6666 98.2228 60.6666 94.8027V39.5576" stroke="black" stroke-miterlimit="1.5" stroke-linecap="round" stroke-linejoin="round"/>
<path d="M25.3447 61.1992H50.1852" stroke="black" stroke-miterlimit="1.5" stroke-linecap="round" stroke-linejoin="round"/>
<path d="M25.3447 78.1582H50.1852" stroke="black" stroke-miterlimit="1.5" stroke-linecap="round" stroke-linejoin="round"/>
</svg>
