<svg width="100" height="100" viewBox="0 0 100 100" fill="none" xmlns="http://www.w3.org/2000/svg">
<path fill-rule="evenodd" clip-rule="evenodd" d="M90.8016 59.1987C93.2412 56.7591 94.6119 53.4504 94.6119 50.0003C94.6119 46.5501 93.2411 43.2414 90.8016 40.8019L59.1981 9.19839C56.7586 6.75886 53.4499 5.38811 49.9998 5.38811C46.5502 5.38865 43.2409 6.75887 40.8014 9.1984L9.19788 40.8019C6.75835 43.2414 5.38812 46.5507 5.38812 49.9997C5.38812 53.4499 6.75889 56.7586 9.19842 59.1981L40.8019 90.8016C43.2414 93.2411 46.5501 94.6119 50.0003 94.6119C53.4499 94.6124 56.7586 93.2417 59.1982 90.8021L90.8016 59.1987Z" stroke="black" stroke-miterlimit="1.5" stroke-linecap="round" stroke-linejoin="round"/>
<path d="M33.7091 33.2848L25.2122 24.7878" stroke="black" stroke-miterlimit="1.5" stroke-linecap="round" stroke-linejoin="round"/>
<path d="M50.2122 49.7877L42.6317 42.208" stroke="black" stroke-miterlimit="1.5" stroke-linecap="round" stroke-linejoin="round"/>
<path d="M29.5626 39.5509C29.5626 36.7379 31.2729 34.3217 33.7095 33.2854" stroke="black" stroke-miterlimit="1.5" stroke-linecap="round" stroke-linejoin="round"/>
<path d="M42.6322 42.2087C41.5967 44.6446 39.1797 46.3548 36.3676 46.3548C33.6104 46.3548 31.2344 44.7118 30.1653 42.3522" stroke="black" stroke-miterlimit="1.5" stroke-linecap="round" stroke-linejoin="round"/>
<path d="M66.7118 66.2926L75.2087 74.7896" stroke="black" stroke-miterlimit="1.5" stroke-linecap="round" stroke-linejoin="round"/>
<path d="M50.2088 49.7897L57.7893 57.3694" stroke="black" stroke-miterlimit="1.5" stroke-linecap="round" stroke-linejoin="round"/>
<path d="M70.8583 60.0265C70.8583 62.8395 69.148 65.2557 66.7114 66.292" stroke="black" stroke-miterlimit="1.5" stroke-linecap="round" stroke-linejoin="round"/>
<path d="M57.7888 57.3684C58.8243 54.9326 61.2413 53.2223 64.0534 53.2223C66.8107 53.2223 69.1866 54.8654 70.2557 57.2249" stroke="black" stroke-miterlimit="1.5" stroke-linecap="round" stroke-linejoin="round"/>
<path d="M66.716 33.2855L75.213 24.7886" stroke="black" stroke-miterlimit="1.5" stroke-linecap="round" stroke-linejoin="round"/>
<path d="M50.2131 49.7885L57.7927 42.208" stroke="black" stroke-miterlimit="1.5" stroke-linecap="round" stroke-linejoin="round"/>
<path d="M60.4498 29.1389C63.2627 29.1389 65.6789 30.8492 66.7152 33.2858" stroke="black" stroke-miterlimit="1.5" stroke-linecap="round" stroke-linejoin="round"/>
<path d="M57.7917 42.2087C55.3559 41.1732 53.6457 38.7562 53.6457 35.944C53.6457 33.1868 55.2887 30.8108 57.6483 29.7417" stroke="black" stroke-miterlimit="1.5" stroke-linecap="round" stroke-linejoin="round"/>
<path d="M33.7081 66.2914L25.2112 74.7883" stroke="black" stroke-miterlimit="1.5" stroke-linecap="round" stroke-linejoin="round"/>
<path d="M50.2111 49.7884L42.6315 57.3689" stroke="black" stroke-miterlimit="1.5" stroke-linecap="round" stroke-linejoin="round"/>
<path d="M39.9744 70.438C37.1615 70.438 34.7453 68.7277 33.709 66.2911" stroke="black" stroke-miterlimit="1.5" stroke-linecap="round" stroke-linejoin="round"/>
<path d="M42.6324 57.3682C45.0683 58.4037 46.7785 60.8207 46.7785 63.6329C46.7785 66.3901 45.1355 68.7661 42.7759 69.8352" stroke="black" stroke-miterlimit="1.5" stroke-linecap="round" stroke-linejoin="round"/>
</svg>
