<svg width="100" height="102" viewBox="0 0 100 102" fill="none" xmlns="http://www.w3.org/2000/svg">
<path d="M42.5575 68.6184H55.356" stroke="black" stroke-miterlimit="1.5" stroke-linecap="round" stroke-linejoin="round"/>
<path d="M42.5575 77.6179H63.7941" stroke="black" stroke-miterlimit="1.5" stroke-linecap="round" stroke-linejoin="round"/>
<path d="M42.5575 86.6189H72.3015" stroke="black" stroke-miterlimit="1.5" stroke-linecap="round" stroke-linejoin="round"/>
<path d="M60.8025 33.0944C59.681 33.3392 58.516 33.4694 57.3215 33.4694C48.3613 33.4694 41.0869 26.1949 41.0869 17.2347C41.0869 8.27444 48.3613 1 57.3215 1C66.2818 1 73.5545 8.27444 73.5545 17.2347C73.5545 20.424 72.6344 23.398 71.0441 25.9085" stroke="black" stroke-miterlimit="1.5" stroke-linecap="round" stroke-linejoin="round"/>
<path fill-rule="evenodd" clip-rule="evenodd" d="M30.6035 41.2445C30.6035 39.9364 31.1328 38.6836 32.0719 37.7712C36.233 33.7278 48.1905 22.1053 54.032 16.4295C55.8765 14.6368 58.8008 14.5993 60.6915 16.3457C66.5188 21.7275 78.2589 32.573 82.4806 36.4721C83.4732 37.3899 84.0381 38.6783 84.0381 40.0291C84.0381 49.0248 84.0381 84.1578 84.0381 96.6018C84.0381 99.0308 82.069 101 79.6383 101C69.5911 101 45.0506 101 35.0034 101C33.8362 101 32.7171 100.537 31.892 99.7115C31.0669 98.8864 30.6035 97.7691 30.6035 96.6018C30.6035 84.3182 30.6035 49.9872 30.6035 41.2445Z" stroke="black" stroke-miterlimit="1.5" stroke-linecap="round" stroke-linejoin="round"/>
<path d="M30.6034 52.7476C30.6034 52.7476 20.8201 67.7773 15.8678 75.3867C14.3014 77.7942 14.9108 81.0072 17.2506 82.6734C22.4382 86.3676 30.6034 92.1806 30.6034 92.1806" stroke="black" stroke-miterlimit="1.5" stroke-linecap="round" stroke-linejoin="round"/>
</svg>
