<svg width="100" height="102" viewBox="0 0 100 102" fill="none" xmlns="http://www.w3.org/2000/svg">
<path d="M58.8978 94.3409C58.8978 94.3409 68.669 87.2725 76.327 81.7298C81.9755 77.6423 85.3207 71.0948 85.3207 64.1223C85.3207 45.471 85.3207 9.86833 85.3207 9.86833C76.1899 4.16697 64.1076 1.41913 49.6965 1V11.6565" stroke="black" stroke-miterlimit="1.5" stroke-linecap="round" stroke-linejoin="round"/>
<path fill-rule="evenodd" clip-rule="evenodd" d="M46.1282 50.6357C44.0031 49.4038 42.5734 47.1044 42.5734 44.4721C42.5734 40.5413 45.7659 37.3508 49.6967 37.3508C53.6275 37.3508 56.818 40.5413 56.818 44.4721C56.818 46.936 55.5645 49.11 53.6627 50.389V59.4061C53.6627 60.4461 52.8186 61.2883 51.7786 61.2883C50.6289 61.2883 49.162 61.2883 48.0103 61.2883C46.9703 61.2883 46.1282 60.4461 46.1282 59.4061V50.6357Z" stroke="black" stroke-miterlimit="1.5" stroke-linecap="round" stroke-linejoin="round"/>
<path d="M40.8832 1.27393C30.1699 2.12394 21.3348 4.84828 14 9.07485V64.1083C14 71.0886 17.351 77.642 23.0093 81.7295C33.5855 89.3659 49.6967 101 49.6967 101V87.9812M49.6967 87.9812C49.6967 87.9812 37.1423 79.2813 29.7135 74.1323C26.3703 71.8153 24.3765 68.0078 24.3765 63.9399C24.3765 49.4074 24.3765 15.5283 24.3765 15.5283C41.4199 10.0502 58.4652 10.5026 75.5086 16.0943V64.314C75.5086 68.4877 73.4089 72.3813 69.9226 74.6748C62.3332 79.6671 49.6967 87.9812 49.6967 87.9812Z" stroke="black" stroke-miterlimit="1.5" stroke-linecap="round" stroke-linejoin="round"/>
</svg>
