<svg width="50" height="50" viewBox="0 0 50 50" fill="none" xmlns="http://www.w3.org/2000/svg">
<path fill-rule="evenodd" clip-rule="evenodd" d="M37.4634 18.588C37.4634 15.4999 34.9627 13.0002 31.8779 13.0002H19.0334C15.9486 13.0002 13.4475 15.4999 13.4475 18.588V31.4301C13.4475 34.5182 15.9486 37.0179 19.0334 37.0179H31.8779C34.9627 37.0179 37.4634 34.5182 37.4634 31.4301V18.588Z" stroke="#646B78" stroke-miterlimit="1.5" stroke-linecap="round" stroke-linejoin="round"/>
<path d="M41.9711 31.7324C45.5609 28.1192 45.5741 22.1797 41.9711 18.6656" stroke="#646B78" stroke-miterlimit="1.5" stroke-linecap="round" stroke-linejoin="round"/>
<path d="M44.9008 34.3972C50.3564 29.3101 50.3765 20.9479 44.9008 16.0004" stroke="#646B78" stroke-miterlimit="1.5" stroke-linecap="round" stroke-linejoin="round"/>
<path d="M8.02954 18.6648C4.4397 22.2781 4.42652 28.2175 8.02954 31.7316" stroke="#646B78" stroke-miterlimit="1.5" stroke-linecap="round" stroke-linejoin="round"/>
<path d="M5.09924 16.0002C-0.356448 21.0874 -0.376493 29.4496 5.09924 34.3971" stroke="#646B78" stroke-miterlimit="1.5" stroke-linecap="round" stroke-linejoin="round"/>
<path d="M18.4663 42.1697C22.0796 45.7595 28.019 45.7727 31.5331 42.1697" stroke="#646B78" stroke-miterlimit="1.5" stroke-linecap="round" stroke-linejoin="round"/>
<path d="M15.8015 45.0994C20.8887 50.5551 29.2509 50.5751 34.1983 45.0994" stroke="#646B78" stroke-miterlimit="1.5" stroke-linecap="round" stroke-linejoin="round"/>
<path d="M31.5337 8.22803C27.9204 4.63819 21.981 4.625 18.4669 8.22803" stroke="#646B78" stroke-miterlimit="1.5" stroke-linecap="round" stroke-linejoin="round"/>
<path d="M34.1985 5.29785C29.1113 -0.15784 20.7491 -0.177885 15.8017 5.29785" stroke="#646B78" stroke-miterlimit="1.5" stroke-linecap="round" stroke-linejoin="round"/>
<path d="M25.4559 30.2775C28.3666 30.2775 30.7261 27.9179 30.7261 25.0073C30.7261 22.0966 28.3666 19.7371 25.4559 19.7371C22.5452 19.7371 20.1857 22.0966 20.1857 25.0073C20.1857 27.9179 22.5452 30.2775 25.4559 30.2775Z" stroke="#646B78" stroke-miterlimit="1.5" stroke-linecap="round" stroke-linejoin="round"/>
</svg>
