<svg width="50" height="48" viewBox="0 0 50 48" fill="none" xmlns="http://www.w3.org/2000/svg">
<path d="M31.05 24.0085C31.3333 20.132 28.3876 17.1711 24.5528 17.5113" stroke="#646B78" stroke-miterlimit="1.5" stroke-linecap="round" stroke-linejoin="round"/>
<path d="M18.1169 13.708H3.79752C3.00104 13.708 2.2371 14.0219 1.67407 14.5869C1.11065 15.1479 0.794434 15.913 0.794434 16.7095C0.794434 20.3545 0.794434 26.4634 0.794434 30.1084C0.794434 30.9049 1.11065 31.67 1.67407 32.2311C2.2371 32.7921 3.00104 33.1099 3.79752 33.1099C8.7569 33.1099 18.1169 33.1099 18.1169 33.1099" stroke="#646B78" stroke-miterlimit="1.5" stroke-linecap="round" stroke-linejoin="round"/>
<path d="M32.3308 33.1099H45.7914C46.5878 33.1099 47.3514 32.7921 47.9148 32.2311C48.4778 31.67 48.7944 30.9049 48.7944 30.1084C48.7944 26.4634 48.7944 20.3545 48.7944 16.7095C48.7944 15.913 48.4778 15.1479 47.9148 14.5869C47.3514 14.0219 46.5878 13.708 45.7914 13.708C41.0419 13.708 32.3308 13.708 32.3308 13.708" stroke="#646B78" stroke-miterlimit="1.5" stroke-linecap="round" stroke-linejoin="round"/>
<path d="M5.2583 33.1099V36.9716" stroke="#646B78" stroke-miterlimit="1.5" stroke-linecap="round" stroke-linejoin="round"/>
<path d="M44.3164 33.1099V36.9716" stroke="#646B78" stroke-miterlimit="1.5" stroke-linecap="round" stroke-linejoin="round"/>
<path d="M25.2241 35.438C31.8669 35.438 37.2521 30.053 37.2521 23.4101C37.2521 16.7672 31.8669 11.3821 25.2241 11.3821C18.5812 11.3821 13.196 16.7672 13.196 23.4101C13.196 30.053 18.5812 35.438 25.2241 35.438Z" stroke="#646B78" stroke-miterlimit="1.5" stroke-linecap="round" stroke-linejoin="round"/>
<path d="M4.31299 18.9341H10.0398" stroke="#646B78" stroke-miterlimit="1.5" stroke-linecap="round" stroke-linejoin="round"/>
<path d="M40.1213 18.9341H45.8482" stroke="#646B78" stroke-miterlimit="1.5" stroke-linecap="round" stroke-linejoin="round"/>
</svg>
