<svg width="50" height="48" viewBox="0 0 50 48" fill="none" xmlns="http://www.w3.org/2000/svg">
<path fill-rule="evenodd" clip-rule="evenodd" d="M21.2446 7.76801C21.2446 4.51617 18.6095 1.88013 15.359 1.88013H7.11858C3.86806 1.88013 1.23291 4.51617 1.23291 7.76801V30.3271C1.23291 33.5789 3.86806 36.215 7.11858 36.215H15.359C18.6095 36.215 21.2446 33.5789 21.2446 30.3271V7.76801Z" stroke="#646B78" stroke-miterlimit="1.5" stroke-linecap="round" stroke-linejoin="round"/>
<path d="M11.2389 16.9803C12.9502 16.9803 14.3375 15.593 14.3375 13.8818C14.3375 12.1705 12.9502 10.7832 11.2389 10.7832C9.52766 10.7832 8.14038 12.1705 8.14038 13.8818C8.14038 15.593 9.52766 16.9803 11.2389 16.9803Z" stroke="#646B78" stroke-miterlimit="1.5" stroke-linecap="round" stroke-linejoin="round"/>
<path d="M11.2392 28.8734C13.3388 28.8734 15.0409 27.1713 15.0409 25.0717C15.0409 22.9721 13.3388 21.27 11.2392 21.27C9.13958 21.27 7.4375 22.9721 7.4375 25.0717C7.4375 27.1713 9.13958 28.8734 11.2392 28.8734Z" stroke="#646B78" stroke-miterlimit="1.5" stroke-linecap="round" stroke-linejoin="round"/>
<path d="M11.2388 36.2148V45.545" stroke="#646B78" stroke-miterlimit="1.5" stroke-linecap="round" stroke-linejoin="round"/>
<path d="M5.00952 45.5452H17.4676" stroke="#646B78" stroke-miterlimit="1.5" stroke-linecap="round" stroke-linejoin="round"/>
<path fill-rule="evenodd" clip-rule="evenodd" d="M49.2329 7.76801C49.2329 4.51617 46.5978 1.88013 43.3472 1.88013H35.1069C31.8563 1.88013 29.2212 4.51617 29.2212 7.76801V30.3271C29.2212 33.5789 31.8563 36.215 35.1069 36.215H43.3472C46.5978 36.215 49.2329 33.5789 49.2329 30.3271V7.76801Z" stroke="#646B78" stroke-miterlimit="1.5" stroke-linecap="round" stroke-linejoin="round"/>
<path d="M39.2272 16.9803C40.9385 16.9803 42.3258 15.593 42.3258 13.8818C42.3258 12.1705 40.9385 10.7832 39.2272 10.7832C37.5159 10.7832 36.1287 12.1705 36.1287 13.8818C36.1287 15.593 37.5159 16.9803 39.2272 16.9803Z" stroke="#646B78" stroke-miterlimit="1.5" stroke-linecap="round" stroke-linejoin="round"/>
<path d="M39.2275 28.8734C41.3271 28.8734 43.0292 27.1713 43.0292 25.0717C43.0292 22.9721 41.3271 21.27 39.2275 21.27C37.1279 21.27 35.4258 22.9721 35.4258 25.0717C35.4258 27.1713 37.1279 28.8734 39.2275 28.8734Z" stroke="#646B78" stroke-miterlimit="1.5" stroke-linecap="round" stroke-linejoin="round"/>
<path d="M39.2271 36.2148V45.545" stroke="#646B78" stroke-miterlimit="1.5" stroke-linecap="round" stroke-linejoin="round"/>
<path d="M32.998 45.5452H45.4561" stroke="#646B78" stroke-miterlimit="1.5" stroke-linecap="round" stroke-linejoin="round"/>
</svg>
