<svg width="48" height="50" viewBox="0 0 48 50" fill="none" xmlns="http://www.w3.org/2000/svg">
<path d="M24.4438 37.7617V48.5911" stroke="#646B78" stroke-miterlimit="1.5" stroke-linecap="round" stroke-linejoin="round"/>
<path d="M15.9393 48.5911H32.9478" stroke="#646B78" stroke-miterlimit="1.5" stroke-linecap="round" stroke-linejoin="round"/>
<path d="M39.8871 22.3198C39.8871 30.8409 32.9669 37.7618 24.4435 37.7618C15.9201 37.7618 9 30.8409 9 22.3198" stroke="#646B78" stroke-miterlimit="1.5" stroke-linecap="round" stroke-linejoin="round"/>
<path fill-rule="evenodd" clip-rule="evenodd" d="M34.4357 10.5764C34.4357 5.061 29.9647 0.591064 24.4491 0.591064H24.4483C18.9327 0.591064 14.4617 5.061 14.4617 10.5764C14.4617 14.2244 14.4617 18.3534 14.4617 22.0013C14.4617 27.5168 18.9327 31.9905 24.4483 31.9905H24.4491C29.9647 31.9905 34.4357 27.5168 34.4357 22.0013C34.4357 18.3534 34.4357 14.2244 34.4357 10.5764Z" stroke="#646B78" stroke-miterlimit="1.5" stroke-linecap="round" stroke-linejoin="round"/>
<path d="M14.4617 10.3599H19.9859" stroke="#646B78" stroke-miterlimit="1.5" stroke-linecap="round" stroke-linejoin="round"/>
<path d="M14.4617 16.3406H19.9859" stroke="#646B78" stroke-miterlimit="1.5" stroke-linecap="round" stroke-linejoin="round"/>
<path d="M14.4617 22.321H19.9859" stroke="#646B78" stroke-miterlimit="1.5" stroke-linecap="round" stroke-linejoin="round"/>
<path d="M28.9114 10.3599H34.4356" stroke="#646B78" stroke-miterlimit="1.5" stroke-linecap="round" stroke-linejoin="round"/>
<path d="M28.9114 16.3406H34.4356" stroke="#646B78" stroke-miterlimit="1.5" stroke-linecap="round" stroke-linejoin="round"/>
<path d="M28.9114 22.321H34.4356" stroke="#646B78" stroke-miterlimit="1.5" stroke-linecap="round" stroke-linejoin="round"/>
</svg>
